G04 #@! TF.GenerationSoftware,KiCad,Pcbnew,(5.1.2-1)-1*
G04 #@! TF.CreationDate,2021-07-14T23:00:58-07:00*
G04 #@! TF.ProjectId,vista20p-alt,76697374-6132-4307-902d-616c742e6b69,rev?*
G04 #@! TF.SameCoordinates,Original*
G04 #@! TF.FileFunction,Legend,Top*
G04 #@! TF.FilePolarity,Positive*
%FSLAX46Y46*%
G04 Gerber Fmt 4.6, Leading zero omitted, Abs format (unit mm)*
G04 Created by KiCad (PCBNEW (5.1.2-1)-1) date 2021-07-14 23:00:58*
%MOMM*%
%LPD*%
G04 APERTURE LIST*
%ADD10C,0.150000*%
%ADD11C,0.120000*%
G04 APERTURE END LIST*
D10*
X51966904Y-123007380D02*
X51966904Y-122007380D01*
X52205000Y-122007380D01*
X52347857Y-122055000D01*
X52443095Y-122150238D01*
X52490714Y-122245476D01*
X52538333Y-122435952D01*
X52538333Y-122578809D01*
X52490714Y-122769285D01*
X52443095Y-122864523D01*
X52347857Y-122959761D01*
X52205000Y-123007380D01*
X51966904Y-123007380D01*
X53443095Y-122007380D02*
X52966904Y-122007380D01*
X52919285Y-122483571D01*
X52966904Y-122435952D01*
X53062142Y-122388333D01*
X53300238Y-122388333D01*
X53395476Y-122435952D01*
X53443095Y-122483571D01*
X53490714Y-122578809D01*
X53490714Y-122816904D01*
X53443095Y-122912142D01*
X53395476Y-122959761D01*
X53300238Y-123007380D01*
X53062142Y-123007380D01*
X52966904Y-122959761D01*
X52919285Y-122912142D01*
X80518095Y-115022380D02*
X81089523Y-115022380D01*
X80803809Y-116022380D02*
X80803809Y-115022380D01*
X81327619Y-115022380D02*
X81994285Y-116022380D01*
X81994285Y-115022380D02*
X81327619Y-116022380D01*
X81113333Y-117927380D02*
X80780000Y-117451190D01*
X80541904Y-117927380D02*
X80541904Y-116927380D01*
X80922857Y-116927380D01*
X81018095Y-116975000D01*
X81065714Y-117022619D01*
X81113333Y-117117857D01*
X81113333Y-117260714D01*
X81065714Y-117355952D01*
X81018095Y-117403571D01*
X80922857Y-117451190D01*
X80541904Y-117451190D01*
X81446666Y-116927380D02*
X82113333Y-117927380D01*
X82113333Y-116927380D02*
X81446666Y-117927380D01*
X80541904Y-120467380D02*
X80541904Y-119467380D01*
X80780000Y-119467380D01*
X80922857Y-119515000D01*
X81018095Y-119610238D01*
X81065714Y-119705476D01*
X81113333Y-119895952D01*
X81113333Y-120038809D01*
X81065714Y-120229285D01*
X81018095Y-120324523D01*
X80922857Y-120419761D01*
X80780000Y-120467380D01*
X80541904Y-120467380D01*
X82065714Y-120467380D02*
X81494285Y-120467380D01*
X81780000Y-120467380D02*
X81780000Y-119467380D01*
X81684761Y-119610238D01*
X81589523Y-119705476D01*
X81494285Y-119753095D01*
X80541904Y-123007380D02*
X80541904Y-122007380D01*
X80780000Y-122007380D01*
X80922857Y-122055000D01*
X81018095Y-122150238D01*
X81065714Y-122245476D01*
X81113333Y-122435952D01*
X81113333Y-122578809D01*
X81065714Y-122769285D01*
X81018095Y-122864523D01*
X80922857Y-122959761D01*
X80780000Y-123007380D01*
X80541904Y-123007380D01*
X81494285Y-122102619D02*
X81541904Y-122055000D01*
X81637142Y-122007380D01*
X81875238Y-122007380D01*
X81970476Y-122055000D01*
X82018095Y-122102619D01*
X82065714Y-122197857D01*
X82065714Y-122293095D01*
X82018095Y-122435952D01*
X81446666Y-123007380D01*
X82065714Y-123007380D01*
X80541904Y-125547380D02*
X80541904Y-124547380D01*
X80780000Y-124547380D01*
X80922857Y-124595000D01*
X81018095Y-124690238D01*
X81065714Y-124785476D01*
X81113333Y-124975952D01*
X81113333Y-125118809D01*
X81065714Y-125309285D01*
X81018095Y-125404523D01*
X80922857Y-125499761D01*
X80780000Y-125547380D01*
X80541904Y-125547380D01*
X81446666Y-124547380D02*
X82065714Y-124547380D01*
X81732380Y-124928333D01*
X81875238Y-124928333D01*
X81970476Y-124975952D01*
X82018095Y-125023571D01*
X82065714Y-125118809D01*
X82065714Y-125356904D01*
X82018095Y-125452142D01*
X81970476Y-125499761D01*
X81875238Y-125547380D01*
X81589523Y-125547380D01*
X81494285Y-125499761D01*
X81446666Y-125452142D01*
X80541904Y-127452380D02*
X80541904Y-126452380D01*
X80780000Y-126452380D01*
X80922857Y-126500000D01*
X81018095Y-126595238D01*
X81065714Y-126690476D01*
X81113333Y-126880952D01*
X81113333Y-127023809D01*
X81065714Y-127214285D01*
X81018095Y-127309523D01*
X80922857Y-127404761D01*
X80780000Y-127452380D01*
X80541904Y-127452380D01*
X81970476Y-126785714D02*
X81970476Y-127452380D01*
X81732380Y-126404761D02*
X81494285Y-127119047D01*
X82113333Y-127119047D01*
X81089523Y-132167380D02*
X80613333Y-132167380D01*
X80565714Y-132643571D01*
X80613333Y-132595952D01*
X80708571Y-132548333D01*
X80946666Y-132548333D01*
X81041904Y-132595952D01*
X81089523Y-132643571D01*
X81137142Y-132738809D01*
X81137142Y-132976904D01*
X81089523Y-133072142D01*
X81041904Y-133119761D01*
X80946666Y-133167380D01*
X80708571Y-133167380D01*
X80613333Y-133119761D01*
X80565714Y-133072142D01*
X81422857Y-132167380D02*
X81756190Y-133167380D01*
X82089523Y-132167380D01*
X51966904Y-130627380D02*
X51966904Y-129627380D01*
X52205000Y-129627380D01*
X52347857Y-129675000D01*
X52443095Y-129770238D01*
X52490714Y-129865476D01*
X52538333Y-130055952D01*
X52538333Y-130198809D01*
X52490714Y-130389285D01*
X52443095Y-130484523D01*
X52347857Y-130579761D01*
X52205000Y-130627380D01*
X51966904Y-130627380D01*
X53109761Y-130055952D02*
X53014523Y-130008333D01*
X52966904Y-129960714D01*
X52919285Y-129865476D01*
X52919285Y-129817857D01*
X52966904Y-129722619D01*
X53014523Y-129675000D01*
X53109761Y-129627380D01*
X53300238Y-129627380D01*
X53395476Y-129675000D01*
X53443095Y-129722619D01*
X53490714Y-129817857D01*
X53490714Y-129865476D01*
X53443095Y-129960714D01*
X53395476Y-130008333D01*
X53300238Y-130055952D01*
X53109761Y-130055952D01*
X53014523Y-130103571D01*
X52966904Y-130151190D01*
X52919285Y-130246428D01*
X52919285Y-130436904D01*
X52966904Y-130532142D01*
X53014523Y-130579761D01*
X53109761Y-130627380D01*
X53300238Y-130627380D01*
X53395476Y-130579761D01*
X53443095Y-130532142D01*
X53490714Y-130436904D01*
X53490714Y-130246428D01*
X53443095Y-130151190D01*
X53395476Y-130103571D01*
X53300238Y-130055952D01*
X51966904Y-128087380D02*
X51966904Y-127087380D01*
X52205000Y-127087380D01*
X52347857Y-127135000D01*
X52443095Y-127230238D01*
X52490714Y-127325476D01*
X52538333Y-127515952D01*
X52538333Y-127658809D01*
X52490714Y-127849285D01*
X52443095Y-127944523D01*
X52347857Y-128039761D01*
X52205000Y-128087380D01*
X51966904Y-128087380D01*
X52871666Y-127087380D02*
X53538333Y-127087380D01*
X53109761Y-128087380D01*
X51966904Y-125547380D02*
X51966904Y-124547380D01*
X52205000Y-124547380D01*
X52347857Y-124595000D01*
X52443095Y-124690238D01*
X52490714Y-124785476D01*
X52538333Y-124975952D01*
X52538333Y-125118809D01*
X52490714Y-125309285D01*
X52443095Y-125404523D01*
X52347857Y-125499761D01*
X52205000Y-125547380D01*
X51966904Y-125547380D01*
X53395476Y-124547380D02*
X53205000Y-124547380D01*
X53109761Y-124595000D01*
X53062142Y-124642619D01*
X52966904Y-124785476D01*
X52919285Y-124975952D01*
X52919285Y-125356904D01*
X52966904Y-125452142D01*
X53014523Y-125499761D01*
X53109761Y-125547380D01*
X53300238Y-125547380D01*
X53395476Y-125499761D01*
X53443095Y-125452142D01*
X53490714Y-125356904D01*
X53490714Y-125118809D01*
X53443095Y-125023571D01*
X53395476Y-124975952D01*
X53300238Y-124928333D01*
X53109761Y-124928333D01*
X53014523Y-124975952D01*
X52966904Y-125023571D01*
X52919285Y-125118809D01*
X51966904Y-120467380D02*
X51966904Y-119467380D01*
X52205000Y-119467380D01*
X52347857Y-119515000D01*
X52443095Y-119610238D01*
X52490714Y-119705476D01*
X52538333Y-119895952D01*
X52538333Y-120038809D01*
X52490714Y-120229285D01*
X52443095Y-120324523D01*
X52347857Y-120419761D01*
X52205000Y-120467380D01*
X51966904Y-120467380D01*
X53157380Y-119467380D02*
X53252619Y-119467380D01*
X53347857Y-119515000D01*
X53395476Y-119562619D01*
X53443095Y-119657857D01*
X53490714Y-119848333D01*
X53490714Y-120086428D01*
X53443095Y-120276904D01*
X53395476Y-120372142D01*
X53347857Y-120419761D01*
X53252619Y-120467380D01*
X53157380Y-120467380D01*
X53062142Y-120419761D01*
X53014523Y-120372142D01*
X52966904Y-120276904D01*
X52919285Y-120086428D01*
X52919285Y-119848333D01*
X52966904Y-119657857D01*
X53014523Y-119562619D01*
X53062142Y-119515000D01*
X53157380Y-119467380D01*
X51990714Y-117641666D02*
X52466904Y-117641666D01*
X51895476Y-117927380D02*
X52228809Y-116927380D01*
X52562142Y-117927380D01*
X53085952Y-116927380D02*
X53181190Y-116927380D01*
X53276428Y-116975000D01*
X53324047Y-117022619D01*
X53371666Y-117117857D01*
X53419285Y-117308333D01*
X53419285Y-117546428D01*
X53371666Y-117736904D01*
X53324047Y-117832142D01*
X53276428Y-117879761D01*
X53181190Y-117927380D01*
X53085952Y-117927380D01*
X52990714Y-117879761D01*
X52943095Y-117832142D01*
X52895476Y-117736904D01*
X52847857Y-117546428D01*
X52847857Y-117308333D01*
X52895476Y-117117857D01*
X52943095Y-117022619D01*
X52990714Y-116975000D01*
X53085952Y-116927380D01*
X51570000Y-113385000D02*
X52570000Y-113385000D01*
X52379523Y-114752380D02*
X52046190Y-114276190D01*
X51808095Y-114752380D02*
X51808095Y-113752380D01*
X52189047Y-113752380D01*
X52284285Y-113800000D01*
X52331904Y-113847619D01*
X52379523Y-113942857D01*
X52379523Y-114085714D01*
X52331904Y-114180952D01*
X52284285Y-114228571D01*
X52189047Y-114276190D01*
X51808095Y-114276190D01*
X75946190Y-104862380D02*
X76279523Y-105862380D01*
X76612857Y-104862380D01*
X77470000Y-105862380D02*
X76898571Y-105862380D01*
X77184285Y-105862380D02*
X77184285Y-104862380D01*
X77089047Y-105005238D01*
X76993809Y-105100476D01*
X76898571Y-105148095D01*
X77898571Y-105767142D02*
X77946190Y-105814761D01*
X77898571Y-105862380D01*
X77850952Y-105814761D01*
X77898571Y-105767142D01*
X77898571Y-105862380D01*
X78565238Y-104862380D02*
X78660476Y-104862380D01*
X78755714Y-104910000D01*
X78803333Y-104957619D01*
X78850952Y-105052857D01*
X78898571Y-105243333D01*
X78898571Y-105481428D01*
X78850952Y-105671904D01*
X78803333Y-105767142D01*
X78755714Y-105814761D01*
X78660476Y-105862380D01*
X78565238Y-105862380D01*
X78470000Y-105814761D01*
X78422380Y-105767142D01*
X78374761Y-105671904D01*
X78327142Y-105481428D01*
X78327142Y-105243333D01*
X78374761Y-105052857D01*
X78422380Y-104957619D01*
X78470000Y-104910000D01*
X78565238Y-104862380D01*
X110418571Y-125007619D02*
X110466190Y-124864761D01*
X110513809Y-124817142D01*
X110609047Y-124769523D01*
X110751904Y-124769523D01*
X110847142Y-124817142D01*
X110894761Y-124864761D01*
X110942380Y-124960000D01*
X110942380Y-125340952D01*
X109942380Y-125340952D01*
X109942380Y-125007619D01*
X109990000Y-124912380D01*
X110037619Y-124864761D01*
X110132857Y-124817142D01*
X110228095Y-124817142D01*
X110323333Y-124864761D01*
X110370952Y-124912380D01*
X110418571Y-125007619D01*
X110418571Y-125340952D01*
X110561428Y-124340952D02*
X110561428Y-123579047D01*
X110942380Y-122229523D02*
X110466190Y-122562857D01*
X110942380Y-122800952D02*
X109942380Y-122800952D01*
X109942380Y-122420000D01*
X109990000Y-122324761D01*
X110037619Y-122277142D01*
X110132857Y-122229523D01*
X110275714Y-122229523D01*
X110370952Y-122277142D01*
X110418571Y-122324761D01*
X110466190Y-122420000D01*
X110466190Y-122800952D01*
X110561428Y-121800952D02*
X110561428Y-121039047D01*
X110942380Y-121420000D02*
X110180476Y-121420000D01*
X109990000Y-128008095D02*
X109942380Y-128103333D01*
X109942380Y-128246190D01*
X109990000Y-128389047D01*
X110085238Y-128484285D01*
X110180476Y-128531904D01*
X110370952Y-128579523D01*
X110513809Y-128579523D01*
X110704285Y-128531904D01*
X110799523Y-128484285D01*
X110894761Y-128389047D01*
X110942380Y-128246190D01*
X110942380Y-128150952D01*
X110894761Y-128008095D01*
X110847142Y-127960476D01*
X110513809Y-127960476D01*
X110513809Y-128150952D01*
X110466190Y-116840000D02*
X110942380Y-116840000D01*
X109942380Y-117173333D02*
X110466190Y-116840000D01*
X109942380Y-116506666D01*
X55000476Y-103036666D02*
X55476666Y-103036666D01*
X54905238Y-103322380D02*
X55238571Y-102322380D01*
X55571904Y-103322380D01*
X56333809Y-103322380D02*
X56333809Y-102322380D01*
X56333809Y-103274761D02*
X56238571Y-103322380D01*
X56048095Y-103322380D01*
X55952857Y-103274761D01*
X55905238Y-103227142D01*
X55857619Y-103131904D01*
X55857619Y-102846190D01*
X55905238Y-102750952D01*
X55952857Y-102703333D01*
X56048095Y-102655714D01*
X56238571Y-102655714D01*
X56333809Y-102703333D01*
X57190952Y-103274761D02*
X57095714Y-103322380D01*
X56905238Y-103322380D01*
X56810000Y-103274761D01*
X56762380Y-103179523D01*
X56762380Y-102798571D01*
X56810000Y-102703333D01*
X56905238Y-102655714D01*
X57095714Y-102655714D01*
X57190952Y-102703333D01*
X57238571Y-102798571D01*
X57238571Y-102893809D01*
X56762380Y-102989047D01*
X57667142Y-103322380D02*
X57667142Y-102655714D01*
X57667142Y-102750952D02*
X57714761Y-102703333D01*
X57810000Y-102655714D01*
X57952857Y-102655714D01*
X58048095Y-102703333D01*
X58095714Y-102798571D01*
X58095714Y-103322380D01*
X58095714Y-102798571D02*
X58143333Y-102703333D01*
X58238571Y-102655714D01*
X58381428Y-102655714D01*
X58476666Y-102703333D01*
X58524285Y-102798571D01*
X58524285Y-103322380D01*
X59429047Y-103274761D02*
X59333809Y-103322380D01*
X59143333Y-103322380D01*
X59048095Y-103274761D01*
X59000476Y-103227142D01*
X58952857Y-103131904D01*
X58952857Y-102846190D01*
X59000476Y-102750952D01*
X59048095Y-102703333D01*
X59143333Y-102655714D01*
X59333809Y-102655714D01*
X59429047Y-102703333D01*
X60000476Y-103322380D02*
X59905238Y-103274761D01*
X59857619Y-103227142D01*
X59810000Y-103131904D01*
X59810000Y-102846190D01*
X59857619Y-102750952D01*
X59905238Y-102703333D01*
X60000476Y-102655714D01*
X60143333Y-102655714D01*
X60238571Y-102703333D01*
X60286190Y-102750952D01*
X60333809Y-102846190D01*
X60333809Y-103131904D01*
X60286190Y-103227142D01*
X60238571Y-103274761D01*
X60143333Y-103322380D01*
X60000476Y-103322380D01*
X61476666Y-102274761D02*
X60619523Y-103560476D01*
X61667142Y-102322380D02*
X62000476Y-103322380D01*
X62333809Y-102322380D01*
X62667142Y-103322380D02*
X62667142Y-102655714D01*
X62667142Y-102322380D02*
X62619523Y-102370000D01*
X62667142Y-102417619D01*
X62714761Y-102370000D01*
X62667142Y-102322380D01*
X62667142Y-102417619D01*
X63095714Y-103274761D02*
X63190952Y-103322380D01*
X63381428Y-103322380D01*
X63476666Y-103274761D01*
X63524285Y-103179523D01*
X63524285Y-103131904D01*
X63476666Y-103036666D01*
X63381428Y-102989047D01*
X63238571Y-102989047D01*
X63143333Y-102941428D01*
X63095714Y-102846190D01*
X63095714Y-102798571D01*
X63143333Y-102703333D01*
X63238571Y-102655714D01*
X63381428Y-102655714D01*
X63476666Y-102703333D01*
X63810000Y-102655714D02*
X64190952Y-102655714D01*
X63952857Y-102322380D02*
X63952857Y-103179523D01*
X64000476Y-103274761D01*
X64095714Y-103322380D01*
X64190952Y-103322380D01*
X64952857Y-103322380D02*
X64952857Y-102798571D01*
X64905238Y-102703333D01*
X64810000Y-102655714D01*
X64619523Y-102655714D01*
X64524285Y-102703333D01*
X64952857Y-103274761D02*
X64857619Y-103322380D01*
X64619523Y-103322380D01*
X64524285Y-103274761D01*
X64476666Y-103179523D01*
X64476666Y-103084285D01*
X64524285Y-102989047D01*
X64619523Y-102941428D01*
X64857619Y-102941428D01*
X64952857Y-102893809D01*
X66190952Y-103322380D02*
X66190952Y-102322380D01*
X66571904Y-102322380D01*
X66667142Y-102370000D01*
X66714761Y-102417619D01*
X66762380Y-102512857D01*
X66762380Y-102655714D01*
X66714761Y-102750952D01*
X66667142Y-102798571D01*
X66571904Y-102846190D01*
X66190952Y-102846190D01*
X67619523Y-103322380D02*
X67619523Y-102798571D01*
X67571904Y-102703333D01*
X67476666Y-102655714D01*
X67286190Y-102655714D01*
X67190952Y-102703333D01*
X67619523Y-103274761D02*
X67524285Y-103322380D01*
X67286190Y-103322380D01*
X67190952Y-103274761D01*
X67143333Y-103179523D01*
X67143333Y-103084285D01*
X67190952Y-102989047D01*
X67286190Y-102941428D01*
X67524285Y-102941428D01*
X67619523Y-102893809D01*
X68095714Y-102655714D02*
X68095714Y-103322380D01*
X68095714Y-102750952D02*
X68143333Y-102703333D01*
X68238571Y-102655714D01*
X68381428Y-102655714D01*
X68476666Y-102703333D01*
X68524285Y-102798571D01*
X68524285Y-103322380D01*
X69381428Y-103274761D02*
X69286190Y-103322380D01*
X69095714Y-103322380D01*
X69000476Y-103274761D01*
X68952857Y-103179523D01*
X68952857Y-102798571D01*
X69000476Y-102703333D01*
X69095714Y-102655714D01*
X69286190Y-102655714D01*
X69381428Y-102703333D01*
X69429047Y-102798571D01*
X69429047Y-102893809D01*
X68952857Y-102989047D01*
X70000476Y-103322380D02*
X69905238Y-103274761D01*
X69857619Y-103179523D01*
X69857619Y-102322380D01*
X71000476Y-102655714D02*
X71381428Y-102655714D01*
X71143333Y-102322380D02*
X71143333Y-103179523D01*
X71190952Y-103274761D01*
X71286190Y-103322380D01*
X71381428Y-103322380D01*
X71857619Y-103322380D02*
X71762380Y-103274761D01*
X71714761Y-103227142D01*
X71667142Y-103131904D01*
X71667142Y-102846190D01*
X71714761Y-102750952D01*
X71762380Y-102703333D01*
X71857619Y-102655714D01*
X72000476Y-102655714D01*
X72095714Y-102703333D01*
X72143333Y-102750952D01*
X72190952Y-102846190D01*
X72190952Y-103131904D01*
X72143333Y-103227142D01*
X72095714Y-103274761D01*
X72000476Y-103322380D01*
X71857619Y-103322380D01*
X73381428Y-102798571D02*
X73714761Y-102798571D01*
X73857619Y-103322380D02*
X73381428Y-103322380D01*
X73381428Y-102322380D01*
X73857619Y-102322380D01*
X74238571Y-103274761D02*
X74381428Y-103322380D01*
X74619523Y-103322380D01*
X74714761Y-103274761D01*
X74762380Y-103227142D01*
X74810000Y-103131904D01*
X74810000Y-103036666D01*
X74762380Y-102941428D01*
X74714761Y-102893809D01*
X74619523Y-102846190D01*
X74429047Y-102798571D01*
X74333809Y-102750952D01*
X74286190Y-102703333D01*
X74238571Y-102608095D01*
X74238571Y-102512857D01*
X74286190Y-102417619D01*
X74333809Y-102370000D01*
X74429047Y-102322380D01*
X74667142Y-102322380D01*
X74810000Y-102370000D01*
X75238571Y-103322380D02*
X75238571Y-102322380D01*
X75619523Y-102322380D01*
X75714761Y-102370000D01*
X75762380Y-102417619D01*
X75810000Y-102512857D01*
X75810000Y-102655714D01*
X75762380Y-102750952D01*
X75714761Y-102798571D01*
X75619523Y-102846190D01*
X75238571Y-102846190D01*
X76381428Y-102750952D02*
X76286190Y-102703333D01*
X76238571Y-102655714D01*
X76190952Y-102560476D01*
X76190952Y-102512857D01*
X76238571Y-102417619D01*
X76286190Y-102370000D01*
X76381428Y-102322380D01*
X76571904Y-102322380D01*
X76667142Y-102370000D01*
X76714761Y-102417619D01*
X76762380Y-102512857D01*
X76762380Y-102560476D01*
X76714761Y-102655714D01*
X76667142Y-102703333D01*
X76571904Y-102750952D01*
X76381428Y-102750952D01*
X76286190Y-102798571D01*
X76238571Y-102846190D01*
X76190952Y-102941428D01*
X76190952Y-103131904D01*
X76238571Y-103227142D01*
X76286190Y-103274761D01*
X76381428Y-103322380D01*
X76571904Y-103322380D01*
X76667142Y-103274761D01*
X76714761Y-103227142D01*
X76762380Y-103131904D01*
X76762380Y-102941428D01*
X76714761Y-102846190D01*
X76667142Y-102798571D01*
X76571904Y-102750952D01*
X77143333Y-102417619D02*
X77190952Y-102370000D01*
X77286190Y-102322380D01*
X77524285Y-102322380D01*
X77619523Y-102370000D01*
X77667142Y-102417619D01*
X77714761Y-102512857D01*
X77714761Y-102608095D01*
X77667142Y-102750952D01*
X77095714Y-103322380D01*
X77714761Y-103322380D01*
X78571904Y-102322380D02*
X78381428Y-102322380D01*
X78286190Y-102370000D01*
X78238571Y-102417619D01*
X78143333Y-102560476D01*
X78095714Y-102750952D01*
X78095714Y-103131904D01*
X78143333Y-103227142D01*
X78190952Y-103274761D01*
X78286190Y-103322380D01*
X78476666Y-103322380D01*
X78571904Y-103274761D01*
X78619523Y-103227142D01*
X78667142Y-103131904D01*
X78667142Y-102893809D01*
X78619523Y-102798571D01*
X78571904Y-102750952D01*
X78476666Y-102703333D01*
X78286190Y-102703333D01*
X78190952Y-102750952D01*
X78143333Y-102798571D01*
X78095714Y-102893809D01*
X79524285Y-102322380D02*
X79333809Y-102322380D01*
X79238571Y-102370000D01*
X79190952Y-102417619D01*
X79095714Y-102560476D01*
X79048095Y-102750952D01*
X79048095Y-103131904D01*
X79095714Y-103227142D01*
X79143333Y-103274761D01*
X79238571Y-103322380D01*
X79429047Y-103322380D01*
X79524285Y-103274761D01*
X79571904Y-103227142D01*
X79619523Y-103131904D01*
X79619523Y-102893809D01*
X79571904Y-102798571D01*
X79524285Y-102750952D01*
X79429047Y-102703333D01*
X79238571Y-102703333D01*
X79143333Y-102750952D01*
X79095714Y-102798571D01*
X79048095Y-102893809D01*
X97790000Y-102870000D02*
X99060000Y-101600000D01*
X99060000Y-104140000D02*
X97790000Y-102870000D01*
X97790000Y-105410000D02*
X99060000Y-104140000D01*
X99060000Y-106680000D02*
X97790000Y-105410000D01*
X97790000Y-107950000D02*
X99060000Y-106680000D01*
X99000000Y-109280000D02*
X97790000Y-107950000D01*
X97790000Y-110490000D02*
X99000000Y-109280000D01*
X99060000Y-111760000D02*
X97790000Y-110490000D01*
X97790000Y-113030000D02*
X99060000Y-111760000D01*
X99060000Y-114300000D02*
X97790000Y-113030000D01*
X97790000Y-115570000D02*
X99060000Y-114300000D01*
X99060000Y-115570000D02*
X97790000Y-115570000D01*
X97790000Y-115570000D02*
X99060000Y-115570000D01*
X99060000Y-116840000D02*
X97790000Y-115570000D01*
X97790000Y-118110000D02*
X99060000Y-116840000D01*
X99060000Y-119380000D02*
X97790000Y-118110000D01*
X97790000Y-120650000D02*
X99060000Y-119380000D01*
X99170000Y-121860000D02*
X97790000Y-120650000D01*
X97790000Y-123190000D02*
X99170000Y-121860000D01*
X99060000Y-124460000D02*
X97790000Y-123190000D01*
X97790000Y-125730000D02*
X99060000Y-124460000D01*
X99060000Y-127000000D02*
X97790000Y-125730000D01*
X97790000Y-128270000D02*
X99060000Y-127000000D01*
X99060000Y-129540000D02*
X97790000Y-128270000D01*
X97790000Y-130810000D02*
X99060000Y-129540000D01*
X99060000Y-132080000D02*
X97790000Y-130810000D01*
X97790000Y-133350000D02*
X99060000Y-132080000D01*
X99060000Y-134620000D02*
X97790000Y-133350000D01*
X97790000Y-135890000D02*
X99060000Y-134620000D01*
X99060000Y-135890000D02*
X97790000Y-135890000D01*
X97790000Y-135890000D02*
X99060000Y-135890000D01*
X99060000Y-137160000D02*
X97790000Y-135890000D01*
X97520000Y-138490000D02*
X99060000Y-137160000D01*
X99060000Y-139700000D02*
X97520000Y-138490000D01*
X97790000Y-140970000D02*
X99060000Y-139700000D01*
X99060000Y-142240000D02*
X97790000Y-140970000D01*
X97790000Y-143510000D02*
X99060000Y-142240000D01*
X99060000Y-144780000D02*
X97790000Y-143510000D01*
X95250000Y-143510000D02*
X93980000Y-144780000D01*
X93980000Y-142240000D02*
X95250000Y-143510000D01*
X95250000Y-140970000D02*
X93980000Y-142240000D01*
X93980000Y-139700000D02*
X95250000Y-140970000D01*
X95520000Y-138490000D02*
X93980000Y-139700000D01*
X93980000Y-137160000D02*
X95520000Y-138490000D01*
X95250000Y-135890000D02*
X93980000Y-137160000D01*
X93980000Y-134620000D02*
X95250000Y-135890000D01*
X95250000Y-133350000D02*
X93980000Y-134620000D01*
X93980000Y-132080000D02*
X95250000Y-133350000D01*
X95250000Y-130810000D02*
X93980000Y-132080000D01*
X93870000Y-129600000D02*
X95250000Y-130810000D01*
X95250000Y-128270000D02*
X93870000Y-129600000D01*
X93980000Y-127000000D02*
X95250000Y-128270000D01*
X95250000Y-125730000D02*
X93980000Y-127000000D01*
X93980000Y-124460000D02*
X95250000Y-125730000D01*
X95250000Y-123190000D02*
X93980000Y-124460000D01*
X93870000Y-121860000D02*
X95250000Y-123190000D01*
X95250000Y-120650000D02*
X93870000Y-121860000D01*
X93980000Y-119380000D02*
X95250000Y-120650000D01*
X95250000Y-118110000D02*
X93980000Y-119380000D01*
X93980000Y-116840000D02*
X95250000Y-118110000D01*
X95250000Y-115570000D02*
X93980000Y-116840000D01*
X93980000Y-114300000D02*
X95250000Y-115570000D01*
X95250000Y-113030000D02*
X93980000Y-114300000D01*
X93980000Y-111760000D02*
X95250000Y-113030000D01*
X95250000Y-110490000D02*
X93980000Y-111760000D01*
X93980000Y-109220000D02*
X95250000Y-110490000D01*
X95250000Y-107950000D02*
X93980000Y-109220000D01*
X93980000Y-106680000D02*
X95250000Y-107950000D01*
X95250000Y-105410000D02*
X93980000Y-106680000D01*
X93980000Y-104140000D02*
X95250000Y-105410000D01*
X95250000Y-102870000D02*
X93980000Y-104140000D01*
X93980000Y-101600000D02*
X95250000Y-102870000D01*
X82153809Y-143438571D02*
X82487142Y-143438571D01*
X82630000Y-143962380D02*
X82153809Y-143962380D01*
X82153809Y-142962380D01*
X82630000Y-142962380D01*
X83010952Y-143914761D02*
X83153809Y-143962380D01*
X83391904Y-143962380D01*
X83487142Y-143914761D01*
X83534761Y-143867142D01*
X83582380Y-143771904D01*
X83582380Y-143676666D01*
X83534761Y-143581428D01*
X83487142Y-143533809D01*
X83391904Y-143486190D01*
X83201428Y-143438571D01*
X83106190Y-143390952D01*
X83058571Y-143343333D01*
X83010952Y-143248095D01*
X83010952Y-143152857D01*
X83058571Y-143057619D01*
X83106190Y-143010000D01*
X83201428Y-142962380D01*
X83439523Y-142962380D01*
X83582380Y-143010000D01*
X84010952Y-143962380D02*
X84010952Y-142962380D01*
X84391904Y-142962380D01*
X84487142Y-143010000D01*
X84534761Y-143057619D01*
X84582380Y-143152857D01*
X84582380Y-143295714D01*
X84534761Y-143390952D01*
X84487142Y-143438571D01*
X84391904Y-143486190D01*
X84010952Y-143486190D01*
X85153809Y-143390952D02*
X85058571Y-143343333D01*
X85010952Y-143295714D01*
X84963333Y-143200476D01*
X84963333Y-143152857D01*
X85010952Y-143057619D01*
X85058571Y-143010000D01*
X85153809Y-142962380D01*
X85344285Y-142962380D01*
X85439523Y-143010000D01*
X85487142Y-143057619D01*
X85534761Y-143152857D01*
X85534761Y-143200476D01*
X85487142Y-143295714D01*
X85439523Y-143343333D01*
X85344285Y-143390952D01*
X85153809Y-143390952D01*
X85058571Y-143438571D01*
X85010952Y-143486190D01*
X84963333Y-143581428D01*
X84963333Y-143771904D01*
X85010952Y-143867142D01*
X85058571Y-143914761D01*
X85153809Y-143962380D01*
X85344285Y-143962380D01*
X85439523Y-143914761D01*
X85487142Y-143867142D01*
X85534761Y-143771904D01*
X85534761Y-143581428D01*
X85487142Y-143486190D01*
X85439523Y-143438571D01*
X85344285Y-143390952D01*
X85915714Y-143057619D02*
X85963333Y-143010000D01*
X86058571Y-142962380D01*
X86296666Y-142962380D01*
X86391904Y-143010000D01*
X86439523Y-143057619D01*
X86487142Y-143152857D01*
X86487142Y-143248095D01*
X86439523Y-143390952D01*
X85868095Y-143962380D01*
X86487142Y-143962380D01*
X87344285Y-142962380D02*
X87153809Y-142962380D01*
X87058571Y-143010000D01*
X87010952Y-143057619D01*
X86915714Y-143200476D01*
X86868095Y-143390952D01*
X86868095Y-143771904D01*
X86915714Y-143867142D01*
X86963333Y-143914761D01*
X87058571Y-143962380D01*
X87249047Y-143962380D01*
X87344285Y-143914761D01*
X87391904Y-143867142D01*
X87439523Y-143771904D01*
X87439523Y-143533809D01*
X87391904Y-143438571D01*
X87344285Y-143390952D01*
X87249047Y-143343333D01*
X87058571Y-143343333D01*
X86963333Y-143390952D01*
X86915714Y-143438571D01*
X86868095Y-143533809D01*
X88296666Y-142962380D02*
X88106190Y-142962380D01*
X88010952Y-143010000D01*
X87963333Y-143057619D01*
X87868095Y-143200476D01*
X87820476Y-143390952D01*
X87820476Y-143771904D01*
X87868095Y-143867142D01*
X87915714Y-143914761D01*
X88010952Y-143962380D01*
X88201428Y-143962380D01*
X88296666Y-143914761D01*
X88344285Y-143867142D01*
X88391904Y-143771904D01*
X88391904Y-143533809D01*
X88344285Y-143438571D01*
X88296666Y-143390952D01*
X88201428Y-143343333D01*
X88010952Y-143343333D01*
X87915714Y-143390952D01*
X87868095Y-143438571D01*
X87820476Y-143533809D01*
X89868095Y-144343333D02*
X89820476Y-144295714D01*
X89725238Y-144152857D01*
X89677619Y-144057619D01*
X89630000Y-143914761D01*
X89582380Y-143676666D01*
X89582380Y-143486190D01*
X89630000Y-143248095D01*
X89677619Y-143105238D01*
X89725238Y-143010000D01*
X89820476Y-142867142D01*
X89868095Y-142819523D01*
X90153809Y-142962380D02*
X90772857Y-142962380D01*
X90439523Y-143343333D01*
X90582380Y-143343333D01*
X90677619Y-143390952D01*
X90725238Y-143438571D01*
X90772857Y-143533809D01*
X90772857Y-143771904D01*
X90725238Y-143867142D01*
X90677619Y-143914761D01*
X90582380Y-143962380D01*
X90296666Y-143962380D01*
X90201428Y-143914761D01*
X90153809Y-143867142D01*
X91106190Y-143295714D02*
X91344285Y-143962380D01*
X91582380Y-143295714D01*
X91868095Y-142962380D02*
X92487142Y-142962380D01*
X92153809Y-143343333D01*
X92296666Y-143343333D01*
X92391904Y-143390952D01*
X92439523Y-143438571D01*
X92487142Y-143533809D01*
X92487142Y-143771904D01*
X92439523Y-143867142D01*
X92391904Y-143914761D01*
X92296666Y-143962380D01*
X92010952Y-143962380D01*
X91915714Y-143914761D01*
X91868095Y-143867142D01*
X92820476Y-144343333D02*
X92868095Y-144295714D01*
X92963333Y-144152857D01*
X93010952Y-144057619D01*
X93058571Y-143914761D01*
X93106190Y-143676666D01*
X93106190Y-143486190D01*
X93058571Y-143248095D01*
X93010952Y-143105238D01*
X92963333Y-143010000D01*
X92868095Y-142867142D01*
X92820476Y-142819523D01*
X99830476Y-143676666D02*
X100306666Y-143676666D01*
X99735238Y-143962380D02*
X100068571Y-142962380D01*
X100401904Y-143962380D01*
X100878095Y-143962380D02*
X100782857Y-143914761D01*
X100735238Y-143819523D01*
X100735238Y-142962380D01*
X101687619Y-143962380D02*
X101687619Y-143438571D01*
X101640000Y-143343333D01*
X101544761Y-143295714D01*
X101354285Y-143295714D01*
X101259047Y-143343333D01*
X101687619Y-143914761D02*
X101592380Y-143962380D01*
X101354285Y-143962380D01*
X101259047Y-143914761D01*
X101211428Y-143819523D01*
X101211428Y-143724285D01*
X101259047Y-143629047D01*
X101354285Y-143581428D01*
X101592380Y-143581428D01*
X101687619Y-143533809D01*
X102163809Y-143962380D02*
X102163809Y-143295714D01*
X102163809Y-143486190D02*
X102211428Y-143390952D01*
X102259047Y-143343333D01*
X102354285Y-143295714D01*
X102449523Y-143295714D01*
X102782857Y-143962380D02*
X102782857Y-143295714D01*
X102782857Y-143390952D02*
X102830476Y-143343333D01*
X102925714Y-143295714D01*
X103068571Y-143295714D01*
X103163809Y-143343333D01*
X103211428Y-143438571D01*
X103211428Y-143962380D01*
X103211428Y-143438571D02*
X103259047Y-143343333D01*
X103354285Y-143295714D01*
X103497142Y-143295714D01*
X103592380Y-143343333D01*
X103640000Y-143438571D01*
X103640000Y-143962380D01*
X105163809Y-144343333D02*
X105116190Y-144295714D01*
X105020952Y-144152857D01*
X104973333Y-144057619D01*
X104925714Y-143914761D01*
X104878095Y-143676666D01*
X104878095Y-143486190D01*
X104925714Y-143248095D01*
X104973333Y-143105238D01*
X105020952Y-143010000D01*
X105116190Y-142867142D01*
X105163809Y-142819523D01*
X106068571Y-143962380D02*
X105497142Y-143962380D01*
X105782857Y-143962380D02*
X105782857Y-142962380D01*
X105687619Y-143105238D01*
X105592380Y-143200476D01*
X105497142Y-143248095D01*
X106449523Y-143057619D02*
X106497142Y-143010000D01*
X106592380Y-142962380D01*
X106830476Y-142962380D01*
X106925714Y-143010000D01*
X106973333Y-143057619D01*
X107020952Y-143152857D01*
X107020952Y-143248095D01*
X106973333Y-143390952D01*
X106401904Y-143962380D01*
X107020952Y-143962380D01*
X107354285Y-143295714D02*
X107592380Y-143962380D01*
X107830476Y-143295714D01*
X108116190Y-144343333D02*
X108163809Y-144295714D01*
X108259047Y-144152857D01*
X108306666Y-144057619D01*
X108354285Y-143914761D01*
X108401904Y-143676666D01*
X108401904Y-143486190D01*
X108354285Y-143248095D01*
X108306666Y-143105238D01*
X108259047Y-143010000D01*
X108163809Y-142867142D01*
X108116190Y-142819523D01*
X107450000Y-103878095D02*
X107402380Y-103973333D01*
X107402380Y-104116190D01*
X107450000Y-104259047D01*
X107545238Y-104354285D01*
X107640476Y-104401904D01*
X107830952Y-104449523D01*
X107973809Y-104449523D01*
X108164285Y-104401904D01*
X108259523Y-104354285D01*
X108354761Y-104259047D01*
X108402380Y-104116190D01*
X108402380Y-104020952D01*
X108354761Y-103878095D01*
X108307142Y-103830476D01*
X107973809Y-103830476D01*
X107973809Y-104020952D01*
X105338571Y-104687619D02*
X105386190Y-104544761D01*
X105433809Y-104497142D01*
X105529047Y-104449523D01*
X105671904Y-104449523D01*
X105767142Y-104497142D01*
X105814761Y-104544761D01*
X105862380Y-104640000D01*
X105862380Y-105020952D01*
X104862380Y-105020952D01*
X104862380Y-104687619D01*
X104910000Y-104592380D01*
X104957619Y-104544761D01*
X105052857Y-104497142D01*
X105148095Y-104497142D01*
X105243333Y-104544761D01*
X105290952Y-104592380D01*
X105338571Y-104687619D01*
X105338571Y-105020952D01*
X105481428Y-104020952D02*
X105481428Y-103259047D01*
X103322380Y-104449523D02*
X102846190Y-104782857D01*
X103322380Y-105020952D02*
X102322380Y-105020952D01*
X102322380Y-104640000D01*
X102370000Y-104544761D01*
X102417619Y-104497142D01*
X102512857Y-104449523D01*
X102655714Y-104449523D01*
X102750952Y-104497142D01*
X102798571Y-104544761D01*
X102846190Y-104640000D01*
X102846190Y-105020952D01*
X102941428Y-104020952D02*
X102941428Y-103259047D01*
X103322380Y-103640000D02*
X102560476Y-103640000D01*
X100306190Y-104140000D02*
X100782380Y-104140000D01*
X99782380Y-104473333D02*
X100306190Y-104140000D01*
X99782380Y-103806666D01*
X80589523Y-129325714D02*
X80589523Y-130135238D01*
X80541904Y-130230476D01*
X80494285Y-130278095D01*
X80399047Y-130325714D01*
X80256190Y-130325714D01*
X80160952Y-130278095D01*
X80589523Y-129944761D02*
X80494285Y-129992380D01*
X80303809Y-129992380D01*
X80208571Y-129944761D01*
X80160952Y-129897142D01*
X80113333Y-129801904D01*
X80113333Y-129516190D01*
X80160952Y-129420952D01*
X80208571Y-129373333D01*
X80303809Y-129325714D01*
X80494285Y-129325714D01*
X80589523Y-129373333D01*
X81065714Y-129325714D02*
X81065714Y-129992380D01*
X81065714Y-129420952D02*
X81113333Y-129373333D01*
X81208571Y-129325714D01*
X81351428Y-129325714D01*
X81446666Y-129373333D01*
X81494285Y-129468571D01*
X81494285Y-129992380D01*
X82399047Y-129992380D02*
X82399047Y-128992380D01*
X82399047Y-129944761D02*
X82303809Y-129992380D01*
X82113333Y-129992380D01*
X82018095Y-129944761D01*
X81970476Y-129897142D01*
X81922857Y-129801904D01*
X81922857Y-129516190D01*
X81970476Y-129420952D01*
X82018095Y-129373333D01*
X82113333Y-129325714D01*
X82303809Y-129325714D01*
X82399047Y-129373333D01*
X50879523Y-132802380D02*
X51498571Y-132802380D01*
X51165238Y-133183333D01*
X51308095Y-133183333D01*
X51403333Y-133230952D01*
X51450952Y-133278571D01*
X51498571Y-133373809D01*
X51498571Y-133611904D01*
X51450952Y-133707142D01*
X51403333Y-133754761D01*
X51308095Y-133802380D01*
X51022380Y-133802380D01*
X50927142Y-133754761D01*
X50879523Y-133707142D01*
X51831904Y-133135714D02*
X52070000Y-133802380D01*
X52308095Y-133135714D01*
X52593809Y-132802380D02*
X53212857Y-132802380D01*
X52879523Y-133183333D01*
X53022380Y-133183333D01*
X53117619Y-133230952D01*
X53165238Y-133278571D01*
X53212857Y-133373809D01*
X53212857Y-133611904D01*
X53165238Y-133707142D01*
X53117619Y-133754761D01*
X53022380Y-133802380D01*
X52736666Y-133802380D01*
X52641428Y-133754761D01*
X52593809Y-133707142D01*
D11*
X109420000Y-117440000D02*
X106480000Y-117440000D01*
X109420000Y-117680000D02*
X106480000Y-117680000D01*
X109420000Y-117560000D02*
X106480000Y-117560000D01*
X107950000Y-123320000D02*
X107950000Y-122100000D01*
X107950000Y-115440000D02*
X107950000Y-116660000D01*
X109420000Y-122100000D02*
X109420000Y-116660000D01*
X106480000Y-122100000D02*
X109420000Y-122100000D01*
X106480000Y-116660000D02*
X106480000Y-122100000D01*
X109420000Y-116660000D02*
X106480000Y-116660000D01*
X110770000Y-116060000D02*
X110770000Y-116460000D01*
X111410000Y-116060000D02*
X110770000Y-116060000D01*
X114629000Y-127465000D02*
X114501000Y-127336000D01*
X116845000Y-129680000D02*
X116751000Y-129586000D01*
X114389000Y-127635000D02*
X114296000Y-127541000D01*
X116639000Y-129885000D02*
X116511000Y-129756000D01*
X114629000Y-123965000D02*
X114501000Y-123836000D01*
X116845000Y-126180000D02*
X116751000Y-126086000D01*
X114389000Y-124135000D02*
X114296000Y-124041000D01*
X116639000Y-126385000D02*
X116511000Y-126256000D01*
X114629000Y-120465000D02*
X114501000Y-120336000D01*
X116845000Y-122680000D02*
X116751000Y-122586000D01*
X114389000Y-120635000D02*
X114296000Y-120541000D01*
X116639000Y-122885000D02*
X116511000Y-122756000D01*
X118730000Y-130420000D02*
X111010000Y-130420000D01*
X118730000Y-116300000D02*
X111010000Y-116300000D01*
X111010000Y-116300000D02*
X111010000Y-130420000D01*
X118730000Y-116300000D02*
X118730000Y-130420000D01*
X112570000Y-116300000D02*
X112570000Y-130420000D01*
X111470000Y-116300000D02*
X111470000Y-130420000D01*
X117250000Y-128610000D02*
G75*
G03X117250000Y-128610000I-1680000J0D01*
G01*
X117250000Y-125110000D02*
G75*
G03X117250000Y-125110000I-1680000J0D01*
G01*
X117250000Y-121610000D02*
G75*
G03X117250000Y-121610000I-1680000J0D01*
G01*
X113889901Y-118138674D02*
G75*
G02X114130000Y-117244000I1680099J28674D01*
G01*
X114680106Y-116684642D02*
G75*
G02X116436000Y-116670000I889894J-1425358D01*
G01*
X116995358Y-117220106D02*
G75*
G02X117010000Y-118976000I-1425358J-889894D01*
G01*
X116460193Y-119535505D02*
G75*
G02X114679000Y-119535000I-890193J1425505D01*
G01*
X114145279Y-119000264D02*
G75*
G02X113890000Y-118110000I1424721J890264D01*
G01*
X88900000Y-128040000D02*
X88900000Y-128810000D01*
X88900000Y-136120000D02*
X88900000Y-135350000D01*
X87530000Y-128810000D02*
X87530000Y-135350000D01*
X90270000Y-128810000D02*
X87530000Y-128810000D01*
X90270000Y-135350000D02*
X90270000Y-128810000D01*
X87530000Y-135350000D02*
X90270000Y-135350000D01*
X107950000Y-136120000D02*
X107950000Y-135350000D01*
X107950000Y-128040000D02*
X107950000Y-128810000D01*
X109320000Y-135350000D02*
X109320000Y-128810000D01*
X106580000Y-135350000D02*
X109320000Y-135350000D01*
X106580000Y-128810000D02*
X106580000Y-135350000D01*
X109320000Y-128810000D02*
X106580000Y-128810000D01*
X93870000Y-120710000D02*
X95520000Y-120710000D01*
X93870000Y-112970000D02*
X93870000Y-120710000D01*
X99170000Y-112970000D02*
X93870000Y-112970000D01*
X99170000Y-120710000D02*
X99170000Y-112970000D01*
X97520000Y-120710000D02*
X99170000Y-120710000D01*
X95520000Y-120710000D02*
G75*
G02X97520000Y-120710000I1000000J0D01*
G01*
X93870000Y-138490000D02*
X95520000Y-138490000D01*
X93870000Y-130750000D02*
X93870000Y-138490000D01*
X99170000Y-130750000D02*
X93870000Y-130750000D01*
X99170000Y-138490000D02*
X99170000Y-130750000D01*
X97520000Y-138490000D02*
X99170000Y-138490000D01*
X95520000Y-138490000D02*
G75*
G02X97520000Y-138490000I1000000J0D01*
G01*
X78200000Y-106570000D02*
G75*
G02X80330000Y-108700000I0J-2130000D01*
G01*
X54470000Y-108700000D02*
G75*
G02X56600000Y-106570000I2130000J0D01*
G01*
X57010000Y-134130000D02*
X57010000Y-141030000D01*
X54470000Y-134130000D02*
X57010000Y-134130000D01*
D10*
G36*
X53430000Y-114275000D02*
G01*
X53430000Y-115545000D01*
X54065000Y-114910000D01*
X53430000Y-114275000D01*
G37*
X53430000Y-114275000D02*
X53430000Y-115545000D01*
X54065000Y-114910000D01*
X53430000Y-114275000D01*
D11*
X78210000Y-106570000D02*
X56600000Y-106570000D01*
X80330000Y-141030000D02*
X80330000Y-108700000D01*
X54470000Y-134130000D02*
X54470000Y-108700000D01*
X57010000Y-141030000D02*
X80330000Y-141030000D01*
X99170000Y-121860000D02*
X97520000Y-121860000D01*
X99170000Y-129600000D02*
X99170000Y-121860000D01*
X93870000Y-129600000D02*
X99170000Y-129600000D01*
X93870000Y-121860000D02*
X93870000Y-129600000D01*
X95520000Y-121860000D02*
X93870000Y-121860000D01*
X97520000Y-121860000D02*
G75*
G02X95520000Y-121860000I-1000000J0D01*
G01*
X88900000Y-115340000D02*
X88900000Y-116110000D01*
X88900000Y-123420000D02*
X88900000Y-122650000D01*
X87530000Y-116110000D02*
X87530000Y-122650000D01*
X90270000Y-116110000D02*
X87530000Y-116110000D01*
X90270000Y-122650000D02*
X90270000Y-116110000D01*
X87530000Y-122650000D02*
X90270000Y-122650000D01*
X85090000Y-136120000D02*
X85090000Y-135350000D01*
X85090000Y-128040000D02*
X85090000Y-128810000D01*
X86460000Y-135350000D02*
X86460000Y-128810000D01*
X83720000Y-135350000D02*
X86460000Y-135350000D01*
X83720000Y-128810000D02*
X83720000Y-135350000D01*
X86460000Y-128810000D02*
X83720000Y-128810000D01*
X104140000Y-115340000D02*
X104140000Y-116110000D01*
X104140000Y-123420000D02*
X104140000Y-122650000D01*
X102770000Y-116110000D02*
X102770000Y-122650000D01*
X105510000Y-116110000D02*
X102770000Y-116110000D01*
X105510000Y-122650000D02*
X105510000Y-116110000D01*
X102770000Y-122650000D02*
X105510000Y-122650000D01*
X104140000Y-128040000D02*
X104140000Y-128810000D01*
X104140000Y-136120000D02*
X104140000Y-135350000D01*
X102770000Y-128810000D02*
X102770000Y-135350000D01*
X105510000Y-128810000D02*
X102770000Y-128810000D01*
X105510000Y-135350000D02*
X105510000Y-128810000D01*
X102770000Y-135350000D02*
X105510000Y-135350000D01*
X99000000Y-109280000D02*
X99000000Y-107950000D01*
X100330000Y-109280000D02*
X99000000Y-109280000D01*
X101600000Y-109280000D02*
X101600000Y-106620000D01*
X101600000Y-106620000D02*
X109280000Y-106620000D01*
X101600000Y-109280000D02*
X109280000Y-109280000D01*
X109280000Y-109280000D02*
X109280000Y-106620000D01*
D10*
X110872380Y-120118095D02*
X109872380Y-120118095D01*
X109872380Y-119880000D01*
X109920000Y-119737142D01*
X110015238Y-119641904D01*
X110110476Y-119594285D01*
X110300952Y-119546666D01*
X110443809Y-119546666D01*
X110634285Y-119594285D01*
X110729523Y-119641904D01*
X110824761Y-119737142D01*
X110872380Y-119880000D01*
X110872380Y-120118095D01*
X110872380Y-118594285D02*
X110872380Y-119165714D01*
X110872380Y-118880000D02*
X109872380Y-118880000D01*
X110015238Y-118975238D01*
X110110476Y-119070476D01*
X110158095Y-119165714D01*
X110302380Y-114561904D02*
X109302380Y-114561904D01*
X110302380Y-113990476D02*
X109730952Y-114419047D01*
X109302380Y-113990476D02*
X109873809Y-114561904D01*
X119182380Y-123693333D02*
X119896666Y-123693333D01*
X120039523Y-123740952D01*
X120134761Y-123836190D01*
X120182380Y-123979047D01*
X120182380Y-124074285D01*
X119277619Y-123264761D02*
X119230000Y-123217142D01*
X119182380Y-123121904D01*
X119182380Y-122883809D01*
X119230000Y-122788571D01*
X119277619Y-122740952D01*
X119372857Y-122693333D01*
X119468095Y-122693333D01*
X119610952Y-122740952D01*
X120182380Y-123312380D01*
X120182380Y-122693333D01*
X86982380Y-132246666D02*
X86506190Y-132580000D01*
X86982380Y-132818095D02*
X85982380Y-132818095D01*
X85982380Y-132437142D01*
X86030000Y-132341904D01*
X86077619Y-132294285D01*
X86172857Y-132246666D01*
X86315714Y-132246666D01*
X86410952Y-132294285D01*
X86458571Y-132341904D01*
X86506190Y-132437142D01*
X86506190Y-132818095D01*
X86982380Y-131294285D02*
X86982380Y-131865714D01*
X86982380Y-131580000D02*
X85982380Y-131580000D01*
X86125238Y-131675238D01*
X86220476Y-131770476D01*
X86268095Y-131865714D01*
X88447619Y-133318095D02*
X88400000Y-133270476D01*
X88352380Y-133175238D01*
X88352380Y-132937142D01*
X88400000Y-132841904D01*
X88447619Y-132794285D01*
X88542857Y-132746666D01*
X88638095Y-132746666D01*
X88780952Y-132794285D01*
X89352380Y-133365714D01*
X89352380Y-132746666D01*
X88447619Y-132365714D02*
X88400000Y-132318095D01*
X88352380Y-132222857D01*
X88352380Y-131984761D01*
X88400000Y-131889523D01*
X88447619Y-131841904D01*
X88542857Y-131794285D01*
X88638095Y-131794285D01*
X88780952Y-131841904D01*
X89352380Y-132413333D01*
X89352380Y-131794285D01*
X88352380Y-131175238D02*
X88352380Y-131080000D01*
X88400000Y-130984761D01*
X88447619Y-130937142D01*
X88542857Y-130889523D01*
X88733333Y-130841904D01*
X88971428Y-130841904D01*
X89161904Y-130889523D01*
X89257142Y-130937142D01*
X89304761Y-130984761D01*
X89352380Y-131080000D01*
X89352380Y-131175238D01*
X89304761Y-131270476D01*
X89257142Y-131318095D01*
X89161904Y-131365714D01*
X88971428Y-131413333D01*
X88733333Y-131413333D01*
X88542857Y-131365714D01*
X88447619Y-131318095D01*
X88400000Y-131270476D01*
X88352380Y-131175238D01*
X110772380Y-132246666D02*
X110296190Y-132580000D01*
X110772380Y-132818095D02*
X109772380Y-132818095D01*
X109772380Y-132437142D01*
X109820000Y-132341904D01*
X109867619Y-132294285D01*
X109962857Y-132246666D01*
X110105714Y-132246666D01*
X110200952Y-132294285D01*
X110248571Y-132341904D01*
X110296190Y-132437142D01*
X110296190Y-132818095D01*
X109772380Y-131913333D02*
X109772380Y-131294285D01*
X110153333Y-131627619D01*
X110153333Y-131484761D01*
X110200952Y-131389523D01*
X110248571Y-131341904D01*
X110343809Y-131294285D01*
X110581904Y-131294285D01*
X110677142Y-131341904D01*
X110724761Y-131389523D01*
X110772380Y-131484761D01*
X110772380Y-131770476D01*
X110724761Y-131865714D01*
X110677142Y-131913333D01*
X108402380Y-132199047D02*
X108402380Y-132770476D01*
X108402380Y-132484761D02*
X107402380Y-132484761D01*
X107545238Y-132580000D01*
X107640476Y-132675238D01*
X107688095Y-132770476D01*
X108402380Y-131770476D02*
X107402380Y-131770476D01*
X108021428Y-131675238D02*
X108402380Y-131389523D01*
X107735714Y-131389523D02*
X108116666Y-131770476D01*
X90678095Y-120102380D02*
X90678095Y-120911904D01*
X90725714Y-121007142D01*
X90773333Y-121054761D01*
X90868571Y-121102380D01*
X91059047Y-121102380D01*
X91154285Y-121054761D01*
X91201904Y-121007142D01*
X91249523Y-120911904D01*
X91249523Y-120102380D01*
X92154285Y-120435714D02*
X92154285Y-121102380D01*
X91916190Y-120054761D02*
X91678095Y-120769047D01*
X92297142Y-120769047D01*
X95758095Y-138942380D02*
X95758095Y-139751904D01*
X95805714Y-139847142D01*
X95853333Y-139894761D01*
X95948571Y-139942380D01*
X96139047Y-139942380D01*
X96234285Y-139894761D01*
X96281904Y-139847142D01*
X96329523Y-139751904D01*
X96329523Y-138942380D01*
X96710476Y-138942380D02*
X97329523Y-138942380D01*
X96996190Y-139323333D01*
X97139047Y-139323333D01*
X97234285Y-139370952D01*
X97281904Y-139418571D01*
X97329523Y-139513809D01*
X97329523Y-139751904D01*
X97281904Y-139847142D01*
X97234285Y-139894761D01*
X97139047Y-139942380D01*
X96853333Y-139942380D01*
X96758095Y-139894761D01*
X96710476Y-139847142D01*
X77208095Y-141362380D02*
X77208095Y-142171904D01*
X77255714Y-142267142D01*
X77303333Y-142314761D01*
X77398571Y-142362380D01*
X77589047Y-142362380D01*
X77684285Y-142314761D01*
X77731904Y-142267142D01*
X77779523Y-142171904D01*
X77779523Y-141362380D01*
X78208095Y-141457619D02*
X78255714Y-141410000D01*
X78350952Y-141362380D01*
X78589047Y-141362380D01*
X78684285Y-141410000D01*
X78731904Y-141457619D01*
X78779523Y-141552857D01*
X78779523Y-141648095D01*
X78731904Y-141790952D01*
X78160476Y-142362380D01*
X78779523Y-142362380D01*
X90043095Y-129627380D02*
X90043095Y-130436904D01*
X90090714Y-130532142D01*
X90138333Y-130579761D01*
X90233571Y-130627380D01*
X90424047Y-130627380D01*
X90519285Y-130579761D01*
X90566904Y-130532142D01*
X90614523Y-130436904D01*
X90614523Y-129627380D01*
X91614523Y-130627380D02*
X91043095Y-130627380D01*
X91328809Y-130627380D02*
X91328809Y-129627380D01*
X91233571Y-129770238D01*
X91138333Y-129865476D01*
X91043095Y-129913095D01*
X86982380Y-119546666D02*
X86506190Y-119880000D01*
X86982380Y-120118095D02*
X85982380Y-120118095D01*
X85982380Y-119737142D01*
X86030000Y-119641904D01*
X86077619Y-119594285D01*
X86172857Y-119546666D01*
X86315714Y-119546666D01*
X86410952Y-119594285D01*
X86458571Y-119641904D01*
X86506190Y-119737142D01*
X86506190Y-120118095D01*
X86982380Y-119070476D02*
X86982380Y-118880000D01*
X86934761Y-118784761D01*
X86887142Y-118737142D01*
X86744285Y-118641904D01*
X86553809Y-118594285D01*
X86172857Y-118594285D01*
X86077619Y-118641904D01*
X86030000Y-118689523D01*
X85982380Y-118784761D01*
X85982380Y-118975238D01*
X86030000Y-119070476D01*
X86077619Y-119118095D01*
X86172857Y-119165714D01*
X86410952Y-119165714D01*
X86506190Y-119118095D01*
X86553809Y-119070476D01*
X86601428Y-118975238D01*
X86601428Y-118784761D01*
X86553809Y-118689523D01*
X86506190Y-118641904D01*
X86410952Y-118594285D01*
X88352380Y-120665714D02*
X88352380Y-120046666D01*
X88733333Y-120380000D01*
X88733333Y-120237142D01*
X88780952Y-120141904D01*
X88828571Y-120094285D01*
X88923809Y-120046666D01*
X89161904Y-120046666D01*
X89257142Y-120094285D01*
X89304761Y-120141904D01*
X89352380Y-120237142D01*
X89352380Y-120522857D01*
X89304761Y-120618095D01*
X89257142Y-120665714D01*
X88352380Y-119713333D02*
X88352380Y-119094285D01*
X88733333Y-119427619D01*
X88733333Y-119284761D01*
X88780952Y-119189523D01*
X88828571Y-119141904D01*
X88923809Y-119094285D01*
X89161904Y-119094285D01*
X89257142Y-119141904D01*
X89304761Y-119189523D01*
X89352380Y-119284761D01*
X89352380Y-119570476D01*
X89304761Y-119665714D01*
X89257142Y-119713333D01*
X88352380Y-118475238D02*
X88352380Y-118380000D01*
X88400000Y-118284761D01*
X88447619Y-118237142D01*
X88542857Y-118189523D01*
X88733333Y-118141904D01*
X88971428Y-118141904D01*
X89161904Y-118189523D01*
X89257142Y-118237142D01*
X89304761Y-118284761D01*
X89352380Y-118380000D01*
X89352380Y-118475238D01*
X89304761Y-118570476D01*
X89257142Y-118618095D01*
X89161904Y-118665714D01*
X88971428Y-118713333D01*
X88733333Y-118713333D01*
X88542857Y-118665714D01*
X88447619Y-118618095D01*
X88400000Y-118570476D01*
X88352380Y-118475238D01*
X87912380Y-132246666D02*
X87436190Y-132580000D01*
X87912380Y-132818095D02*
X86912380Y-132818095D01*
X86912380Y-132437142D01*
X86960000Y-132341904D01*
X87007619Y-132294285D01*
X87102857Y-132246666D01*
X87245714Y-132246666D01*
X87340952Y-132294285D01*
X87388571Y-132341904D01*
X87436190Y-132437142D01*
X87436190Y-132818095D01*
X87340952Y-131675238D02*
X87293333Y-131770476D01*
X87245714Y-131818095D01*
X87150476Y-131865714D01*
X87102857Y-131865714D01*
X87007619Y-131818095D01*
X86960000Y-131770476D01*
X86912380Y-131675238D01*
X86912380Y-131484761D01*
X86960000Y-131389523D01*
X87007619Y-131341904D01*
X87102857Y-131294285D01*
X87150476Y-131294285D01*
X87245714Y-131341904D01*
X87293333Y-131389523D01*
X87340952Y-131484761D01*
X87340952Y-131675238D01*
X87388571Y-131770476D01*
X87436190Y-131818095D01*
X87531428Y-131865714D01*
X87721904Y-131865714D01*
X87817142Y-131818095D01*
X87864761Y-131770476D01*
X87912380Y-131675238D01*
X87912380Y-131484761D01*
X87864761Y-131389523D01*
X87817142Y-131341904D01*
X87721904Y-131294285D01*
X87531428Y-131294285D01*
X87436190Y-131341904D01*
X87388571Y-131389523D01*
X87340952Y-131484761D01*
X84542380Y-133365714D02*
X84542380Y-132746666D01*
X84923333Y-133080000D01*
X84923333Y-132937142D01*
X84970952Y-132841904D01*
X85018571Y-132794285D01*
X85113809Y-132746666D01*
X85351904Y-132746666D01*
X85447142Y-132794285D01*
X85494761Y-132841904D01*
X85542380Y-132937142D01*
X85542380Y-133222857D01*
X85494761Y-133318095D01*
X85447142Y-133365714D01*
X84542380Y-132413333D02*
X84542380Y-131794285D01*
X84923333Y-132127619D01*
X84923333Y-131984761D01*
X84970952Y-131889523D01*
X85018571Y-131841904D01*
X85113809Y-131794285D01*
X85351904Y-131794285D01*
X85447142Y-131841904D01*
X85494761Y-131889523D01*
X85542380Y-131984761D01*
X85542380Y-132270476D01*
X85494761Y-132365714D01*
X85447142Y-132413333D01*
X84542380Y-131175238D02*
X84542380Y-131080000D01*
X84590000Y-130984761D01*
X84637619Y-130937142D01*
X84732857Y-130889523D01*
X84923333Y-130841904D01*
X85161428Y-130841904D01*
X85351904Y-130889523D01*
X85447142Y-130937142D01*
X85494761Y-130984761D01*
X85542380Y-131080000D01*
X85542380Y-131175238D01*
X85494761Y-131270476D01*
X85447142Y-131318095D01*
X85351904Y-131365714D01*
X85161428Y-131413333D01*
X84923333Y-131413333D01*
X84732857Y-131365714D01*
X84637619Y-131318095D01*
X84590000Y-131270476D01*
X84542380Y-131175238D01*
X102222380Y-119546666D02*
X101746190Y-119880000D01*
X102222380Y-120118095D02*
X101222380Y-120118095D01*
X101222380Y-119737142D01*
X101270000Y-119641904D01*
X101317619Y-119594285D01*
X101412857Y-119546666D01*
X101555714Y-119546666D01*
X101650952Y-119594285D01*
X101698571Y-119641904D01*
X101746190Y-119737142D01*
X101746190Y-120118095D01*
X101222380Y-119213333D02*
X101222380Y-118546666D01*
X102222380Y-118975238D01*
X104592380Y-119499047D02*
X104592380Y-120070476D01*
X104592380Y-119784761D02*
X103592380Y-119784761D01*
X103735238Y-119880000D01*
X103830476Y-119975238D01*
X103878095Y-120070476D01*
X104592380Y-119070476D02*
X103592380Y-119070476D01*
X104211428Y-118975238D02*
X104592380Y-118689523D01*
X103925714Y-118689523D02*
X104306666Y-119070476D01*
X102222380Y-132246666D02*
X101746190Y-132580000D01*
X102222380Y-132818095D02*
X101222380Y-132818095D01*
X101222380Y-132437142D01*
X101270000Y-132341904D01*
X101317619Y-132294285D01*
X101412857Y-132246666D01*
X101555714Y-132246666D01*
X101650952Y-132294285D01*
X101698571Y-132341904D01*
X101746190Y-132437142D01*
X101746190Y-132818095D01*
X101317619Y-131865714D02*
X101270000Y-131818095D01*
X101222380Y-131722857D01*
X101222380Y-131484761D01*
X101270000Y-131389523D01*
X101317619Y-131341904D01*
X101412857Y-131294285D01*
X101508095Y-131294285D01*
X101650952Y-131341904D01*
X102222380Y-131913333D01*
X102222380Y-131294285D01*
X104592380Y-132199047D02*
X104592380Y-132770476D01*
X104592380Y-132484761D02*
X103592380Y-132484761D01*
X103735238Y-132580000D01*
X103830476Y-132675238D01*
X103878095Y-132770476D01*
X104592380Y-131770476D02*
X103592380Y-131770476D01*
X104211428Y-131675238D02*
X104592380Y-131389523D01*
X103925714Y-131389523D02*
X104306666Y-131770476D01*
X97452380Y-108283333D02*
X98166666Y-108283333D01*
X98309523Y-108330952D01*
X98404761Y-108426190D01*
X98452380Y-108569047D01*
X98452380Y-108664285D01*
X98452380Y-107283333D02*
X98452380Y-107854761D01*
X98452380Y-107569047D02*
X97452380Y-107569047D01*
X97595238Y-107664285D01*
X97690476Y-107759523D01*
X97738095Y-107854761D01*
M02*
