M48
; DRILL file {KiCad (5.1.2-1)-1} date Wednesday, July 14, 2021 at 11:01:03 PM
; FORMAT={-:-/ absolute / inch / decimal}
; #@! TF.CreationDate,2021-07-14T23:01:03-07:00
; #@! TF.GenerationSoftware,Kicad,Pcbnew,(5.1.2-1)-1
FMAT,2
INCH
T1C0.0157
T2C0.0315
T3C0.0354
T4C0.0394
T5C0.0472
T6C0.1260
%
G90
G05
T1
X2.45Y-4.7
X2.45Y-4.85
X2.6Y-5.35
X2.8Y-5.0
X2.85Y-4.85
X2.9Y-5.3
X3.0Y-5.1
X3.25Y-5.05
X3.25Y-5.35
X3.3Y-4.45
X3.3Y-4.85
X3.35Y-4.75
X3.4Y-4.9
X3.45Y-4.25
X3.6Y-5.0
X4.0Y-5.6
X4.0Y-5.6
X4.05Y-4.15
X4.05Y-4.45
X4.05Y-4.6
X4.05Y-5.3
X4.1Y-5.55
X4.1219Y-4.4347
X4.175Y-4.3679
X4.3Y-4.4
X4.3Y-5.55
X4.35Y-4.45
X4.3887Y-4.9461
X4.4Y-5.35
X4.45Y-4.65
X4.45Y-4.95
T2
X3.5Y-4.5
X3.5Y-4.9
X3.5Y-5.0
X3.5Y-5.4
X4.25Y-5.0
X4.25Y-5.4
X3.65Y-4.85
X3.65Y-4.95
X3.65Y-5.05
X3.95Y-4.85
X3.95Y-4.95
X3.95Y-5.05
X3.65Y-4.5
X3.65Y-4.6
X3.65Y-4.7
X3.95Y-4.5
X3.95Y-4.6
X3.95Y-4.7
X4.1Y-5.0
X4.1Y-5.4
X4.1Y-4.5
X4.1Y-4.9
X3.65Y-5.2
X3.65Y-5.3
X3.65Y-5.4
X3.95Y-5.2
X3.95Y-5.3
X3.95Y-5.4
X3.35Y-5.0
X3.35Y-5.4
T3
X4.25Y-4.5
X4.25Y-4.9
T4
X3.95Y-4.25
X4.05Y-4.25
X4.15Y-4.25
X4.25Y-4.25
X2.2035Y-4.524
X2.2035Y-4.624
X2.2035Y-4.724
X2.2035Y-4.824
X2.2035Y-4.924
X2.2035Y-5.024
X2.2035Y-5.124
X2.2035Y-5.224
X3.1035Y-4.524
X3.1035Y-4.624
X3.1035Y-4.724
X3.1035Y-4.824
X3.1035Y-4.924
X3.1035Y-5.024
X3.1035Y-5.124
X3.1035Y-5.224
T5
X4.55Y-4.65
X4.55Y-4.7878
X4.55Y-4.9256
X4.55Y-5.0634
T6
X1.95Y-4.2
X4.5Y-4.2
X4.5Y-5.5
X1.95Y-5.5
T0
M30
