G04 #@! TF.GenerationSoftware,KiCad,Pcbnew,(5.1.2-1)-1*
G04 #@! TF.CreationDate,2021-07-14T23:00:58-07:00*
G04 #@! TF.ProjectId,vista20p-alt,76697374-6132-4307-902d-616c742e6b69,rev?*
G04 #@! TF.SameCoordinates,Original*
G04 #@! TF.FileFunction,Legend,Bot*
G04 #@! TF.FilePolarity,Positive*
%FSLAX46Y46*%
G04 Gerber Fmt 4.6, Leading zero omitted, Abs format (unit mm)*
G04 Created by KiCad (PCBNEW (5.1.2-1)-1) date 2021-07-14 23:00:58*
%MOMM*%
%LPD*%
G04 APERTURE LIST*
%ADD10C,0.150000*%
G04 APERTURE END LIST*
D10*
X81446666Y-117927380D02*
X81780000Y-117451190D01*
X82018095Y-117927380D02*
X82018095Y-116927380D01*
X81637142Y-116927380D01*
X81541904Y-116975000D01*
X81494285Y-117022619D01*
X81446666Y-117117857D01*
X81446666Y-117260714D01*
X81494285Y-117355952D01*
X81541904Y-117403571D01*
X81637142Y-117451190D01*
X82018095Y-117451190D01*
X81113333Y-116927380D02*
X80446666Y-117927380D01*
X80446666Y-116927380D02*
X81113333Y-117927380D01*
X82018095Y-120467380D02*
X82018095Y-119467380D01*
X81780000Y-119467380D01*
X81637142Y-119515000D01*
X81541904Y-119610238D01*
X81494285Y-119705476D01*
X81446666Y-119895952D01*
X81446666Y-120038809D01*
X81494285Y-120229285D01*
X81541904Y-120324523D01*
X81637142Y-120419761D01*
X81780000Y-120467380D01*
X82018095Y-120467380D01*
X80494285Y-120467380D02*
X81065714Y-120467380D01*
X80780000Y-120467380D02*
X80780000Y-119467380D01*
X80875238Y-119610238D01*
X80970476Y-119705476D01*
X81065714Y-119753095D01*
X82018095Y-123007380D02*
X82018095Y-122007380D01*
X81780000Y-122007380D01*
X81637142Y-122055000D01*
X81541904Y-122150238D01*
X81494285Y-122245476D01*
X81446666Y-122435952D01*
X81446666Y-122578809D01*
X81494285Y-122769285D01*
X81541904Y-122864523D01*
X81637142Y-122959761D01*
X81780000Y-123007380D01*
X82018095Y-123007380D01*
X81065714Y-122102619D02*
X81018095Y-122055000D01*
X80922857Y-122007380D01*
X80684761Y-122007380D01*
X80589523Y-122055000D01*
X80541904Y-122102619D01*
X80494285Y-122197857D01*
X80494285Y-122293095D01*
X80541904Y-122435952D01*
X81113333Y-123007380D01*
X80494285Y-123007380D01*
X82018095Y-125547380D02*
X82018095Y-124547380D01*
X81780000Y-124547380D01*
X81637142Y-124595000D01*
X81541904Y-124690238D01*
X81494285Y-124785476D01*
X81446666Y-124975952D01*
X81446666Y-125118809D01*
X81494285Y-125309285D01*
X81541904Y-125404523D01*
X81637142Y-125499761D01*
X81780000Y-125547380D01*
X82018095Y-125547380D01*
X81113333Y-124547380D02*
X80494285Y-124547380D01*
X80827619Y-124928333D01*
X80684761Y-124928333D01*
X80589523Y-124975952D01*
X80541904Y-125023571D01*
X80494285Y-125118809D01*
X80494285Y-125356904D01*
X80541904Y-125452142D01*
X80589523Y-125499761D01*
X80684761Y-125547380D01*
X80970476Y-125547380D01*
X81065714Y-125499761D01*
X81113333Y-125452142D01*
X82018095Y-127452380D02*
X82018095Y-126452380D01*
X81780000Y-126452380D01*
X81637142Y-126500000D01*
X81541904Y-126595238D01*
X81494285Y-126690476D01*
X81446666Y-126880952D01*
X81446666Y-127023809D01*
X81494285Y-127214285D01*
X81541904Y-127309523D01*
X81637142Y-127404761D01*
X81780000Y-127452380D01*
X82018095Y-127452380D01*
X80589523Y-126785714D02*
X80589523Y-127452380D01*
X80827619Y-126404761D02*
X81065714Y-127119047D01*
X80446666Y-127119047D01*
X82041904Y-129675000D02*
X82137142Y-129627380D01*
X82280000Y-129627380D01*
X82422857Y-129675000D01*
X82518095Y-129770238D01*
X82565714Y-129865476D01*
X82613333Y-130055952D01*
X82613333Y-130198809D01*
X82565714Y-130389285D01*
X82518095Y-130484523D01*
X82422857Y-130579761D01*
X82280000Y-130627380D01*
X82184761Y-130627380D01*
X82041904Y-130579761D01*
X81994285Y-130532142D01*
X81994285Y-130198809D01*
X82184761Y-130198809D01*
X81565714Y-130627380D02*
X81565714Y-129627380D01*
X80994285Y-130627380D01*
X80994285Y-129627380D01*
X80518095Y-130627380D02*
X80518095Y-129627380D01*
X80280000Y-129627380D01*
X80137142Y-129675000D01*
X80041904Y-129770238D01*
X79994285Y-129865476D01*
X79946666Y-130055952D01*
X79946666Y-130198809D01*
X79994285Y-130389285D01*
X80041904Y-130484523D01*
X80137142Y-130579761D01*
X80280000Y-130627380D01*
X80518095Y-130627380D01*
X81470476Y-132167380D02*
X81946666Y-132167380D01*
X81994285Y-132643571D01*
X81946666Y-132595952D01*
X81851428Y-132548333D01*
X81613333Y-132548333D01*
X81518095Y-132595952D01*
X81470476Y-132643571D01*
X81422857Y-132738809D01*
X81422857Y-132976904D01*
X81470476Y-133072142D01*
X81518095Y-133119761D01*
X81613333Y-133167380D01*
X81851428Y-133167380D01*
X81946666Y-133119761D01*
X81994285Y-133072142D01*
X81137142Y-132167380D02*
X80803809Y-133167380D01*
X80470476Y-132167380D01*
X82041904Y-115022380D02*
X81470476Y-115022380D01*
X81756190Y-116022380D02*
X81756190Y-115022380D01*
X81232380Y-115022380D02*
X80565714Y-116022380D01*
X80565714Y-115022380D02*
X81232380Y-116022380D01*
X53308095Y-132802380D02*
X52689047Y-132802380D01*
X53022380Y-133183333D01*
X52879523Y-133183333D01*
X52784285Y-133230952D01*
X52736666Y-133278571D01*
X52689047Y-133373809D01*
X52689047Y-133611904D01*
X52736666Y-133707142D01*
X52784285Y-133754761D01*
X52879523Y-133802380D01*
X53165238Y-133802380D01*
X53260476Y-133754761D01*
X53308095Y-133707142D01*
X52403333Y-132802380D02*
X52070000Y-133802380D01*
X51736666Y-132802380D01*
X51498571Y-132802380D02*
X50879523Y-132802380D01*
X51212857Y-133183333D01*
X51070000Y-133183333D01*
X50974761Y-133230952D01*
X50927142Y-133278571D01*
X50879523Y-133373809D01*
X50879523Y-133611904D01*
X50927142Y-133707142D01*
X50974761Y-133754761D01*
X51070000Y-133802380D01*
X51355714Y-133802380D01*
X51450952Y-133754761D01*
X51498571Y-133707142D01*
X53443095Y-130627380D02*
X53443095Y-129627380D01*
X53205000Y-129627380D01*
X53062142Y-129675000D01*
X52966904Y-129770238D01*
X52919285Y-129865476D01*
X52871666Y-130055952D01*
X52871666Y-130198809D01*
X52919285Y-130389285D01*
X52966904Y-130484523D01*
X53062142Y-130579761D01*
X53205000Y-130627380D01*
X53443095Y-130627380D01*
X52300238Y-130055952D02*
X52395476Y-130008333D01*
X52443095Y-129960714D01*
X52490714Y-129865476D01*
X52490714Y-129817857D01*
X52443095Y-129722619D01*
X52395476Y-129675000D01*
X52300238Y-129627380D01*
X52109761Y-129627380D01*
X52014523Y-129675000D01*
X51966904Y-129722619D01*
X51919285Y-129817857D01*
X51919285Y-129865476D01*
X51966904Y-129960714D01*
X52014523Y-130008333D01*
X52109761Y-130055952D01*
X52300238Y-130055952D01*
X52395476Y-130103571D01*
X52443095Y-130151190D01*
X52490714Y-130246428D01*
X52490714Y-130436904D01*
X52443095Y-130532142D01*
X52395476Y-130579761D01*
X52300238Y-130627380D01*
X52109761Y-130627380D01*
X52014523Y-130579761D01*
X51966904Y-130532142D01*
X51919285Y-130436904D01*
X51919285Y-130246428D01*
X51966904Y-130151190D01*
X52014523Y-130103571D01*
X52109761Y-130055952D01*
X53443095Y-128087380D02*
X53443095Y-127087380D01*
X53205000Y-127087380D01*
X53062142Y-127135000D01*
X52966904Y-127230238D01*
X52919285Y-127325476D01*
X52871666Y-127515952D01*
X52871666Y-127658809D01*
X52919285Y-127849285D01*
X52966904Y-127944523D01*
X53062142Y-128039761D01*
X53205000Y-128087380D01*
X53443095Y-128087380D01*
X52538333Y-127087380D02*
X51871666Y-127087380D01*
X52300238Y-128087380D01*
X53443095Y-125547380D02*
X53443095Y-124547380D01*
X53205000Y-124547380D01*
X53062142Y-124595000D01*
X52966904Y-124690238D01*
X52919285Y-124785476D01*
X52871666Y-124975952D01*
X52871666Y-125118809D01*
X52919285Y-125309285D01*
X52966904Y-125404523D01*
X53062142Y-125499761D01*
X53205000Y-125547380D01*
X53443095Y-125547380D01*
X52014523Y-124547380D02*
X52205000Y-124547380D01*
X52300238Y-124595000D01*
X52347857Y-124642619D01*
X52443095Y-124785476D01*
X52490714Y-124975952D01*
X52490714Y-125356904D01*
X52443095Y-125452142D01*
X52395476Y-125499761D01*
X52300238Y-125547380D01*
X52109761Y-125547380D01*
X52014523Y-125499761D01*
X51966904Y-125452142D01*
X51919285Y-125356904D01*
X51919285Y-125118809D01*
X51966904Y-125023571D01*
X52014523Y-124975952D01*
X52109761Y-124928333D01*
X52300238Y-124928333D01*
X52395476Y-124975952D01*
X52443095Y-125023571D01*
X52490714Y-125118809D01*
X53443095Y-123007380D02*
X53443095Y-122007380D01*
X53205000Y-122007380D01*
X53062142Y-122055000D01*
X52966904Y-122150238D01*
X52919285Y-122245476D01*
X52871666Y-122435952D01*
X52871666Y-122578809D01*
X52919285Y-122769285D01*
X52966904Y-122864523D01*
X53062142Y-122959761D01*
X53205000Y-123007380D01*
X53443095Y-123007380D01*
X51966904Y-122007380D02*
X52443095Y-122007380D01*
X52490714Y-122483571D01*
X52443095Y-122435952D01*
X52347857Y-122388333D01*
X52109761Y-122388333D01*
X52014523Y-122435952D01*
X51966904Y-122483571D01*
X51919285Y-122578809D01*
X51919285Y-122816904D01*
X51966904Y-122912142D01*
X52014523Y-122959761D01*
X52109761Y-123007380D01*
X52347857Y-123007380D01*
X52443095Y-122959761D01*
X52490714Y-122912142D01*
X53443095Y-120467380D02*
X53443095Y-119467380D01*
X53205000Y-119467380D01*
X53062142Y-119515000D01*
X52966904Y-119610238D01*
X52919285Y-119705476D01*
X52871666Y-119895952D01*
X52871666Y-120038809D01*
X52919285Y-120229285D01*
X52966904Y-120324523D01*
X53062142Y-120419761D01*
X53205000Y-120467380D01*
X53443095Y-120467380D01*
X52252619Y-119467380D02*
X52157380Y-119467380D01*
X52062142Y-119515000D01*
X52014523Y-119562619D01*
X51966904Y-119657857D01*
X51919285Y-119848333D01*
X51919285Y-120086428D01*
X51966904Y-120276904D01*
X52014523Y-120372142D01*
X52062142Y-120419761D01*
X52157380Y-120467380D01*
X52252619Y-120467380D01*
X52347857Y-120419761D01*
X52395476Y-120372142D01*
X52443095Y-120276904D01*
X52490714Y-120086428D01*
X52490714Y-119848333D01*
X52443095Y-119657857D01*
X52395476Y-119562619D01*
X52347857Y-119515000D01*
X52252619Y-119467380D01*
X53419285Y-117641666D02*
X52943095Y-117641666D01*
X53514523Y-117927380D02*
X53181190Y-116927380D01*
X52847857Y-117927380D01*
X52324047Y-116927380D02*
X52228809Y-116927380D01*
X52133571Y-116975000D01*
X52085952Y-117022619D01*
X52038333Y-117117857D01*
X51990714Y-117308333D01*
X51990714Y-117546428D01*
X52038333Y-117736904D01*
X52085952Y-117832142D01*
X52133571Y-117879761D01*
X52228809Y-117927380D01*
X52324047Y-117927380D01*
X52419285Y-117879761D01*
X52466904Y-117832142D01*
X52514523Y-117736904D01*
X52562142Y-117546428D01*
X52562142Y-117308333D01*
X52514523Y-117117857D01*
X52466904Y-117022619D01*
X52419285Y-116975000D01*
X52324047Y-116927380D01*
X52570000Y-113385000D02*
X51570000Y-113385000D01*
X51760476Y-114752380D02*
X52093809Y-114276190D01*
X52331904Y-114752380D02*
X52331904Y-113752380D01*
X51950952Y-113752380D01*
X51855714Y-113800000D01*
X51808095Y-113847619D01*
X51760476Y-113942857D01*
X51760476Y-114085714D01*
X51808095Y-114180952D01*
X51855714Y-114228571D01*
X51950952Y-114276190D01*
X52331904Y-114276190D01*
X79619523Y-103036666D02*
X79143333Y-103036666D01*
X79714761Y-103322380D02*
X79381428Y-102322380D01*
X79048095Y-103322380D01*
X78286190Y-103322380D02*
X78286190Y-102322380D01*
X78286190Y-103274761D02*
X78381428Y-103322380D01*
X78571904Y-103322380D01*
X78667142Y-103274761D01*
X78714761Y-103227142D01*
X78762380Y-103131904D01*
X78762380Y-102846190D01*
X78714761Y-102750952D01*
X78667142Y-102703333D01*
X78571904Y-102655714D01*
X78381428Y-102655714D01*
X78286190Y-102703333D01*
X77429047Y-103274761D02*
X77524285Y-103322380D01*
X77714761Y-103322380D01*
X77810000Y-103274761D01*
X77857619Y-103179523D01*
X77857619Y-102798571D01*
X77810000Y-102703333D01*
X77714761Y-102655714D01*
X77524285Y-102655714D01*
X77429047Y-102703333D01*
X77381428Y-102798571D01*
X77381428Y-102893809D01*
X77857619Y-102989047D01*
X76952857Y-103322380D02*
X76952857Y-102655714D01*
X76952857Y-102750952D02*
X76905238Y-102703333D01*
X76810000Y-102655714D01*
X76667142Y-102655714D01*
X76571904Y-102703333D01*
X76524285Y-102798571D01*
X76524285Y-103322380D01*
X76524285Y-102798571D02*
X76476666Y-102703333D01*
X76381428Y-102655714D01*
X76238571Y-102655714D01*
X76143333Y-102703333D01*
X76095714Y-102798571D01*
X76095714Y-103322380D01*
X75190952Y-103274761D02*
X75286190Y-103322380D01*
X75476666Y-103322380D01*
X75571904Y-103274761D01*
X75619523Y-103227142D01*
X75667142Y-103131904D01*
X75667142Y-102846190D01*
X75619523Y-102750952D01*
X75571904Y-102703333D01*
X75476666Y-102655714D01*
X75286190Y-102655714D01*
X75190952Y-102703333D01*
X74619523Y-103322380D02*
X74714761Y-103274761D01*
X74762380Y-103227142D01*
X74810000Y-103131904D01*
X74810000Y-102846190D01*
X74762380Y-102750952D01*
X74714761Y-102703333D01*
X74619523Y-102655714D01*
X74476666Y-102655714D01*
X74381428Y-102703333D01*
X74333809Y-102750952D01*
X74286190Y-102846190D01*
X74286190Y-103131904D01*
X74333809Y-103227142D01*
X74381428Y-103274761D01*
X74476666Y-103322380D01*
X74619523Y-103322380D01*
X73143333Y-102274761D02*
X74000476Y-103560476D01*
X72952857Y-102322380D02*
X72619523Y-103322380D01*
X72286190Y-102322380D01*
X71952857Y-103322380D02*
X71952857Y-102655714D01*
X71952857Y-102322380D02*
X72000476Y-102370000D01*
X71952857Y-102417619D01*
X71905238Y-102370000D01*
X71952857Y-102322380D01*
X71952857Y-102417619D01*
X71524285Y-103274761D02*
X71429047Y-103322380D01*
X71238571Y-103322380D01*
X71143333Y-103274761D01*
X71095714Y-103179523D01*
X71095714Y-103131904D01*
X71143333Y-103036666D01*
X71238571Y-102989047D01*
X71381428Y-102989047D01*
X71476666Y-102941428D01*
X71524285Y-102846190D01*
X71524285Y-102798571D01*
X71476666Y-102703333D01*
X71381428Y-102655714D01*
X71238571Y-102655714D01*
X71143333Y-102703333D01*
X70810000Y-102655714D02*
X70429047Y-102655714D01*
X70667142Y-102322380D02*
X70667142Y-103179523D01*
X70619523Y-103274761D01*
X70524285Y-103322380D01*
X70429047Y-103322380D01*
X69667142Y-103322380D02*
X69667142Y-102798571D01*
X69714761Y-102703333D01*
X69810000Y-102655714D01*
X70000476Y-102655714D01*
X70095714Y-102703333D01*
X69667142Y-103274761D02*
X69762380Y-103322380D01*
X70000476Y-103322380D01*
X70095714Y-103274761D01*
X70143333Y-103179523D01*
X70143333Y-103084285D01*
X70095714Y-102989047D01*
X70000476Y-102941428D01*
X69762380Y-102941428D01*
X69667142Y-102893809D01*
X68429047Y-103322380D02*
X68429047Y-102322380D01*
X68048095Y-102322380D01*
X67952857Y-102370000D01*
X67905238Y-102417619D01*
X67857619Y-102512857D01*
X67857619Y-102655714D01*
X67905238Y-102750952D01*
X67952857Y-102798571D01*
X68048095Y-102846190D01*
X68429047Y-102846190D01*
X67000476Y-103322380D02*
X67000476Y-102798571D01*
X67048095Y-102703333D01*
X67143333Y-102655714D01*
X67333809Y-102655714D01*
X67429047Y-102703333D01*
X67000476Y-103274761D02*
X67095714Y-103322380D01*
X67333809Y-103322380D01*
X67429047Y-103274761D01*
X67476666Y-103179523D01*
X67476666Y-103084285D01*
X67429047Y-102989047D01*
X67333809Y-102941428D01*
X67095714Y-102941428D01*
X67000476Y-102893809D01*
X66524285Y-102655714D02*
X66524285Y-103322380D01*
X66524285Y-102750952D02*
X66476666Y-102703333D01*
X66381428Y-102655714D01*
X66238571Y-102655714D01*
X66143333Y-102703333D01*
X66095714Y-102798571D01*
X66095714Y-103322380D01*
X65238571Y-103274761D02*
X65333809Y-103322380D01*
X65524285Y-103322380D01*
X65619523Y-103274761D01*
X65667142Y-103179523D01*
X65667142Y-102798571D01*
X65619523Y-102703333D01*
X65524285Y-102655714D01*
X65333809Y-102655714D01*
X65238571Y-102703333D01*
X65190952Y-102798571D01*
X65190952Y-102893809D01*
X65667142Y-102989047D01*
X64619523Y-103322380D02*
X64714761Y-103274761D01*
X64762380Y-103179523D01*
X64762380Y-102322380D01*
X63619523Y-102655714D02*
X63238571Y-102655714D01*
X63476666Y-102322380D02*
X63476666Y-103179523D01*
X63429047Y-103274761D01*
X63333809Y-103322380D01*
X63238571Y-103322380D01*
X62762380Y-103322380D02*
X62857619Y-103274761D01*
X62905238Y-103227142D01*
X62952857Y-103131904D01*
X62952857Y-102846190D01*
X62905238Y-102750952D01*
X62857619Y-102703333D01*
X62762380Y-102655714D01*
X62619523Y-102655714D01*
X62524285Y-102703333D01*
X62476666Y-102750952D01*
X62429047Y-102846190D01*
X62429047Y-103131904D01*
X62476666Y-103227142D01*
X62524285Y-103274761D01*
X62619523Y-103322380D01*
X62762380Y-103322380D01*
X61238571Y-102798571D02*
X60905238Y-102798571D01*
X60762380Y-103322380D02*
X61238571Y-103322380D01*
X61238571Y-102322380D01*
X60762380Y-102322380D01*
X60381428Y-103274761D02*
X60238571Y-103322380D01*
X60000476Y-103322380D01*
X59905238Y-103274761D01*
X59857619Y-103227142D01*
X59810000Y-103131904D01*
X59810000Y-103036666D01*
X59857619Y-102941428D01*
X59905238Y-102893809D01*
X60000476Y-102846190D01*
X60190952Y-102798571D01*
X60286190Y-102750952D01*
X60333809Y-102703333D01*
X60381428Y-102608095D01*
X60381428Y-102512857D01*
X60333809Y-102417619D01*
X60286190Y-102370000D01*
X60190952Y-102322380D01*
X59952857Y-102322380D01*
X59810000Y-102370000D01*
X59381428Y-103322380D02*
X59381428Y-102322380D01*
X59000476Y-102322380D01*
X58905238Y-102370000D01*
X58857619Y-102417619D01*
X58810000Y-102512857D01*
X58810000Y-102655714D01*
X58857619Y-102750952D01*
X58905238Y-102798571D01*
X59000476Y-102846190D01*
X59381428Y-102846190D01*
X58238571Y-102750952D02*
X58333809Y-102703333D01*
X58381428Y-102655714D01*
X58429047Y-102560476D01*
X58429047Y-102512857D01*
X58381428Y-102417619D01*
X58333809Y-102370000D01*
X58238571Y-102322380D01*
X58048095Y-102322380D01*
X57952857Y-102370000D01*
X57905238Y-102417619D01*
X57857619Y-102512857D01*
X57857619Y-102560476D01*
X57905238Y-102655714D01*
X57952857Y-102703333D01*
X58048095Y-102750952D01*
X58238571Y-102750952D01*
X58333809Y-102798571D01*
X58381428Y-102846190D01*
X58429047Y-102941428D01*
X58429047Y-103131904D01*
X58381428Y-103227142D01*
X58333809Y-103274761D01*
X58238571Y-103322380D01*
X58048095Y-103322380D01*
X57952857Y-103274761D01*
X57905238Y-103227142D01*
X57857619Y-103131904D01*
X57857619Y-102941428D01*
X57905238Y-102846190D01*
X57952857Y-102798571D01*
X58048095Y-102750952D01*
X57476666Y-102417619D02*
X57429047Y-102370000D01*
X57333809Y-102322380D01*
X57095714Y-102322380D01*
X57000476Y-102370000D01*
X56952857Y-102417619D01*
X56905238Y-102512857D01*
X56905238Y-102608095D01*
X56952857Y-102750952D01*
X57524285Y-103322380D01*
X56905238Y-103322380D01*
X56048095Y-102322380D02*
X56238571Y-102322380D01*
X56333809Y-102370000D01*
X56381428Y-102417619D01*
X56476666Y-102560476D01*
X56524285Y-102750952D01*
X56524285Y-103131904D01*
X56476666Y-103227142D01*
X56429047Y-103274761D01*
X56333809Y-103322380D01*
X56143333Y-103322380D01*
X56048095Y-103274761D01*
X56000476Y-103227142D01*
X55952857Y-103131904D01*
X55952857Y-102893809D01*
X56000476Y-102798571D01*
X56048095Y-102750952D01*
X56143333Y-102703333D01*
X56333809Y-102703333D01*
X56429047Y-102750952D01*
X56476666Y-102798571D01*
X56524285Y-102893809D01*
X55095714Y-102322380D02*
X55286190Y-102322380D01*
X55381428Y-102370000D01*
X55429047Y-102417619D01*
X55524285Y-102560476D01*
X55571904Y-102750952D01*
X55571904Y-103131904D01*
X55524285Y-103227142D01*
X55476666Y-103274761D01*
X55381428Y-103322380D01*
X55190952Y-103322380D01*
X55095714Y-103274761D01*
X55048095Y-103227142D01*
X55000476Y-103131904D01*
X55000476Y-102893809D01*
X55048095Y-102798571D01*
X55095714Y-102750952D01*
X55190952Y-102703333D01*
X55381428Y-102703333D01*
X55476666Y-102750952D01*
X55524285Y-102798571D01*
X55571904Y-102893809D01*
X78993809Y-104862380D02*
X78660476Y-105862380D01*
X78327142Y-104862380D01*
X77470000Y-105862380D02*
X78041428Y-105862380D01*
X77755714Y-105862380D02*
X77755714Y-104862380D01*
X77850952Y-105005238D01*
X77946190Y-105100476D01*
X78041428Y-105148095D01*
X77041428Y-105767142D02*
X76993809Y-105814761D01*
X77041428Y-105862380D01*
X77089047Y-105814761D01*
X77041428Y-105767142D01*
X77041428Y-105862380D01*
X76374761Y-104862380D02*
X76279523Y-104862380D01*
X76184285Y-104910000D01*
X76136666Y-104957619D01*
X76089047Y-105052857D01*
X76041428Y-105243333D01*
X76041428Y-105481428D01*
X76089047Y-105671904D01*
X76136666Y-105767142D01*
X76184285Y-105814761D01*
X76279523Y-105862380D01*
X76374761Y-105862380D01*
X76470000Y-105814761D01*
X76517619Y-105767142D01*
X76565238Y-105671904D01*
X76612857Y-105481428D01*
X76612857Y-105243333D01*
X76565238Y-105052857D01*
X76517619Y-104957619D01*
X76470000Y-104910000D01*
X76374761Y-104862380D01*
X107688095Y-104910000D02*
X107783333Y-104862380D01*
X107926190Y-104862380D01*
X108069047Y-104910000D01*
X108164285Y-105005238D01*
X108211904Y-105100476D01*
X108259523Y-105290952D01*
X108259523Y-105433809D01*
X108211904Y-105624285D01*
X108164285Y-105719523D01*
X108069047Y-105814761D01*
X107926190Y-105862380D01*
X107830952Y-105862380D01*
X107688095Y-105814761D01*
X107640476Y-105767142D01*
X107640476Y-105433809D01*
X107830952Y-105433809D01*
X105957619Y-105338571D02*
X105814761Y-105386190D01*
X105767142Y-105433809D01*
X105719523Y-105529047D01*
X105719523Y-105671904D01*
X105767142Y-105767142D01*
X105814761Y-105814761D01*
X105910000Y-105862380D01*
X106290952Y-105862380D01*
X106290952Y-104862380D01*
X105957619Y-104862380D01*
X105862380Y-104910000D01*
X105814761Y-104957619D01*
X105767142Y-105052857D01*
X105767142Y-105148095D01*
X105814761Y-105243333D01*
X105862380Y-105290952D01*
X105957619Y-105338571D01*
X106290952Y-105338571D01*
X105290952Y-105481428D02*
X104529047Y-105481428D01*
X103179523Y-105862380D02*
X103512857Y-105386190D01*
X103750952Y-105862380D02*
X103750952Y-104862380D01*
X103370000Y-104862380D01*
X103274761Y-104910000D01*
X103227142Y-104957619D01*
X103179523Y-105052857D01*
X103179523Y-105195714D01*
X103227142Y-105290952D01*
X103274761Y-105338571D01*
X103370000Y-105386190D01*
X103750952Y-105386190D01*
X102750952Y-105481428D02*
X101989047Y-105481428D01*
X102370000Y-105862380D02*
X102370000Y-105100476D01*
X100330000Y-105386190D02*
X100330000Y-105862380D01*
X100663333Y-104862380D02*
X100330000Y-105386190D01*
X99996666Y-104862380D01*
X110037619Y-120959523D02*
X110513809Y-121292857D01*
X110037619Y-121530952D02*
X111037619Y-121530952D01*
X111037619Y-121150000D01*
X110990000Y-121054761D01*
X110942380Y-121007142D01*
X110847142Y-120959523D01*
X110704285Y-120959523D01*
X110609047Y-121007142D01*
X110561428Y-121054761D01*
X110513809Y-121150000D01*
X110513809Y-121530952D01*
X110418571Y-120530952D02*
X110418571Y-119769047D01*
X110037619Y-120150000D02*
X110799523Y-120150000D01*
X110561428Y-125007619D02*
X110513809Y-124864761D01*
X110466190Y-124817142D01*
X110370952Y-124769523D01*
X110228095Y-124769523D01*
X110132857Y-124817142D01*
X110085238Y-124864761D01*
X110037619Y-124960000D01*
X110037619Y-125340952D01*
X111037619Y-125340952D01*
X111037619Y-125007619D01*
X110990000Y-124912380D01*
X110942380Y-124864761D01*
X110847142Y-124817142D01*
X110751904Y-124817142D01*
X110656666Y-124864761D01*
X110609047Y-124912380D01*
X110561428Y-125007619D01*
X110561428Y-125340952D01*
X110418571Y-124340952D02*
X110418571Y-123579047D01*
X109990000Y-128531904D02*
X109942380Y-128436666D01*
X109942380Y-128293809D01*
X109990000Y-128150952D01*
X110085238Y-128055714D01*
X110180476Y-128008095D01*
X110370952Y-127960476D01*
X110513809Y-127960476D01*
X110704285Y-128008095D01*
X110799523Y-128055714D01*
X110894761Y-128150952D01*
X110942380Y-128293809D01*
X110942380Y-128389047D01*
X110894761Y-128531904D01*
X110847142Y-128579523D01*
X110513809Y-128579523D01*
X110513809Y-128389047D01*
X110466190Y-118110000D02*
X110942380Y-118110000D01*
X109942380Y-117776666D02*
X110466190Y-118110000D01*
X109942380Y-118443333D01*
M02*
