G04 #@! TF.GenerationSoftware,KiCad,Pcbnew,(5.1.2-1)-1*
G04 #@! TF.CreationDate,2021-07-14T23:00:58-07:00*
G04 #@! TF.ProjectId,vista20p-alt,76697374-6132-4307-902d-616c742e6b69,rev?*
G04 #@! TF.SameCoordinates,Original*
G04 #@! TF.FileFunction,Copper,L2,Bot*
G04 #@! TF.FilePolarity,Positive*
%FSLAX46Y46*%
G04 Gerber Fmt 4.6, Leading zero omitted, Abs format (unit mm)*
G04 Created by KiCad (PCBNEW (5.1.2-1)-1) date 2021-07-14 23:00:58*
%MOMM*%
%LPD*%
G04 APERTURE LIST*
%ADD10O,1.800000X1.800000*%
%ADD11R,1.800000X1.800000*%
%ADD12C,2.400000*%
%ADD13R,2.400000X2.400000*%
%ADD14C,6.400000*%
%ADD15O,1.600000X1.600000*%
%ADD16C,1.600000*%
%ADD17R,1.600000X1.600000*%
%ADD18O,2.000000X1.600000*%
%ADD19R,2.000000X2.000000*%
%ADD20O,1.700000X1.700000*%
%ADD21R,1.700000X1.700000*%
%ADD22C,0.800000*%
%ADD23C,0.355600*%
%ADD24C,0.250000*%
%ADD25C,0.254000*%
G04 APERTURE END LIST*
D10*
X107950000Y-124460000D03*
D11*
X107950000Y-114300000D03*
D12*
X115570000Y-128610000D03*
X115570000Y-125110000D03*
X115570000Y-121610000D03*
D13*
X115570000Y-118110000D03*
D14*
X49530000Y-106680000D03*
X114300000Y-106680000D03*
X114300000Y-139700000D03*
X49530000Y-139700000D03*
D15*
X88900000Y-127000000D03*
D16*
X88900000Y-137160000D03*
D15*
X107950000Y-137160000D03*
D16*
X107950000Y-127000000D03*
D15*
X92710000Y-119380000D03*
X100330000Y-114300000D03*
X92710000Y-116840000D03*
X100330000Y-116840000D03*
X92710000Y-114300000D03*
D17*
X100330000Y-119380000D03*
D15*
X92710000Y-137160000D03*
X100330000Y-132080000D03*
X92710000Y-134620000D03*
X100330000Y-134620000D03*
X92710000Y-132080000D03*
D17*
X100330000Y-137160000D03*
D18*
X78830000Y-114910000D03*
X78830000Y-117450000D03*
X78830000Y-119990000D03*
X78830000Y-122530000D03*
X78830000Y-125070000D03*
X78830000Y-127610000D03*
X78830000Y-130150000D03*
X78830000Y-132690000D03*
X55970000Y-132690000D03*
X55970000Y-130150000D03*
X55970000Y-127610000D03*
X55970000Y-125070000D03*
X55970000Y-122530000D03*
X55970000Y-119990000D03*
D19*
X55970000Y-114910000D03*
D18*
X55970000Y-117450000D03*
D15*
X100330000Y-123190000D03*
X92710000Y-128270000D03*
X100330000Y-125730000D03*
X92710000Y-125730000D03*
X100330000Y-128270000D03*
D17*
X92710000Y-123190000D03*
D15*
X88900000Y-114300000D03*
D16*
X88900000Y-124460000D03*
D15*
X85090000Y-137160000D03*
D16*
X85090000Y-127000000D03*
D15*
X104140000Y-114300000D03*
D16*
X104140000Y-124460000D03*
D15*
X104140000Y-127000000D03*
D16*
X104140000Y-137160000D03*
D20*
X107950000Y-107950000D03*
X105410000Y-107950000D03*
X102870000Y-107950000D03*
D21*
X100330000Y-107950000D03*
D22*
X102870000Y-134620000D03*
X102870000Y-116840000D03*
X102870000Y-105410000D03*
X113030000Y-118110000D03*
X111760000Y-135890000D03*
X109220000Y-140970000D03*
X104140000Y-140970000D03*
X101600000Y-142240000D03*
X101600000Y-142240000D03*
X113030000Y-125730000D03*
X111471988Y-125631945D03*
X106045050Y-110945386D03*
X109220000Y-111760000D03*
X104696735Y-112641578D03*
X110490000Y-113030000D03*
X102870000Y-113030000D03*
X91440000Y-127000000D03*
X86360000Y-124460000D03*
X76200000Y-129540000D03*
X82550000Y-128270000D03*
X62230000Y-119380000D03*
X71120000Y-127000000D03*
X66040000Y-135890000D03*
X62230000Y-123190000D03*
X73660000Y-134620000D03*
X72390000Y-123190000D03*
X87630000Y-107950000D03*
X83820000Y-113030000D03*
X83820000Y-123190000D03*
X85090000Y-120650000D03*
X82550000Y-135890000D03*
D23*
X104865124Y-112473189D02*
X104696735Y-112641578D01*
X109220000Y-111760000D02*
X108506811Y-112473189D01*
X108506811Y-112473189D02*
X104865124Y-112473189D01*
D24*
X103269999Y-113429999D02*
X102870000Y-113030000D01*
X103649002Y-113809002D02*
X103269999Y-113429999D01*
X110490000Y-113030000D02*
X105410000Y-113030000D01*
X105410000Y-113030000D02*
X104140000Y-114300000D01*
D25*
G36*
X115077803Y-102357139D02*
G01*
X115831023Y-102563197D01*
X116535852Y-102899384D01*
X117170002Y-103355065D01*
X117713441Y-103915851D01*
X118148981Y-104564001D01*
X118462862Y-105279043D01*
X118646424Y-106043636D01*
X118695001Y-106705126D01*
X118695000Y-139669494D01*
X118622861Y-140477805D01*
X118416803Y-141231023D01*
X118080616Y-141935852D01*
X117624932Y-142570005D01*
X117064149Y-143113441D01*
X116415996Y-143548982D01*
X115700956Y-143862863D01*
X114936364Y-144046424D01*
X114274887Y-144095000D01*
X99187000Y-144095000D01*
X99187000Y-139322285D01*
X110465000Y-139322285D01*
X110465000Y-140077715D01*
X110612377Y-140818628D01*
X110901467Y-141516554D01*
X111321161Y-142144670D01*
X111855330Y-142678839D01*
X112483446Y-143098533D01*
X113181372Y-143387623D01*
X113922285Y-143535000D01*
X114677715Y-143535000D01*
X115418628Y-143387623D01*
X116116554Y-143098533D01*
X116744670Y-142678839D01*
X117278839Y-142144670D01*
X117698533Y-141516554D01*
X117987623Y-140818628D01*
X118135000Y-140077715D01*
X118135000Y-139322285D01*
X117987623Y-138581372D01*
X117698533Y-137883446D01*
X117278839Y-137255330D01*
X116744670Y-136721161D01*
X116116554Y-136301467D01*
X115418628Y-136012377D01*
X114677715Y-135865000D01*
X113922285Y-135865000D01*
X113181372Y-136012377D01*
X112483446Y-136301467D01*
X111855330Y-136721161D01*
X111321161Y-137255330D01*
X110901467Y-137883446D01*
X110612377Y-138581372D01*
X110465000Y-139322285D01*
X99187000Y-139322285D01*
X99187000Y-138496681D01*
X99285820Y-138549502D01*
X99405518Y-138585812D01*
X99530000Y-138598072D01*
X101130000Y-138598072D01*
X101254482Y-138585812D01*
X101374180Y-138549502D01*
X101484494Y-138490537D01*
X101581185Y-138411185D01*
X101660537Y-138314494D01*
X101719502Y-138204180D01*
X101755812Y-138084482D01*
X101768072Y-137960000D01*
X101768072Y-137018665D01*
X102705000Y-137018665D01*
X102705000Y-137301335D01*
X102760147Y-137578574D01*
X102868320Y-137839727D01*
X103025363Y-138074759D01*
X103225241Y-138274637D01*
X103460273Y-138431680D01*
X103721426Y-138539853D01*
X103998665Y-138595000D01*
X104281335Y-138595000D01*
X104558574Y-138539853D01*
X104819727Y-138431680D01*
X105054759Y-138274637D01*
X105254637Y-138074759D01*
X105411680Y-137839727D01*
X105519853Y-137578574D01*
X105575000Y-137301335D01*
X105575000Y-137160000D01*
X106508057Y-137160000D01*
X106535764Y-137441309D01*
X106617818Y-137711808D01*
X106751068Y-137961101D01*
X106930392Y-138179608D01*
X107148899Y-138358932D01*
X107398192Y-138492182D01*
X107668691Y-138574236D01*
X107879508Y-138595000D01*
X108020492Y-138595000D01*
X108231309Y-138574236D01*
X108501808Y-138492182D01*
X108751101Y-138358932D01*
X108969608Y-138179608D01*
X109148932Y-137961101D01*
X109282182Y-137711808D01*
X109364236Y-137441309D01*
X109391943Y-137160000D01*
X109364236Y-136878691D01*
X109282182Y-136608192D01*
X109148932Y-136358899D01*
X108969608Y-136140392D01*
X108751101Y-135961068D01*
X108501808Y-135827818D01*
X108231309Y-135745764D01*
X108020492Y-135725000D01*
X107879508Y-135725000D01*
X107668691Y-135745764D01*
X107398192Y-135827818D01*
X107148899Y-135961068D01*
X106930392Y-136140392D01*
X106751068Y-136358899D01*
X106617818Y-136608192D01*
X106535764Y-136878691D01*
X106508057Y-137160000D01*
X105575000Y-137160000D01*
X105575000Y-137018665D01*
X105519853Y-136741426D01*
X105411680Y-136480273D01*
X105254637Y-136245241D01*
X105054759Y-136045363D01*
X104819727Y-135888320D01*
X104558574Y-135780147D01*
X104281335Y-135725000D01*
X103998665Y-135725000D01*
X103721426Y-135780147D01*
X103460273Y-135888320D01*
X103225241Y-136045363D01*
X103025363Y-136245241D01*
X102868320Y-136480273D01*
X102760147Y-136741426D01*
X102705000Y-137018665D01*
X101768072Y-137018665D01*
X101768072Y-136360000D01*
X101755812Y-136235518D01*
X101719502Y-136115820D01*
X101660537Y-136005506D01*
X101581185Y-135908815D01*
X101484494Y-135829463D01*
X101374180Y-135770498D01*
X101254482Y-135734188D01*
X101229920Y-135731769D01*
X101393519Y-135583414D01*
X101561037Y-135357420D01*
X101681246Y-135103087D01*
X101721904Y-134969039D01*
X101599915Y-134747000D01*
X100457000Y-134747000D01*
X100457000Y-134767000D01*
X100203000Y-134767000D01*
X100203000Y-134747000D01*
X100183000Y-134747000D01*
X100183000Y-134493000D01*
X100203000Y-134493000D01*
X100203000Y-134473000D01*
X100457000Y-134473000D01*
X100457000Y-134493000D01*
X101599915Y-134493000D01*
X101721904Y-134270961D01*
X101681246Y-134136913D01*
X101561037Y-133882580D01*
X101393519Y-133656586D01*
X101185131Y-133467615D01*
X100993318Y-133352579D01*
X101131101Y-133278932D01*
X101349608Y-133099608D01*
X101528932Y-132881101D01*
X101662182Y-132631808D01*
X101744236Y-132361309D01*
X101771943Y-132080000D01*
X101744236Y-131798691D01*
X101662182Y-131528192D01*
X101528932Y-131278899D01*
X101349608Y-131060392D01*
X101131101Y-130881068D01*
X100881808Y-130747818D01*
X100611309Y-130665764D01*
X100400492Y-130645000D01*
X100259508Y-130645000D01*
X100048691Y-130665764D01*
X99778192Y-130747818D01*
X99528899Y-130881068D01*
X99310392Y-131060392D01*
X99187000Y-131210746D01*
X99187000Y-129139254D01*
X99310392Y-129289608D01*
X99528899Y-129468932D01*
X99778192Y-129602182D01*
X100048691Y-129684236D01*
X100259508Y-129705000D01*
X100400492Y-129705000D01*
X100611309Y-129684236D01*
X100881808Y-129602182D01*
X101131101Y-129468932D01*
X101349608Y-129289608D01*
X101528932Y-129071101D01*
X101662182Y-128821808D01*
X101744236Y-128551309D01*
X101771943Y-128270000D01*
X101744236Y-127988691D01*
X101662182Y-127718192D01*
X101528932Y-127468899D01*
X101349608Y-127250392D01*
X101131101Y-127071068D01*
X100998142Y-127000000D01*
X102698057Y-127000000D01*
X102725764Y-127281309D01*
X102807818Y-127551808D01*
X102941068Y-127801101D01*
X103120392Y-128019608D01*
X103338899Y-128198932D01*
X103588192Y-128332182D01*
X103858691Y-128414236D01*
X104069508Y-128435000D01*
X104210492Y-128435000D01*
X104421309Y-128414236D01*
X104691808Y-128332182D01*
X104941101Y-128198932D01*
X105159608Y-128019608D01*
X105181689Y-127992702D01*
X107136903Y-127992702D01*
X107208486Y-128236671D01*
X107463996Y-128357571D01*
X107738184Y-128426300D01*
X108020512Y-128440217D01*
X108094408Y-128429268D01*
X113735000Y-128429268D01*
X113735000Y-128790732D01*
X113805518Y-129145250D01*
X113943844Y-129479199D01*
X114144662Y-129779744D01*
X114400256Y-130035338D01*
X114700801Y-130236156D01*
X115034750Y-130374482D01*
X115389268Y-130445000D01*
X115750732Y-130445000D01*
X116105250Y-130374482D01*
X116439199Y-130236156D01*
X116739744Y-130035338D01*
X116995338Y-129779744D01*
X117196156Y-129479199D01*
X117334482Y-129145250D01*
X117405000Y-128790732D01*
X117405000Y-128429268D01*
X117334482Y-128074750D01*
X117196156Y-127740801D01*
X116995338Y-127440256D01*
X116739744Y-127184662D01*
X116439199Y-126983844D01*
X116132511Y-126856810D01*
X116325833Y-126791846D01*
X116548486Y-126672836D01*
X116668374Y-126387980D01*
X115570000Y-125289605D01*
X114471626Y-126387980D01*
X114591514Y-126672836D01*
X114915210Y-126833699D01*
X115004690Y-126857969D01*
X114700801Y-126983844D01*
X114400256Y-127184662D01*
X114144662Y-127440256D01*
X113943844Y-127740801D01*
X113805518Y-128074750D01*
X113735000Y-128429268D01*
X108094408Y-128429268D01*
X108300130Y-128398787D01*
X108566292Y-128303603D01*
X108691514Y-128236671D01*
X108763097Y-127992702D01*
X107950000Y-127179605D01*
X107136903Y-127992702D01*
X105181689Y-127992702D01*
X105338932Y-127801101D01*
X105472182Y-127551808D01*
X105554236Y-127281309D01*
X105574998Y-127070512D01*
X106509783Y-127070512D01*
X106551213Y-127350130D01*
X106646397Y-127616292D01*
X106713329Y-127741514D01*
X106957298Y-127813097D01*
X107770395Y-127000000D01*
X108129605Y-127000000D01*
X108942702Y-127813097D01*
X109186671Y-127741514D01*
X109307571Y-127486004D01*
X109376300Y-127211816D01*
X109390217Y-126929488D01*
X109348787Y-126649870D01*
X109253603Y-126383708D01*
X109186671Y-126258486D01*
X108942702Y-126186903D01*
X108129605Y-127000000D01*
X107770395Y-127000000D01*
X106957298Y-126186903D01*
X106713329Y-126258486D01*
X106592429Y-126513996D01*
X106523700Y-126788184D01*
X106509783Y-127070512D01*
X105574998Y-127070512D01*
X105581943Y-127000000D01*
X105554236Y-126718691D01*
X105472182Y-126448192D01*
X105338932Y-126198899D01*
X105159608Y-125980392D01*
X104941101Y-125801068D01*
X104814971Y-125733650D01*
X104819727Y-125731680D01*
X105054759Y-125574637D01*
X105254637Y-125374759D01*
X105411680Y-125139727D01*
X105519853Y-124878574D01*
X105575000Y-124601335D01*
X105575000Y-124460000D01*
X106407573Y-124460000D01*
X106437210Y-124760913D01*
X106524983Y-125050261D01*
X106667519Y-125316927D01*
X106859339Y-125550661D01*
X107093073Y-125742481D01*
X107198127Y-125798634D01*
X107136903Y-126007298D01*
X107950000Y-126820395D01*
X108763097Y-126007298D01*
X108701873Y-125798634D01*
X108806927Y-125742481D01*
X109040661Y-125550661D01*
X109232481Y-125316927D01*
X109313856Y-125164684D01*
X113726933Y-125164684D01*
X113773015Y-125523198D01*
X113888154Y-125865833D01*
X114007164Y-126088486D01*
X114292020Y-126208374D01*
X115390395Y-125110000D01*
X115749605Y-125110000D01*
X116847980Y-126208374D01*
X117132836Y-126088486D01*
X117293699Y-125764790D01*
X117388322Y-125415931D01*
X117413067Y-125055316D01*
X117366985Y-124696802D01*
X117251846Y-124354167D01*
X117132836Y-124131514D01*
X116847980Y-124011626D01*
X115749605Y-125110000D01*
X115390395Y-125110000D01*
X114292020Y-124011626D01*
X114007164Y-124131514D01*
X113846301Y-124455210D01*
X113751678Y-124804069D01*
X113726933Y-125164684D01*
X109313856Y-125164684D01*
X109375017Y-125050261D01*
X109462790Y-124760913D01*
X109492427Y-124460000D01*
X109462790Y-124159087D01*
X109375017Y-123869739D01*
X109232481Y-123603073D01*
X109040661Y-123369339D01*
X108806927Y-123177519D01*
X108540261Y-123034983D01*
X108250913Y-122947210D01*
X108025408Y-122925000D01*
X107874592Y-122925000D01*
X107649087Y-122947210D01*
X107359739Y-123034983D01*
X107093073Y-123177519D01*
X106859339Y-123369339D01*
X106667519Y-123603073D01*
X106524983Y-123869739D01*
X106437210Y-124159087D01*
X106407573Y-124460000D01*
X105575000Y-124460000D01*
X105575000Y-124318665D01*
X105519853Y-124041426D01*
X105411680Y-123780273D01*
X105254637Y-123545241D01*
X105054759Y-123345363D01*
X104819727Y-123188320D01*
X104558574Y-123080147D01*
X104281335Y-123025000D01*
X103998665Y-123025000D01*
X103721426Y-123080147D01*
X103460273Y-123188320D01*
X103225241Y-123345363D01*
X103025363Y-123545241D01*
X102868320Y-123780273D01*
X102760147Y-124041426D01*
X102705000Y-124318665D01*
X102705000Y-124601335D01*
X102760147Y-124878574D01*
X102868320Y-125139727D01*
X103025363Y-125374759D01*
X103225241Y-125574637D01*
X103460273Y-125731680D01*
X103465029Y-125733650D01*
X103338899Y-125801068D01*
X103120392Y-125980392D01*
X102941068Y-126198899D01*
X102807818Y-126448192D01*
X102725764Y-126718691D01*
X102698057Y-127000000D01*
X100998142Y-127000000D01*
X101131101Y-126928932D01*
X101349608Y-126749608D01*
X101528932Y-126531101D01*
X101662182Y-126281808D01*
X101744236Y-126011309D01*
X101771943Y-125730000D01*
X101744236Y-125448691D01*
X101662182Y-125178192D01*
X101528932Y-124928899D01*
X101349608Y-124710392D01*
X101131101Y-124531068D01*
X100998142Y-124460000D01*
X101131101Y-124388932D01*
X101349608Y-124209608D01*
X101528932Y-123991101D01*
X101662182Y-123741808D01*
X101744236Y-123471309D01*
X101771943Y-123190000D01*
X101744236Y-122908691D01*
X101662182Y-122638192D01*
X101528932Y-122388899D01*
X101349608Y-122170392D01*
X101131101Y-121991068D01*
X100881808Y-121857818D01*
X100611309Y-121775764D01*
X100400492Y-121755000D01*
X100259508Y-121755000D01*
X100048691Y-121775764D01*
X99778192Y-121857818D01*
X99528899Y-121991068D01*
X99310392Y-122170392D01*
X99187000Y-122320746D01*
X99187000Y-120716681D01*
X99285820Y-120769502D01*
X99405518Y-120805812D01*
X99530000Y-120818072D01*
X101130000Y-120818072D01*
X101254482Y-120805812D01*
X101374180Y-120769502D01*
X101484494Y-120710537D01*
X101581185Y-120631185D01*
X101660537Y-120534494D01*
X101719502Y-120424180D01*
X101755812Y-120304482D01*
X101768072Y-120180000D01*
X101768072Y-118580000D01*
X101755812Y-118455518D01*
X101719502Y-118335820D01*
X101660537Y-118225506D01*
X101581185Y-118128815D01*
X101484494Y-118049463D01*
X101374180Y-117990498D01*
X101254482Y-117954188D01*
X101229920Y-117951769D01*
X101393519Y-117803414D01*
X101561037Y-117577420D01*
X101681246Y-117323087D01*
X101721904Y-117189039D01*
X101599915Y-116967000D01*
X100457000Y-116967000D01*
X100457000Y-116987000D01*
X100203000Y-116987000D01*
X100203000Y-116967000D01*
X100183000Y-116967000D01*
X100183000Y-116910000D01*
X113731928Y-116910000D01*
X113731928Y-119310000D01*
X113744188Y-119434482D01*
X113780498Y-119554180D01*
X113839463Y-119664494D01*
X113918815Y-119761185D01*
X114015506Y-119840537D01*
X114125820Y-119899502D01*
X114245518Y-119935812D01*
X114370000Y-119948072D01*
X114787162Y-119948072D01*
X114700801Y-119983844D01*
X114400256Y-120184662D01*
X114144662Y-120440256D01*
X113943844Y-120740801D01*
X113805518Y-121074750D01*
X113735000Y-121429268D01*
X113735000Y-121790732D01*
X113805518Y-122145250D01*
X113943844Y-122479199D01*
X114144662Y-122779744D01*
X114400256Y-123035338D01*
X114700801Y-123236156D01*
X115007489Y-123363190D01*
X114814167Y-123428154D01*
X114591514Y-123547164D01*
X114471626Y-123832020D01*
X115570000Y-124930395D01*
X116668374Y-123832020D01*
X116548486Y-123547164D01*
X116224790Y-123386301D01*
X116135310Y-123362031D01*
X116439199Y-123236156D01*
X116739744Y-123035338D01*
X116995338Y-122779744D01*
X117196156Y-122479199D01*
X117334482Y-122145250D01*
X117405000Y-121790732D01*
X117405000Y-121429268D01*
X117334482Y-121074750D01*
X117196156Y-120740801D01*
X116995338Y-120440256D01*
X116739744Y-120184662D01*
X116439199Y-119983844D01*
X116352838Y-119948072D01*
X116770000Y-119948072D01*
X116894482Y-119935812D01*
X117014180Y-119899502D01*
X117124494Y-119840537D01*
X117221185Y-119761185D01*
X117300537Y-119664494D01*
X117359502Y-119554180D01*
X117395812Y-119434482D01*
X117408072Y-119310000D01*
X117408072Y-116910000D01*
X117395812Y-116785518D01*
X117359502Y-116665820D01*
X117300537Y-116555506D01*
X117221185Y-116458815D01*
X117124494Y-116379463D01*
X117014180Y-116320498D01*
X116894482Y-116284188D01*
X116770000Y-116271928D01*
X114370000Y-116271928D01*
X114245518Y-116284188D01*
X114125820Y-116320498D01*
X114015506Y-116379463D01*
X113918815Y-116458815D01*
X113839463Y-116555506D01*
X113780498Y-116665820D01*
X113744188Y-116785518D01*
X113731928Y-116910000D01*
X100183000Y-116910000D01*
X100183000Y-116713000D01*
X100203000Y-116713000D01*
X100203000Y-116693000D01*
X100457000Y-116693000D01*
X100457000Y-116713000D01*
X101599915Y-116713000D01*
X101721904Y-116490961D01*
X101681246Y-116356913D01*
X101561037Y-116102580D01*
X101393519Y-115876586D01*
X101185131Y-115687615D01*
X100993318Y-115572579D01*
X101131101Y-115498932D01*
X101349608Y-115319608D01*
X101528932Y-115101101D01*
X101662182Y-114851808D01*
X101744236Y-114581309D01*
X101771943Y-114300000D01*
X101744236Y-114018691D01*
X101662182Y-113748192D01*
X101528932Y-113498899D01*
X101349608Y-113280392D01*
X101131101Y-113101068D01*
X100881808Y-112967818D01*
X100750746Y-112928061D01*
X101835000Y-112928061D01*
X101835000Y-113131939D01*
X101874774Y-113331898D01*
X101952795Y-113520256D01*
X102066063Y-113689774D01*
X102210226Y-113833937D01*
X102379744Y-113947205D01*
X102568102Y-114025226D01*
X102722103Y-114055859D01*
X102698057Y-114300000D01*
X102725764Y-114581309D01*
X102807818Y-114851808D01*
X102941068Y-115101101D01*
X103120392Y-115319608D01*
X103338899Y-115498932D01*
X103588192Y-115632182D01*
X103858691Y-115714236D01*
X104069508Y-115735000D01*
X104210492Y-115735000D01*
X104421309Y-115714236D01*
X104691808Y-115632182D01*
X104941101Y-115498932D01*
X105159608Y-115319608D01*
X105338932Y-115101101D01*
X105472182Y-114851808D01*
X105554236Y-114581309D01*
X105581943Y-114300000D01*
X105554236Y-114018691D01*
X105540708Y-113974094D01*
X105724802Y-113790000D01*
X106411928Y-113790000D01*
X106411928Y-115200000D01*
X106424188Y-115324482D01*
X106460498Y-115444180D01*
X106519463Y-115554494D01*
X106598815Y-115651185D01*
X106695506Y-115730537D01*
X106805820Y-115789502D01*
X106925518Y-115825812D01*
X107050000Y-115838072D01*
X108850000Y-115838072D01*
X108974482Y-115825812D01*
X109094180Y-115789502D01*
X109204494Y-115730537D01*
X109301185Y-115651185D01*
X109380537Y-115554494D01*
X109439502Y-115444180D01*
X109475812Y-115324482D01*
X109488072Y-115200000D01*
X109488072Y-113790000D01*
X109786289Y-113790000D01*
X109830226Y-113833937D01*
X109999744Y-113947205D01*
X110188102Y-114025226D01*
X110388061Y-114065000D01*
X110591939Y-114065000D01*
X110791898Y-114025226D01*
X110980256Y-113947205D01*
X111149774Y-113833937D01*
X111293937Y-113689774D01*
X111407205Y-113520256D01*
X111485226Y-113331898D01*
X111525000Y-113131939D01*
X111525000Y-112928061D01*
X111485226Y-112728102D01*
X111407205Y-112539744D01*
X111293937Y-112370226D01*
X111149774Y-112226063D01*
X110980256Y-112112795D01*
X110791898Y-112034774D01*
X110591939Y-111995000D01*
X110388061Y-111995000D01*
X110221961Y-112028039D01*
X110255000Y-111861939D01*
X110255000Y-111658061D01*
X110215226Y-111458102D01*
X110137205Y-111269744D01*
X110023937Y-111100226D01*
X109879774Y-110956063D01*
X109710256Y-110842795D01*
X109521898Y-110764774D01*
X109321939Y-110725000D01*
X109118061Y-110725000D01*
X108918102Y-110764774D01*
X108729744Y-110842795D01*
X108560226Y-110956063D01*
X108416063Y-111100226D01*
X108302795Y-111269744D01*
X108224774Y-111458102D01*
X108188112Y-111642416D01*
X108170139Y-111660389D01*
X105032521Y-111660389D01*
X104998633Y-111646352D01*
X104798674Y-111606578D01*
X104594796Y-111606578D01*
X104394837Y-111646352D01*
X104206479Y-111724373D01*
X104036961Y-111837641D01*
X103892798Y-111981804D01*
X103779530Y-112151322D01*
X103701509Y-112339680D01*
X103690502Y-112395017D01*
X103673937Y-112370226D01*
X103529774Y-112226063D01*
X103360256Y-112112795D01*
X103171898Y-112034774D01*
X102971939Y-111995000D01*
X102768061Y-111995000D01*
X102568102Y-112034774D01*
X102379744Y-112112795D01*
X102210226Y-112226063D01*
X102066063Y-112370226D01*
X101952795Y-112539744D01*
X101874774Y-112728102D01*
X101835000Y-112928061D01*
X100750746Y-112928061D01*
X100611309Y-112885764D01*
X100400492Y-112865000D01*
X100259508Y-112865000D01*
X100048691Y-112885764D01*
X99778192Y-112967818D01*
X99528899Y-113101068D01*
X99310392Y-113280392D01*
X99187000Y-113430746D01*
X99187000Y-109363407D01*
X99235820Y-109389502D01*
X99355518Y-109425812D01*
X99480000Y-109438072D01*
X101180000Y-109438072D01*
X101304482Y-109425812D01*
X101424180Y-109389502D01*
X101534494Y-109330537D01*
X101631185Y-109251185D01*
X101710537Y-109154494D01*
X101769502Y-109044180D01*
X101790393Y-108975313D01*
X101814866Y-109005134D01*
X102040986Y-109190706D01*
X102298966Y-109328599D01*
X102578889Y-109413513D01*
X102797050Y-109435000D01*
X102942950Y-109435000D01*
X103161111Y-109413513D01*
X103441034Y-109328599D01*
X103699014Y-109190706D01*
X103925134Y-109005134D01*
X104110706Y-108779014D01*
X104145201Y-108714477D01*
X104214822Y-108831355D01*
X104409731Y-109047588D01*
X104643080Y-109221641D01*
X104905901Y-109346825D01*
X105053110Y-109391476D01*
X105283000Y-109270155D01*
X105283000Y-108077000D01*
X105263000Y-108077000D01*
X105263000Y-107823000D01*
X105283000Y-107823000D01*
X105283000Y-106629845D01*
X105537000Y-106629845D01*
X105537000Y-107823000D01*
X105557000Y-107823000D01*
X105557000Y-108077000D01*
X105537000Y-108077000D01*
X105537000Y-109270155D01*
X105766890Y-109391476D01*
X105914099Y-109346825D01*
X106176920Y-109221641D01*
X106410269Y-109047588D01*
X106605178Y-108831355D01*
X106674799Y-108714477D01*
X106709294Y-108779014D01*
X106894866Y-109005134D01*
X107120986Y-109190706D01*
X107378966Y-109328599D01*
X107658889Y-109413513D01*
X107877050Y-109435000D01*
X108022950Y-109435000D01*
X108241111Y-109413513D01*
X108521034Y-109328599D01*
X108779014Y-109190706D01*
X109005134Y-109005134D01*
X109190706Y-108779014D01*
X109328599Y-108521034D01*
X109413513Y-108241111D01*
X109442185Y-107950000D01*
X109413513Y-107658889D01*
X109328599Y-107378966D01*
X109190706Y-107120986D01*
X109005134Y-106894866D01*
X108779014Y-106709294D01*
X108521034Y-106571401D01*
X108241111Y-106486487D01*
X108022950Y-106465000D01*
X107877050Y-106465000D01*
X107658889Y-106486487D01*
X107378966Y-106571401D01*
X107120986Y-106709294D01*
X106894866Y-106894866D01*
X106709294Y-107120986D01*
X106674799Y-107185523D01*
X106605178Y-107068645D01*
X106410269Y-106852412D01*
X106176920Y-106678359D01*
X105914099Y-106553175D01*
X105766890Y-106508524D01*
X105537000Y-106629845D01*
X105283000Y-106629845D01*
X105053110Y-106508524D01*
X104905901Y-106553175D01*
X104643080Y-106678359D01*
X104409731Y-106852412D01*
X104214822Y-107068645D01*
X104145201Y-107185523D01*
X104110706Y-107120986D01*
X103925134Y-106894866D01*
X103699014Y-106709294D01*
X103441034Y-106571401D01*
X103161111Y-106486487D01*
X102942950Y-106465000D01*
X102797050Y-106465000D01*
X102578889Y-106486487D01*
X102298966Y-106571401D01*
X102040986Y-106709294D01*
X101814866Y-106894866D01*
X101790393Y-106924687D01*
X101769502Y-106855820D01*
X101710537Y-106745506D01*
X101631185Y-106648815D01*
X101534494Y-106569463D01*
X101424180Y-106510498D01*
X101304482Y-106474188D01*
X101180000Y-106461928D01*
X99480000Y-106461928D01*
X99355518Y-106474188D01*
X99235820Y-106510498D01*
X99187000Y-106536593D01*
X99187000Y-106302285D01*
X110465000Y-106302285D01*
X110465000Y-107057715D01*
X110612377Y-107798628D01*
X110901467Y-108496554D01*
X111321161Y-109124670D01*
X111855330Y-109658839D01*
X112483446Y-110078533D01*
X113181372Y-110367623D01*
X113922285Y-110515000D01*
X114677715Y-110515000D01*
X115418628Y-110367623D01*
X116116554Y-110078533D01*
X116744670Y-109658839D01*
X117278839Y-109124670D01*
X117698533Y-108496554D01*
X117987623Y-107798628D01*
X118135000Y-107057715D01*
X118135000Y-106302285D01*
X117987623Y-105561372D01*
X117698533Y-104863446D01*
X117278839Y-104235330D01*
X116744670Y-103701161D01*
X116116554Y-103281467D01*
X115418628Y-102992377D01*
X114677715Y-102845000D01*
X113922285Y-102845000D01*
X113181372Y-102992377D01*
X112483446Y-103281467D01*
X111855330Y-103701161D01*
X111321161Y-104235330D01*
X110901467Y-104863446D01*
X110612377Y-105561372D01*
X110465000Y-106302285D01*
X99187000Y-106302285D01*
X99187000Y-102285000D01*
X114269495Y-102285000D01*
X115077803Y-102357139D01*
X115077803Y-102357139D01*
G37*
X115077803Y-102357139D02*
X115831023Y-102563197D01*
X116535852Y-102899384D01*
X117170002Y-103355065D01*
X117713441Y-103915851D01*
X118148981Y-104564001D01*
X118462862Y-105279043D01*
X118646424Y-106043636D01*
X118695001Y-106705126D01*
X118695000Y-139669494D01*
X118622861Y-140477805D01*
X118416803Y-141231023D01*
X118080616Y-141935852D01*
X117624932Y-142570005D01*
X117064149Y-143113441D01*
X116415996Y-143548982D01*
X115700956Y-143862863D01*
X114936364Y-144046424D01*
X114274887Y-144095000D01*
X99187000Y-144095000D01*
X99187000Y-139322285D01*
X110465000Y-139322285D01*
X110465000Y-140077715D01*
X110612377Y-140818628D01*
X110901467Y-141516554D01*
X111321161Y-142144670D01*
X111855330Y-142678839D01*
X112483446Y-143098533D01*
X113181372Y-143387623D01*
X113922285Y-143535000D01*
X114677715Y-143535000D01*
X115418628Y-143387623D01*
X116116554Y-143098533D01*
X116744670Y-142678839D01*
X117278839Y-142144670D01*
X117698533Y-141516554D01*
X117987623Y-140818628D01*
X118135000Y-140077715D01*
X118135000Y-139322285D01*
X117987623Y-138581372D01*
X117698533Y-137883446D01*
X117278839Y-137255330D01*
X116744670Y-136721161D01*
X116116554Y-136301467D01*
X115418628Y-136012377D01*
X114677715Y-135865000D01*
X113922285Y-135865000D01*
X113181372Y-136012377D01*
X112483446Y-136301467D01*
X111855330Y-136721161D01*
X111321161Y-137255330D01*
X110901467Y-137883446D01*
X110612377Y-138581372D01*
X110465000Y-139322285D01*
X99187000Y-139322285D01*
X99187000Y-138496681D01*
X99285820Y-138549502D01*
X99405518Y-138585812D01*
X99530000Y-138598072D01*
X101130000Y-138598072D01*
X101254482Y-138585812D01*
X101374180Y-138549502D01*
X101484494Y-138490537D01*
X101581185Y-138411185D01*
X101660537Y-138314494D01*
X101719502Y-138204180D01*
X101755812Y-138084482D01*
X101768072Y-137960000D01*
X101768072Y-137018665D01*
X102705000Y-137018665D01*
X102705000Y-137301335D01*
X102760147Y-137578574D01*
X102868320Y-137839727D01*
X103025363Y-138074759D01*
X103225241Y-138274637D01*
X103460273Y-138431680D01*
X103721426Y-138539853D01*
X103998665Y-138595000D01*
X104281335Y-138595000D01*
X104558574Y-138539853D01*
X104819727Y-138431680D01*
X105054759Y-138274637D01*
X105254637Y-138074759D01*
X105411680Y-137839727D01*
X105519853Y-137578574D01*
X105575000Y-137301335D01*
X105575000Y-137160000D01*
X106508057Y-137160000D01*
X106535764Y-137441309D01*
X106617818Y-137711808D01*
X106751068Y-137961101D01*
X106930392Y-138179608D01*
X107148899Y-138358932D01*
X107398192Y-138492182D01*
X107668691Y-138574236D01*
X107879508Y-138595000D01*
X108020492Y-138595000D01*
X108231309Y-138574236D01*
X108501808Y-138492182D01*
X108751101Y-138358932D01*
X108969608Y-138179608D01*
X109148932Y-137961101D01*
X109282182Y-137711808D01*
X109364236Y-137441309D01*
X109391943Y-137160000D01*
X109364236Y-136878691D01*
X109282182Y-136608192D01*
X109148932Y-136358899D01*
X108969608Y-136140392D01*
X108751101Y-135961068D01*
X108501808Y-135827818D01*
X108231309Y-135745764D01*
X108020492Y-135725000D01*
X107879508Y-135725000D01*
X107668691Y-135745764D01*
X107398192Y-135827818D01*
X107148899Y-135961068D01*
X106930392Y-136140392D01*
X106751068Y-136358899D01*
X106617818Y-136608192D01*
X106535764Y-136878691D01*
X106508057Y-137160000D01*
X105575000Y-137160000D01*
X105575000Y-137018665D01*
X105519853Y-136741426D01*
X105411680Y-136480273D01*
X105254637Y-136245241D01*
X105054759Y-136045363D01*
X104819727Y-135888320D01*
X104558574Y-135780147D01*
X104281335Y-135725000D01*
X103998665Y-135725000D01*
X103721426Y-135780147D01*
X103460273Y-135888320D01*
X103225241Y-136045363D01*
X103025363Y-136245241D01*
X102868320Y-136480273D01*
X102760147Y-136741426D01*
X102705000Y-137018665D01*
X101768072Y-137018665D01*
X101768072Y-136360000D01*
X101755812Y-136235518D01*
X101719502Y-136115820D01*
X101660537Y-136005506D01*
X101581185Y-135908815D01*
X101484494Y-135829463D01*
X101374180Y-135770498D01*
X101254482Y-135734188D01*
X101229920Y-135731769D01*
X101393519Y-135583414D01*
X101561037Y-135357420D01*
X101681246Y-135103087D01*
X101721904Y-134969039D01*
X101599915Y-134747000D01*
X100457000Y-134747000D01*
X100457000Y-134767000D01*
X100203000Y-134767000D01*
X100203000Y-134747000D01*
X100183000Y-134747000D01*
X100183000Y-134493000D01*
X100203000Y-134493000D01*
X100203000Y-134473000D01*
X100457000Y-134473000D01*
X100457000Y-134493000D01*
X101599915Y-134493000D01*
X101721904Y-134270961D01*
X101681246Y-134136913D01*
X101561037Y-133882580D01*
X101393519Y-133656586D01*
X101185131Y-133467615D01*
X100993318Y-133352579D01*
X101131101Y-133278932D01*
X101349608Y-133099608D01*
X101528932Y-132881101D01*
X101662182Y-132631808D01*
X101744236Y-132361309D01*
X101771943Y-132080000D01*
X101744236Y-131798691D01*
X101662182Y-131528192D01*
X101528932Y-131278899D01*
X101349608Y-131060392D01*
X101131101Y-130881068D01*
X100881808Y-130747818D01*
X100611309Y-130665764D01*
X100400492Y-130645000D01*
X100259508Y-130645000D01*
X100048691Y-130665764D01*
X99778192Y-130747818D01*
X99528899Y-130881068D01*
X99310392Y-131060392D01*
X99187000Y-131210746D01*
X99187000Y-129139254D01*
X99310392Y-129289608D01*
X99528899Y-129468932D01*
X99778192Y-129602182D01*
X100048691Y-129684236D01*
X100259508Y-129705000D01*
X100400492Y-129705000D01*
X100611309Y-129684236D01*
X100881808Y-129602182D01*
X101131101Y-129468932D01*
X101349608Y-129289608D01*
X101528932Y-129071101D01*
X101662182Y-128821808D01*
X101744236Y-128551309D01*
X101771943Y-128270000D01*
X101744236Y-127988691D01*
X101662182Y-127718192D01*
X101528932Y-127468899D01*
X101349608Y-127250392D01*
X101131101Y-127071068D01*
X100998142Y-127000000D01*
X102698057Y-127000000D01*
X102725764Y-127281309D01*
X102807818Y-127551808D01*
X102941068Y-127801101D01*
X103120392Y-128019608D01*
X103338899Y-128198932D01*
X103588192Y-128332182D01*
X103858691Y-128414236D01*
X104069508Y-128435000D01*
X104210492Y-128435000D01*
X104421309Y-128414236D01*
X104691808Y-128332182D01*
X104941101Y-128198932D01*
X105159608Y-128019608D01*
X105181689Y-127992702D01*
X107136903Y-127992702D01*
X107208486Y-128236671D01*
X107463996Y-128357571D01*
X107738184Y-128426300D01*
X108020512Y-128440217D01*
X108094408Y-128429268D01*
X113735000Y-128429268D01*
X113735000Y-128790732D01*
X113805518Y-129145250D01*
X113943844Y-129479199D01*
X114144662Y-129779744D01*
X114400256Y-130035338D01*
X114700801Y-130236156D01*
X115034750Y-130374482D01*
X115389268Y-130445000D01*
X115750732Y-130445000D01*
X116105250Y-130374482D01*
X116439199Y-130236156D01*
X116739744Y-130035338D01*
X116995338Y-129779744D01*
X117196156Y-129479199D01*
X117334482Y-129145250D01*
X117405000Y-128790732D01*
X117405000Y-128429268D01*
X117334482Y-128074750D01*
X117196156Y-127740801D01*
X116995338Y-127440256D01*
X116739744Y-127184662D01*
X116439199Y-126983844D01*
X116132511Y-126856810D01*
X116325833Y-126791846D01*
X116548486Y-126672836D01*
X116668374Y-126387980D01*
X115570000Y-125289605D01*
X114471626Y-126387980D01*
X114591514Y-126672836D01*
X114915210Y-126833699D01*
X115004690Y-126857969D01*
X114700801Y-126983844D01*
X114400256Y-127184662D01*
X114144662Y-127440256D01*
X113943844Y-127740801D01*
X113805518Y-128074750D01*
X113735000Y-128429268D01*
X108094408Y-128429268D01*
X108300130Y-128398787D01*
X108566292Y-128303603D01*
X108691514Y-128236671D01*
X108763097Y-127992702D01*
X107950000Y-127179605D01*
X107136903Y-127992702D01*
X105181689Y-127992702D01*
X105338932Y-127801101D01*
X105472182Y-127551808D01*
X105554236Y-127281309D01*
X105574998Y-127070512D01*
X106509783Y-127070512D01*
X106551213Y-127350130D01*
X106646397Y-127616292D01*
X106713329Y-127741514D01*
X106957298Y-127813097D01*
X107770395Y-127000000D01*
X108129605Y-127000000D01*
X108942702Y-127813097D01*
X109186671Y-127741514D01*
X109307571Y-127486004D01*
X109376300Y-127211816D01*
X109390217Y-126929488D01*
X109348787Y-126649870D01*
X109253603Y-126383708D01*
X109186671Y-126258486D01*
X108942702Y-126186903D01*
X108129605Y-127000000D01*
X107770395Y-127000000D01*
X106957298Y-126186903D01*
X106713329Y-126258486D01*
X106592429Y-126513996D01*
X106523700Y-126788184D01*
X106509783Y-127070512D01*
X105574998Y-127070512D01*
X105581943Y-127000000D01*
X105554236Y-126718691D01*
X105472182Y-126448192D01*
X105338932Y-126198899D01*
X105159608Y-125980392D01*
X104941101Y-125801068D01*
X104814971Y-125733650D01*
X104819727Y-125731680D01*
X105054759Y-125574637D01*
X105254637Y-125374759D01*
X105411680Y-125139727D01*
X105519853Y-124878574D01*
X105575000Y-124601335D01*
X105575000Y-124460000D01*
X106407573Y-124460000D01*
X106437210Y-124760913D01*
X106524983Y-125050261D01*
X106667519Y-125316927D01*
X106859339Y-125550661D01*
X107093073Y-125742481D01*
X107198127Y-125798634D01*
X107136903Y-126007298D01*
X107950000Y-126820395D01*
X108763097Y-126007298D01*
X108701873Y-125798634D01*
X108806927Y-125742481D01*
X109040661Y-125550661D01*
X109232481Y-125316927D01*
X109313856Y-125164684D01*
X113726933Y-125164684D01*
X113773015Y-125523198D01*
X113888154Y-125865833D01*
X114007164Y-126088486D01*
X114292020Y-126208374D01*
X115390395Y-125110000D01*
X115749605Y-125110000D01*
X116847980Y-126208374D01*
X117132836Y-126088486D01*
X117293699Y-125764790D01*
X117388322Y-125415931D01*
X117413067Y-125055316D01*
X117366985Y-124696802D01*
X117251846Y-124354167D01*
X117132836Y-124131514D01*
X116847980Y-124011626D01*
X115749605Y-125110000D01*
X115390395Y-125110000D01*
X114292020Y-124011626D01*
X114007164Y-124131514D01*
X113846301Y-124455210D01*
X113751678Y-124804069D01*
X113726933Y-125164684D01*
X109313856Y-125164684D01*
X109375017Y-125050261D01*
X109462790Y-124760913D01*
X109492427Y-124460000D01*
X109462790Y-124159087D01*
X109375017Y-123869739D01*
X109232481Y-123603073D01*
X109040661Y-123369339D01*
X108806927Y-123177519D01*
X108540261Y-123034983D01*
X108250913Y-122947210D01*
X108025408Y-122925000D01*
X107874592Y-122925000D01*
X107649087Y-122947210D01*
X107359739Y-123034983D01*
X107093073Y-123177519D01*
X106859339Y-123369339D01*
X106667519Y-123603073D01*
X106524983Y-123869739D01*
X106437210Y-124159087D01*
X106407573Y-124460000D01*
X105575000Y-124460000D01*
X105575000Y-124318665D01*
X105519853Y-124041426D01*
X105411680Y-123780273D01*
X105254637Y-123545241D01*
X105054759Y-123345363D01*
X104819727Y-123188320D01*
X104558574Y-123080147D01*
X104281335Y-123025000D01*
X103998665Y-123025000D01*
X103721426Y-123080147D01*
X103460273Y-123188320D01*
X103225241Y-123345363D01*
X103025363Y-123545241D01*
X102868320Y-123780273D01*
X102760147Y-124041426D01*
X102705000Y-124318665D01*
X102705000Y-124601335D01*
X102760147Y-124878574D01*
X102868320Y-125139727D01*
X103025363Y-125374759D01*
X103225241Y-125574637D01*
X103460273Y-125731680D01*
X103465029Y-125733650D01*
X103338899Y-125801068D01*
X103120392Y-125980392D01*
X102941068Y-126198899D01*
X102807818Y-126448192D01*
X102725764Y-126718691D01*
X102698057Y-127000000D01*
X100998142Y-127000000D01*
X101131101Y-126928932D01*
X101349608Y-126749608D01*
X101528932Y-126531101D01*
X101662182Y-126281808D01*
X101744236Y-126011309D01*
X101771943Y-125730000D01*
X101744236Y-125448691D01*
X101662182Y-125178192D01*
X101528932Y-124928899D01*
X101349608Y-124710392D01*
X101131101Y-124531068D01*
X100998142Y-124460000D01*
X101131101Y-124388932D01*
X101349608Y-124209608D01*
X101528932Y-123991101D01*
X101662182Y-123741808D01*
X101744236Y-123471309D01*
X101771943Y-123190000D01*
X101744236Y-122908691D01*
X101662182Y-122638192D01*
X101528932Y-122388899D01*
X101349608Y-122170392D01*
X101131101Y-121991068D01*
X100881808Y-121857818D01*
X100611309Y-121775764D01*
X100400492Y-121755000D01*
X100259508Y-121755000D01*
X100048691Y-121775764D01*
X99778192Y-121857818D01*
X99528899Y-121991068D01*
X99310392Y-122170392D01*
X99187000Y-122320746D01*
X99187000Y-120716681D01*
X99285820Y-120769502D01*
X99405518Y-120805812D01*
X99530000Y-120818072D01*
X101130000Y-120818072D01*
X101254482Y-120805812D01*
X101374180Y-120769502D01*
X101484494Y-120710537D01*
X101581185Y-120631185D01*
X101660537Y-120534494D01*
X101719502Y-120424180D01*
X101755812Y-120304482D01*
X101768072Y-120180000D01*
X101768072Y-118580000D01*
X101755812Y-118455518D01*
X101719502Y-118335820D01*
X101660537Y-118225506D01*
X101581185Y-118128815D01*
X101484494Y-118049463D01*
X101374180Y-117990498D01*
X101254482Y-117954188D01*
X101229920Y-117951769D01*
X101393519Y-117803414D01*
X101561037Y-117577420D01*
X101681246Y-117323087D01*
X101721904Y-117189039D01*
X101599915Y-116967000D01*
X100457000Y-116967000D01*
X100457000Y-116987000D01*
X100203000Y-116987000D01*
X100203000Y-116967000D01*
X100183000Y-116967000D01*
X100183000Y-116910000D01*
X113731928Y-116910000D01*
X113731928Y-119310000D01*
X113744188Y-119434482D01*
X113780498Y-119554180D01*
X113839463Y-119664494D01*
X113918815Y-119761185D01*
X114015506Y-119840537D01*
X114125820Y-119899502D01*
X114245518Y-119935812D01*
X114370000Y-119948072D01*
X114787162Y-119948072D01*
X114700801Y-119983844D01*
X114400256Y-120184662D01*
X114144662Y-120440256D01*
X113943844Y-120740801D01*
X113805518Y-121074750D01*
X113735000Y-121429268D01*
X113735000Y-121790732D01*
X113805518Y-122145250D01*
X113943844Y-122479199D01*
X114144662Y-122779744D01*
X114400256Y-123035338D01*
X114700801Y-123236156D01*
X115007489Y-123363190D01*
X114814167Y-123428154D01*
X114591514Y-123547164D01*
X114471626Y-123832020D01*
X115570000Y-124930395D01*
X116668374Y-123832020D01*
X116548486Y-123547164D01*
X116224790Y-123386301D01*
X116135310Y-123362031D01*
X116439199Y-123236156D01*
X116739744Y-123035338D01*
X116995338Y-122779744D01*
X117196156Y-122479199D01*
X117334482Y-122145250D01*
X117405000Y-121790732D01*
X117405000Y-121429268D01*
X117334482Y-121074750D01*
X117196156Y-120740801D01*
X116995338Y-120440256D01*
X116739744Y-120184662D01*
X116439199Y-119983844D01*
X116352838Y-119948072D01*
X116770000Y-119948072D01*
X116894482Y-119935812D01*
X117014180Y-119899502D01*
X117124494Y-119840537D01*
X117221185Y-119761185D01*
X117300537Y-119664494D01*
X117359502Y-119554180D01*
X117395812Y-119434482D01*
X117408072Y-119310000D01*
X117408072Y-116910000D01*
X117395812Y-116785518D01*
X117359502Y-116665820D01*
X117300537Y-116555506D01*
X117221185Y-116458815D01*
X117124494Y-116379463D01*
X117014180Y-116320498D01*
X116894482Y-116284188D01*
X116770000Y-116271928D01*
X114370000Y-116271928D01*
X114245518Y-116284188D01*
X114125820Y-116320498D01*
X114015506Y-116379463D01*
X113918815Y-116458815D01*
X113839463Y-116555506D01*
X113780498Y-116665820D01*
X113744188Y-116785518D01*
X113731928Y-116910000D01*
X100183000Y-116910000D01*
X100183000Y-116713000D01*
X100203000Y-116713000D01*
X100203000Y-116693000D01*
X100457000Y-116693000D01*
X100457000Y-116713000D01*
X101599915Y-116713000D01*
X101721904Y-116490961D01*
X101681246Y-116356913D01*
X101561037Y-116102580D01*
X101393519Y-115876586D01*
X101185131Y-115687615D01*
X100993318Y-115572579D01*
X101131101Y-115498932D01*
X101349608Y-115319608D01*
X101528932Y-115101101D01*
X101662182Y-114851808D01*
X101744236Y-114581309D01*
X101771943Y-114300000D01*
X101744236Y-114018691D01*
X101662182Y-113748192D01*
X101528932Y-113498899D01*
X101349608Y-113280392D01*
X101131101Y-113101068D01*
X100881808Y-112967818D01*
X100750746Y-112928061D01*
X101835000Y-112928061D01*
X101835000Y-113131939D01*
X101874774Y-113331898D01*
X101952795Y-113520256D01*
X102066063Y-113689774D01*
X102210226Y-113833937D01*
X102379744Y-113947205D01*
X102568102Y-114025226D01*
X102722103Y-114055859D01*
X102698057Y-114300000D01*
X102725764Y-114581309D01*
X102807818Y-114851808D01*
X102941068Y-115101101D01*
X103120392Y-115319608D01*
X103338899Y-115498932D01*
X103588192Y-115632182D01*
X103858691Y-115714236D01*
X104069508Y-115735000D01*
X104210492Y-115735000D01*
X104421309Y-115714236D01*
X104691808Y-115632182D01*
X104941101Y-115498932D01*
X105159608Y-115319608D01*
X105338932Y-115101101D01*
X105472182Y-114851808D01*
X105554236Y-114581309D01*
X105581943Y-114300000D01*
X105554236Y-114018691D01*
X105540708Y-113974094D01*
X105724802Y-113790000D01*
X106411928Y-113790000D01*
X106411928Y-115200000D01*
X106424188Y-115324482D01*
X106460498Y-115444180D01*
X106519463Y-115554494D01*
X106598815Y-115651185D01*
X106695506Y-115730537D01*
X106805820Y-115789502D01*
X106925518Y-115825812D01*
X107050000Y-115838072D01*
X108850000Y-115838072D01*
X108974482Y-115825812D01*
X109094180Y-115789502D01*
X109204494Y-115730537D01*
X109301185Y-115651185D01*
X109380537Y-115554494D01*
X109439502Y-115444180D01*
X109475812Y-115324482D01*
X109488072Y-115200000D01*
X109488072Y-113790000D01*
X109786289Y-113790000D01*
X109830226Y-113833937D01*
X109999744Y-113947205D01*
X110188102Y-114025226D01*
X110388061Y-114065000D01*
X110591939Y-114065000D01*
X110791898Y-114025226D01*
X110980256Y-113947205D01*
X111149774Y-113833937D01*
X111293937Y-113689774D01*
X111407205Y-113520256D01*
X111485226Y-113331898D01*
X111525000Y-113131939D01*
X111525000Y-112928061D01*
X111485226Y-112728102D01*
X111407205Y-112539744D01*
X111293937Y-112370226D01*
X111149774Y-112226063D01*
X110980256Y-112112795D01*
X110791898Y-112034774D01*
X110591939Y-111995000D01*
X110388061Y-111995000D01*
X110221961Y-112028039D01*
X110255000Y-111861939D01*
X110255000Y-111658061D01*
X110215226Y-111458102D01*
X110137205Y-111269744D01*
X110023937Y-111100226D01*
X109879774Y-110956063D01*
X109710256Y-110842795D01*
X109521898Y-110764774D01*
X109321939Y-110725000D01*
X109118061Y-110725000D01*
X108918102Y-110764774D01*
X108729744Y-110842795D01*
X108560226Y-110956063D01*
X108416063Y-111100226D01*
X108302795Y-111269744D01*
X108224774Y-111458102D01*
X108188112Y-111642416D01*
X108170139Y-111660389D01*
X105032521Y-111660389D01*
X104998633Y-111646352D01*
X104798674Y-111606578D01*
X104594796Y-111606578D01*
X104394837Y-111646352D01*
X104206479Y-111724373D01*
X104036961Y-111837641D01*
X103892798Y-111981804D01*
X103779530Y-112151322D01*
X103701509Y-112339680D01*
X103690502Y-112395017D01*
X103673937Y-112370226D01*
X103529774Y-112226063D01*
X103360256Y-112112795D01*
X103171898Y-112034774D01*
X102971939Y-111995000D01*
X102768061Y-111995000D01*
X102568102Y-112034774D01*
X102379744Y-112112795D01*
X102210226Y-112226063D01*
X102066063Y-112370226D01*
X101952795Y-112539744D01*
X101874774Y-112728102D01*
X101835000Y-112928061D01*
X100750746Y-112928061D01*
X100611309Y-112885764D01*
X100400492Y-112865000D01*
X100259508Y-112865000D01*
X100048691Y-112885764D01*
X99778192Y-112967818D01*
X99528899Y-113101068D01*
X99310392Y-113280392D01*
X99187000Y-113430746D01*
X99187000Y-109363407D01*
X99235820Y-109389502D01*
X99355518Y-109425812D01*
X99480000Y-109438072D01*
X101180000Y-109438072D01*
X101304482Y-109425812D01*
X101424180Y-109389502D01*
X101534494Y-109330537D01*
X101631185Y-109251185D01*
X101710537Y-109154494D01*
X101769502Y-109044180D01*
X101790393Y-108975313D01*
X101814866Y-109005134D01*
X102040986Y-109190706D01*
X102298966Y-109328599D01*
X102578889Y-109413513D01*
X102797050Y-109435000D01*
X102942950Y-109435000D01*
X103161111Y-109413513D01*
X103441034Y-109328599D01*
X103699014Y-109190706D01*
X103925134Y-109005134D01*
X104110706Y-108779014D01*
X104145201Y-108714477D01*
X104214822Y-108831355D01*
X104409731Y-109047588D01*
X104643080Y-109221641D01*
X104905901Y-109346825D01*
X105053110Y-109391476D01*
X105283000Y-109270155D01*
X105283000Y-108077000D01*
X105263000Y-108077000D01*
X105263000Y-107823000D01*
X105283000Y-107823000D01*
X105283000Y-106629845D01*
X105537000Y-106629845D01*
X105537000Y-107823000D01*
X105557000Y-107823000D01*
X105557000Y-108077000D01*
X105537000Y-108077000D01*
X105537000Y-109270155D01*
X105766890Y-109391476D01*
X105914099Y-109346825D01*
X106176920Y-109221641D01*
X106410269Y-109047588D01*
X106605178Y-108831355D01*
X106674799Y-108714477D01*
X106709294Y-108779014D01*
X106894866Y-109005134D01*
X107120986Y-109190706D01*
X107378966Y-109328599D01*
X107658889Y-109413513D01*
X107877050Y-109435000D01*
X108022950Y-109435000D01*
X108241111Y-109413513D01*
X108521034Y-109328599D01*
X108779014Y-109190706D01*
X109005134Y-109005134D01*
X109190706Y-108779014D01*
X109328599Y-108521034D01*
X109413513Y-108241111D01*
X109442185Y-107950000D01*
X109413513Y-107658889D01*
X109328599Y-107378966D01*
X109190706Y-107120986D01*
X109005134Y-106894866D01*
X108779014Y-106709294D01*
X108521034Y-106571401D01*
X108241111Y-106486487D01*
X108022950Y-106465000D01*
X107877050Y-106465000D01*
X107658889Y-106486487D01*
X107378966Y-106571401D01*
X107120986Y-106709294D01*
X106894866Y-106894866D01*
X106709294Y-107120986D01*
X106674799Y-107185523D01*
X106605178Y-107068645D01*
X106410269Y-106852412D01*
X106176920Y-106678359D01*
X105914099Y-106553175D01*
X105766890Y-106508524D01*
X105537000Y-106629845D01*
X105283000Y-106629845D01*
X105053110Y-106508524D01*
X104905901Y-106553175D01*
X104643080Y-106678359D01*
X104409731Y-106852412D01*
X104214822Y-107068645D01*
X104145201Y-107185523D01*
X104110706Y-107120986D01*
X103925134Y-106894866D01*
X103699014Y-106709294D01*
X103441034Y-106571401D01*
X103161111Y-106486487D01*
X102942950Y-106465000D01*
X102797050Y-106465000D01*
X102578889Y-106486487D01*
X102298966Y-106571401D01*
X102040986Y-106709294D01*
X101814866Y-106894866D01*
X101790393Y-106924687D01*
X101769502Y-106855820D01*
X101710537Y-106745506D01*
X101631185Y-106648815D01*
X101534494Y-106569463D01*
X101424180Y-106510498D01*
X101304482Y-106474188D01*
X101180000Y-106461928D01*
X99480000Y-106461928D01*
X99355518Y-106474188D01*
X99235820Y-106510498D01*
X99187000Y-106536593D01*
X99187000Y-106302285D01*
X110465000Y-106302285D01*
X110465000Y-107057715D01*
X110612377Y-107798628D01*
X110901467Y-108496554D01*
X111321161Y-109124670D01*
X111855330Y-109658839D01*
X112483446Y-110078533D01*
X113181372Y-110367623D01*
X113922285Y-110515000D01*
X114677715Y-110515000D01*
X115418628Y-110367623D01*
X116116554Y-110078533D01*
X116744670Y-109658839D01*
X117278839Y-109124670D01*
X117698533Y-108496554D01*
X117987623Y-107798628D01*
X118135000Y-107057715D01*
X118135000Y-106302285D01*
X117987623Y-105561372D01*
X117698533Y-104863446D01*
X117278839Y-104235330D01*
X116744670Y-103701161D01*
X116116554Y-103281467D01*
X115418628Y-102992377D01*
X114677715Y-102845000D01*
X113922285Y-102845000D01*
X113181372Y-102992377D01*
X112483446Y-103281467D01*
X111855330Y-103701161D01*
X111321161Y-104235330D01*
X110901467Y-104863446D01*
X110612377Y-105561372D01*
X110465000Y-106302285D01*
X99187000Y-106302285D01*
X99187000Y-102285000D01*
X114269495Y-102285000D01*
X115077803Y-102357139D01*
G36*
X54483000Y-113502456D02*
G01*
X54439463Y-113555506D01*
X54380498Y-113665820D01*
X54344188Y-113785518D01*
X54331928Y-113910000D01*
X54331928Y-115910000D01*
X54344188Y-116034482D01*
X54380498Y-116154180D01*
X54439463Y-116264494D01*
X54518815Y-116361185D01*
X54615506Y-116440537D01*
X54703476Y-116487559D01*
X54571068Y-116648899D01*
X54437818Y-116898192D01*
X54355764Y-117168691D01*
X54328057Y-117450000D01*
X54355764Y-117731309D01*
X54437818Y-118001808D01*
X54571068Y-118251101D01*
X54750392Y-118469608D01*
X54968899Y-118648932D01*
X55101858Y-118720000D01*
X54968899Y-118791068D01*
X54750392Y-118970392D01*
X54571068Y-119188899D01*
X54437818Y-119438192D01*
X54355764Y-119708691D01*
X54328057Y-119990000D01*
X54355764Y-120271309D01*
X54437818Y-120541808D01*
X54571068Y-120791101D01*
X54750392Y-121009608D01*
X54968899Y-121188932D01*
X55101858Y-121260000D01*
X54968899Y-121331068D01*
X54750392Y-121510392D01*
X54571068Y-121728899D01*
X54437818Y-121978192D01*
X54355764Y-122248691D01*
X54328057Y-122530000D01*
X54355764Y-122811309D01*
X54437818Y-123081808D01*
X54571068Y-123331101D01*
X54750392Y-123549608D01*
X54968899Y-123728932D01*
X55101858Y-123800000D01*
X54968899Y-123871068D01*
X54750392Y-124050392D01*
X54571068Y-124268899D01*
X54437818Y-124518192D01*
X54355764Y-124788691D01*
X54328057Y-125070000D01*
X54355764Y-125351309D01*
X54437818Y-125621808D01*
X54571068Y-125871101D01*
X54750392Y-126089608D01*
X54968899Y-126268932D01*
X55101858Y-126340000D01*
X54968899Y-126411068D01*
X54750392Y-126590392D01*
X54571068Y-126808899D01*
X54437818Y-127058192D01*
X54355764Y-127328691D01*
X54328057Y-127610000D01*
X54355764Y-127891309D01*
X54437818Y-128161808D01*
X54571068Y-128411101D01*
X54750392Y-128629608D01*
X54968899Y-128808932D01*
X55101858Y-128880000D01*
X54968899Y-128951068D01*
X54750392Y-129130392D01*
X54571068Y-129348899D01*
X54437818Y-129598192D01*
X54355764Y-129868691D01*
X54328057Y-130150000D01*
X54355764Y-130431309D01*
X54437818Y-130701808D01*
X54571068Y-130951101D01*
X54750392Y-131169608D01*
X54968899Y-131348932D01*
X55101858Y-131420000D01*
X54968899Y-131491068D01*
X54750392Y-131670392D01*
X54571068Y-131888899D01*
X54437818Y-132138192D01*
X54355764Y-132408691D01*
X54328057Y-132690000D01*
X54355764Y-132971309D01*
X54437818Y-133241808D01*
X54571068Y-133491101D01*
X54750392Y-133709608D01*
X54968899Y-133888932D01*
X55218192Y-134022182D01*
X55488691Y-134104236D01*
X55699508Y-134125000D01*
X56240492Y-134125000D01*
X56451309Y-134104236D01*
X56721808Y-134022182D01*
X56971101Y-133888932D01*
X57189608Y-133709608D01*
X57368932Y-133491101D01*
X57502182Y-133241808D01*
X57584236Y-132971309D01*
X57611943Y-132690000D01*
X77188057Y-132690000D01*
X77215764Y-132971309D01*
X77297818Y-133241808D01*
X77431068Y-133491101D01*
X77610392Y-133709608D01*
X77828899Y-133888932D01*
X78078192Y-134022182D01*
X78348691Y-134104236D01*
X78559508Y-134125000D01*
X79100492Y-134125000D01*
X79311309Y-134104236D01*
X79581808Y-134022182D01*
X79831101Y-133888932D01*
X80049608Y-133709608D01*
X80228932Y-133491101D01*
X80362182Y-133241808D01*
X80444236Y-132971309D01*
X80471943Y-132690000D01*
X80444236Y-132408691D01*
X80362182Y-132138192D01*
X80228932Y-131888899D01*
X80049608Y-131670392D01*
X79831101Y-131491068D01*
X79701655Y-131421878D01*
X79719227Y-131414430D01*
X79952662Y-131255673D01*
X80150639Y-131054425D01*
X80305551Y-130818421D01*
X80411444Y-130556730D01*
X80421904Y-130499039D01*
X80299915Y-130277000D01*
X78957000Y-130277000D01*
X78957000Y-130297000D01*
X78703000Y-130297000D01*
X78703000Y-130277000D01*
X77360085Y-130277000D01*
X77238096Y-130499039D01*
X77248556Y-130556730D01*
X77354449Y-130818421D01*
X77509361Y-131054425D01*
X77707338Y-131255673D01*
X77940773Y-131414430D01*
X77958345Y-131421878D01*
X77828899Y-131491068D01*
X77610392Y-131670392D01*
X77431068Y-131888899D01*
X77297818Y-132138192D01*
X77215764Y-132408691D01*
X77188057Y-132690000D01*
X57611943Y-132690000D01*
X57584236Y-132408691D01*
X57502182Y-132138192D01*
X57368932Y-131888899D01*
X57189608Y-131670392D01*
X56971101Y-131491068D01*
X56838142Y-131420000D01*
X56971101Y-131348932D01*
X57189608Y-131169608D01*
X57368932Y-130951101D01*
X57502182Y-130701808D01*
X57584236Y-130431309D01*
X57611943Y-130150000D01*
X57584236Y-129868691D01*
X57502182Y-129598192D01*
X57368932Y-129348899D01*
X57189608Y-129130392D01*
X56971101Y-128951068D01*
X56838142Y-128880000D01*
X56971101Y-128808932D01*
X57189608Y-128629608D01*
X57368932Y-128411101D01*
X57502182Y-128161808D01*
X57584236Y-127891309D01*
X57611943Y-127610000D01*
X57584236Y-127328691D01*
X57502182Y-127058192D01*
X57368932Y-126808899D01*
X57189608Y-126590392D01*
X56971101Y-126411068D01*
X56838142Y-126340000D01*
X56971101Y-126268932D01*
X57189608Y-126089608D01*
X57368932Y-125871101D01*
X57502182Y-125621808D01*
X57584236Y-125351309D01*
X57611943Y-125070000D01*
X57584236Y-124788691D01*
X57502182Y-124518192D01*
X57368932Y-124268899D01*
X57189608Y-124050392D01*
X56971101Y-123871068D01*
X56838142Y-123800000D01*
X56971101Y-123728932D01*
X57189608Y-123549608D01*
X57368932Y-123331101D01*
X57502182Y-123081808D01*
X57584236Y-122811309D01*
X57611943Y-122530000D01*
X57584236Y-122248691D01*
X57502182Y-121978192D01*
X57368932Y-121728899D01*
X57189608Y-121510392D01*
X56971101Y-121331068D01*
X56838142Y-121260000D01*
X56971101Y-121188932D01*
X57189608Y-121009608D01*
X57368932Y-120791101D01*
X57502182Y-120541808D01*
X57584236Y-120271309D01*
X57611943Y-119990000D01*
X57584236Y-119708691D01*
X57502182Y-119438192D01*
X57368932Y-119188899D01*
X57189608Y-118970392D01*
X56971101Y-118791068D01*
X56838142Y-118720000D01*
X56971101Y-118648932D01*
X57189608Y-118469608D01*
X57368932Y-118251101D01*
X57502182Y-118001808D01*
X57584236Y-117731309D01*
X57611943Y-117450000D01*
X57584236Y-117168691D01*
X57502182Y-116898192D01*
X57368932Y-116648899D01*
X57236524Y-116487559D01*
X57324494Y-116440537D01*
X57421185Y-116361185D01*
X57500537Y-116264494D01*
X57559502Y-116154180D01*
X57595812Y-116034482D01*
X57608072Y-115910000D01*
X57608072Y-114427000D01*
X77276946Y-114427000D01*
X77215764Y-114628691D01*
X77188057Y-114910000D01*
X77215764Y-115191309D01*
X77297818Y-115461808D01*
X77431068Y-115711101D01*
X77610392Y-115929608D01*
X77828899Y-116108932D01*
X77961858Y-116180000D01*
X77828899Y-116251068D01*
X77610392Y-116430392D01*
X77431068Y-116648899D01*
X77297818Y-116898192D01*
X77215764Y-117168691D01*
X77188057Y-117450000D01*
X77215764Y-117731309D01*
X77297818Y-118001808D01*
X77431068Y-118251101D01*
X77610392Y-118469608D01*
X77828899Y-118648932D01*
X77961858Y-118720000D01*
X77828899Y-118791068D01*
X77610392Y-118970392D01*
X77431068Y-119188899D01*
X77297818Y-119438192D01*
X77215764Y-119708691D01*
X77188057Y-119990000D01*
X77215764Y-120271309D01*
X77297818Y-120541808D01*
X77431068Y-120791101D01*
X77610392Y-121009608D01*
X77828899Y-121188932D01*
X77961858Y-121260000D01*
X77828899Y-121331068D01*
X77610392Y-121510392D01*
X77431068Y-121728899D01*
X77297818Y-121978192D01*
X77215764Y-122248691D01*
X77188057Y-122530000D01*
X77215764Y-122811309D01*
X77297818Y-123081808D01*
X77431068Y-123331101D01*
X77610392Y-123549608D01*
X77828899Y-123728932D01*
X77961858Y-123800000D01*
X77828899Y-123871068D01*
X77610392Y-124050392D01*
X77431068Y-124268899D01*
X77297818Y-124518192D01*
X77215764Y-124788691D01*
X77188057Y-125070000D01*
X77215764Y-125351309D01*
X77297818Y-125621808D01*
X77431068Y-125871101D01*
X77610392Y-126089608D01*
X77828899Y-126268932D01*
X77961858Y-126340000D01*
X77828899Y-126411068D01*
X77610392Y-126590392D01*
X77431068Y-126808899D01*
X77297818Y-127058192D01*
X77215764Y-127328691D01*
X77188057Y-127610000D01*
X77215764Y-127891309D01*
X77297818Y-128161808D01*
X77431068Y-128411101D01*
X77610392Y-128629608D01*
X77828899Y-128808932D01*
X77958345Y-128878122D01*
X77940773Y-128885570D01*
X77707338Y-129044327D01*
X77509361Y-129245575D01*
X77354449Y-129481579D01*
X77248556Y-129743270D01*
X77238096Y-129800961D01*
X77360085Y-130023000D01*
X78703000Y-130023000D01*
X78703000Y-130003000D01*
X78957000Y-130003000D01*
X78957000Y-130023000D01*
X80299915Y-130023000D01*
X80421904Y-129800961D01*
X80411444Y-129743270D01*
X80305551Y-129481579D01*
X80150639Y-129245575D01*
X79952662Y-129044327D01*
X79719227Y-128885570D01*
X79701655Y-128878122D01*
X79831101Y-128808932D01*
X80049608Y-128629608D01*
X80228932Y-128411101D01*
X80362182Y-128161808D01*
X80413479Y-127992702D01*
X84276903Y-127992702D01*
X84348486Y-128236671D01*
X84603996Y-128357571D01*
X84878184Y-128426300D01*
X85160512Y-128440217D01*
X85440130Y-128398787D01*
X85706292Y-128303603D01*
X85831514Y-128236671D01*
X85903097Y-127992702D01*
X85090000Y-127179605D01*
X84276903Y-127992702D01*
X80413479Y-127992702D01*
X80444236Y-127891309D01*
X80471943Y-127610000D01*
X80444236Y-127328691D01*
X80365920Y-127070512D01*
X83649783Y-127070512D01*
X83691213Y-127350130D01*
X83786397Y-127616292D01*
X83853329Y-127741514D01*
X84097298Y-127813097D01*
X84910395Y-127000000D01*
X85269605Y-127000000D01*
X86082702Y-127813097D01*
X86326671Y-127741514D01*
X86447571Y-127486004D01*
X86516300Y-127211816D01*
X86526741Y-127000000D01*
X87458057Y-127000000D01*
X87485764Y-127281309D01*
X87567818Y-127551808D01*
X87701068Y-127801101D01*
X87880392Y-128019608D01*
X88098899Y-128198932D01*
X88348192Y-128332182D01*
X88618691Y-128414236D01*
X88829508Y-128435000D01*
X88970492Y-128435000D01*
X89181309Y-128414236D01*
X89451808Y-128332182D01*
X89701101Y-128198932D01*
X89919608Y-128019608D01*
X90098932Y-127801101D01*
X90232182Y-127551808D01*
X90314236Y-127281309D01*
X90341943Y-127000000D01*
X90314236Y-126718691D01*
X90232182Y-126448192D01*
X90098932Y-126198899D01*
X89919608Y-125980392D01*
X89701101Y-125801068D01*
X89573651Y-125732944D01*
X89641514Y-125696671D01*
X89713097Y-125452702D01*
X88900000Y-124639605D01*
X88086903Y-125452702D01*
X88158486Y-125696671D01*
X88230480Y-125730736D01*
X88098899Y-125801068D01*
X87880392Y-125980392D01*
X87701068Y-126198899D01*
X87567818Y-126448192D01*
X87485764Y-126718691D01*
X87458057Y-127000000D01*
X86526741Y-127000000D01*
X86530217Y-126929488D01*
X86488787Y-126649870D01*
X86393603Y-126383708D01*
X86326671Y-126258486D01*
X86082702Y-126186903D01*
X85269605Y-127000000D01*
X84910395Y-127000000D01*
X84097298Y-126186903D01*
X83853329Y-126258486D01*
X83732429Y-126513996D01*
X83663700Y-126788184D01*
X83649783Y-127070512D01*
X80365920Y-127070512D01*
X80362182Y-127058192D01*
X80228932Y-126808899D01*
X80049608Y-126590392D01*
X79831101Y-126411068D01*
X79698142Y-126340000D01*
X79831101Y-126268932D01*
X80049608Y-126089608D01*
X80117158Y-126007298D01*
X84276903Y-126007298D01*
X85090000Y-126820395D01*
X85903097Y-126007298D01*
X85831514Y-125763329D01*
X85576004Y-125642429D01*
X85301816Y-125573700D01*
X85019488Y-125559783D01*
X84739870Y-125601213D01*
X84473708Y-125696397D01*
X84348486Y-125763329D01*
X84276903Y-126007298D01*
X80117158Y-126007298D01*
X80228932Y-125871101D01*
X80362182Y-125621808D01*
X80444236Y-125351309D01*
X80471943Y-125070000D01*
X80444236Y-124788691D01*
X80365920Y-124530512D01*
X87459783Y-124530512D01*
X87501213Y-124810130D01*
X87596397Y-125076292D01*
X87663329Y-125201514D01*
X87907298Y-125273097D01*
X88720395Y-124460000D01*
X89079605Y-124460000D01*
X89892702Y-125273097D01*
X90136671Y-125201514D01*
X90257571Y-124946004D01*
X90326300Y-124671816D01*
X90340217Y-124389488D01*
X90298787Y-124109870D01*
X90203603Y-123843708D01*
X90136671Y-123718486D01*
X89892702Y-123646903D01*
X89079605Y-124460000D01*
X88720395Y-124460000D01*
X87907298Y-123646903D01*
X87663329Y-123718486D01*
X87542429Y-123973996D01*
X87473700Y-124248184D01*
X87459783Y-124530512D01*
X80365920Y-124530512D01*
X80362182Y-124518192D01*
X80228932Y-124268899D01*
X80049608Y-124050392D01*
X79831101Y-123871068D01*
X79698142Y-123800000D01*
X79831101Y-123728932D01*
X80049608Y-123549608D01*
X80117158Y-123467298D01*
X88086903Y-123467298D01*
X88900000Y-124280395D01*
X89713097Y-123467298D01*
X89641514Y-123223329D01*
X89386004Y-123102429D01*
X89111816Y-123033700D01*
X88829488Y-123019783D01*
X88549870Y-123061213D01*
X88283708Y-123156397D01*
X88158486Y-123223329D01*
X88086903Y-123467298D01*
X80117158Y-123467298D01*
X80228932Y-123331101D01*
X80362182Y-123081808D01*
X80444236Y-122811309D01*
X80471943Y-122530000D01*
X80444236Y-122248691D01*
X80362182Y-121978192D01*
X80228932Y-121728899D01*
X80049608Y-121510392D01*
X79831101Y-121331068D01*
X79698142Y-121260000D01*
X79831101Y-121188932D01*
X80049608Y-121009608D01*
X80228932Y-120791101D01*
X80362182Y-120541808D01*
X80444236Y-120271309D01*
X80471943Y-119990000D01*
X80444236Y-119708691D01*
X80362182Y-119438192D01*
X80228932Y-119188899D01*
X80049608Y-118970392D01*
X79831101Y-118791068D01*
X79698142Y-118720000D01*
X79831101Y-118648932D01*
X80049608Y-118469608D01*
X80228932Y-118251101D01*
X80362182Y-118001808D01*
X80444236Y-117731309D01*
X80471943Y-117450000D01*
X80444236Y-117168691D01*
X80362182Y-116898192D01*
X80228932Y-116648899D01*
X80049608Y-116430392D01*
X79831101Y-116251068D01*
X79698142Y-116180000D01*
X79831101Y-116108932D01*
X80049608Y-115929608D01*
X80228932Y-115711101D01*
X80362182Y-115461808D01*
X80444236Y-115191309D01*
X80471943Y-114910000D01*
X80444236Y-114628691D01*
X80362182Y-114358192D01*
X80331078Y-114300000D01*
X87458057Y-114300000D01*
X87485764Y-114581309D01*
X87567818Y-114851808D01*
X87701068Y-115101101D01*
X87880392Y-115319608D01*
X88098899Y-115498932D01*
X88348192Y-115632182D01*
X88618691Y-115714236D01*
X88829508Y-115735000D01*
X88970492Y-115735000D01*
X89181309Y-115714236D01*
X89451808Y-115632182D01*
X89701101Y-115498932D01*
X89919608Y-115319608D01*
X90098932Y-115101101D01*
X90232182Y-114851808D01*
X90314236Y-114581309D01*
X90341943Y-114300000D01*
X90314236Y-114018691D01*
X90232182Y-113748192D01*
X90098932Y-113498899D01*
X89919608Y-113280392D01*
X89701101Y-113101068D01*
X89451808Y-112967818D01*
X89181309Y-112885764D01*
X88970492Y-112865000D01*
X88829508Y-112865000D01*
X88618691Y-112885764D01*
X88348192Y-112967818D01*
X88098899Y-113101068D01*
X87880392Y-113280392D01*
X87701068Y-113498899D01*
X87567818Y-113748192D01*
X87485764Y-114018691D01*
X87458057Y-114300000D01*
X80331078Y-114300000D01*
X80228932Y-114108899D01*
X80137000Y-113996879D01*
X80137000Y-102285000D01*
X93853000Y-102285000D01*
X93853000Y-113430746D01*
X93729608Y-113280392D01*
X93511101Y-113101068D01*
X93261808Y-112967818D01*
X92991309Y-112885764D01*
X92780492Y-112865000D01*
X92639508Y-112865000D01*
X92428691Y-112885764D01*
X92158192Y-112967818D01*
X91908899Y-113101068D01*
X91690392Y-113280392D01*
X91511068Y-113498899D01*
X91377818Y-113748192D01*
X91295764Y-114018691D01*
X91268057Y-114300000D01*
X91295764Y-114581309D01*
X91377818Y-114851808D01*
X91511068Y-115101101D01*
X91690392Y-115319608D01*
X91908899Y-115498932D01*
X92041858Y-115570000D01*
X91908899Y-115641068D01*
X91690392Y-115820392D01*
X91511068Y-116038899D01*
X91377818Y-116288192D01*
X91295764Y-116558691D01*
X91268057Y-116840000D01*
X91295764Y-117121309D01*
X91377818Y-117391808D01*
X91511068Y-117641101D01*
X91690392Y-117859608D01*
X91908899Y-118038932D01*
X92041858Y-118110000D01*
X91908899Y-118181068D01*
X91690392Y-118360392D01*
X91511068Y-118578899D01*
X91377818Y-118828192D01*
X91295764Y-119098691D01*
X91268057Y-119380000D01*
X91295764Y-119661309D01*
X91377818Y-119931808D01*
X91511068Y-120181101D01*
X91690392Y-120399608D01*
X91908899Y-120578932D01*
X92158192Y-120712182D01*
X92428691Y-120794236D01*
X92639508Y-120815000D01*
X92780492Y-120815000D01*
X92991309Y-120794236D01*
X93261808Y-120712182D01*
X93511101Y-120578932D01*
X93729608Y-120399608D01*
X93853000Y-120249254D01*
X93853000Y-121853319D01*
X93754180Y-121800498D01*
X93634482Y-121764188D01*
X93510000Y-121751928D01*
X91910000Y-121751928D01*
X91785518Y-121764188D01*
X91665820Y-121800498D01*
X91555506Y-121859463D01*
X91458815Y-121938815D01*
X91379463Y-122035506D01*
X91320498Y-122145820D01*
X91284188Y-122265518D01*
X91271928Y-122390000D01*
X91271928Y-123990000D01*
X91284188Y-124114482D01*
X91320498Y-124234180D01*
X91379463Y-124344494D01*
X91458815Y-124441185D01*
X91555506Y-124520537D01*
X91665820Y-124579502D01*
X91785518Y-124615812D01*
X91810080Y-124618231D01*
X91646481Y-124766586D01*
X91478963Y-124992580D01*
X91358754Y-125246913D01*
X91318096Y-125380961D01*
X91440085Y-125603000D01*
X92583000Y-125603000D01*
X92583000Y-125583000D01*
X92837000Y-125583000D01*
X92837000Y-125603000D01*
X92857000Y-125603000D01*
X92857000Y-125857000D01*
X92837000Y-125857000D01*
X92837000Y-125877000D01*
X92583000Y-125877000D01*
X92583000Y-125857000D01*
X91440085Y-125857000D01*
X91318096Y-126079039D01*
X91358754Y-126213087D01*
X91478963Y-126467420D01*
X91646481Y-126693414D01*
X91854869Y-126882385D01*
X92046682Y-126997421D01*
X91908899Y-127071068D01*
X91690392Y-127250392D01*
X91511068Y-127468899D01*
X91377818Y-127718192D01*
X91295764Y-127988691D01*
X91268057Y-128270000D01*
X91295764Y-128551309D01*
X91377818Y-128821808D01*
X91511068Y-129071101D01*
X91690392Y-129289608D01*
X91908899Y-129468932D01*
X92158192Y-129602182D01*
X92428691Y-129684236D01*
X92639508Y-129705000D01*
X92780492Y-129705000D01*
X92991309Y-129684236D01*
X93261808Y-129602182D01*
X93511101Y-129468932D01*
X93729608Y-129289608D01*
X93853000Y-129139254D01*
X93853000Y-131210746D01*
X93729608Y-131060392D01*
X93511101Y-130881068D01*
X93261808Y-130747818D01*
X92991309Y-130665764D01*
X92780492Y-130645000D01*
X92639508Y-130645000D01*
X92428691Y-130665764D01*
X92158192Y-130747818D01*
X91908899Y-130881068D01*
X91690392Y-131060392D01*
X91511068Y-131278899D01*
X91377818Y-131528192D01*
X91295764Y-131798691D01*
X91268057Y-132080000D01*
X91295764Y-132361309D01*
X91377818Y-132631808D01*
X91511068Y-132881101D01*
X91690392Y-133099608D01*
X91908899Y-133278932D01*
X92041858Y-133350000D01*
X91908899Y-133421068D01*
X91690392Y-133600392D01*
X91511068Y-133818899D01*
X91377818Y-134068192D01*
X91295764Y-134338691D01*
X91268057Y-134620000D01*
X91295764Y-134901309D01*
X91377818Y-135171808D01*
X91511068Y-135421101D01*
X91690392Y-135639608D01*
X91908899Y-135818932D01*
X92041858Y-135890000D01*
X91908899Y-135961068D01*
X91690392Y-136140392D01*
X91511068Y-136358899D01*
X91377818Y-136608192D01*
X91295764Y-136878691D01*
X91268057Y-137160000D01*
X91295764Y-137441309D01*
X91377818Y-137711808D01*
X91511068Y-137961101D01*
X91690392Y-138179608D01*
X91908899Y-138358932D01*
X92158192Y-138492182D01*
X92428691Y-138574236D01*
X92639508Y-138595000D01*
X92780492Y-138595000D01*
X92991309Y-138574236D01*
X93261808Y-138492182D01*
X93511101Y-138358932D01*
X93729608Y-138179608D01*
X93853000Y-138029254D01*
X93853000Y-144095000D01*
X49657000Y-144095000D01*
X49657000Y-143535000D01*
X49907715Y-143535000D01*
X50648628Y-143387623D01*
X51346554Y-143098533D01*
X51974670Y-142678839D01*
X52508839Y-142144670D01*
X52928533Y-141516554D01*
X53217623Y-140818628D01*
X53365000Y-140077715D01*
X53365000Y-139322285D01*
X53217623Y-138581372D01*
X52928533Y-137883446D01*
X52508839Y-137255330D01*
X52413509Y-137160000D01*
X83648057Y-137160000D01*
X83675764Y-137441309D01*
X83757818Y-137711808D01*
X83891068Y-137961101D01*
X84070392Y-138179608D01*
X84288899Y-138358932D01*
X84538192Y-138492182D01*
X84808691Y-138574236D01*
X85019508Y-138595000D01*
X85160492Y-138595000D01*
X85371309Y-138574236D01*
X85641808Y-138492182D01*
X85891101Y-138358932D01*
X86109608Y-138179608D01*
X86288932Y-137961101D01*
X86422182Y-137711808D01*
X86504236Y-137441309D01*
X86531943Y-137160000D01*
X86518023Y-137018665D01*
X87465000Y-137018665D01*
X87465000Y-137301335D01*
X87520147Y-137578574D01*
X87628320Y-137839727D01*
X87785363Y-138074759D01*
X87985241Y-138274637D01*
X88220273Y-138431680D01*
X88481426Y-138539853D01*
X88758665Y-138595000D01*
X89041335Y-138595000D01*
X89318574Y-138539853D01*
X89579727Y-138431680D01*
X89814759Y-138274637D01*
X90014637Y-138074759D01*
X90171680Y-137839727D01*
X90279853Y-137578574D01*
X90335000Y-137301335D01*
X90335000Y-137018665D01*
X90279853Y-136741426D01*
X90171680Y-136480273D01*
X90014637Y-136245241D01*
X89814759Y-136045363D01*
X89579727Y-135888320D01*
X89318574Y-135780147D01*
X89041335Y-135725000D01*
X88758665Y-135725000D01*
X88481426Y-135780147D01*
X88220273Y-135888320D01*
X87985241Y-136045363D01*
X87785363Y-136245241D01*
X87628320Y-136480273D01*
X87520147Y-136741426D01*
X87465000Y-137018665D01*
X86518023Y-137018665D01*
X86504236Y-136878691D01*
X86422182Y-136608192D01*
X86288932Y-136358899D01*
X86109608Y-136140392D01*
X85891101Y-135961068D01*
X85641808Y-135827818D01*
X85371309Y-135745764D01*
X85160492Y-135725000D01*
X85019508Y-135725000D01*
X84808691Y-135745764D01*
X84538192Y-135827818D01*
X84288899Y-135961068D01*
X84070392Y-136140392D01*
X83891068Y-136358899D01*
X83757818Y-136608192D01*
X83675764Y-136878691D01*
X83648057Y-137160000D01*
X52413509Y-137160000D01*
X51974670Y-136721161D01*
X51346554Y-136301467D01*
X50648628Y-136012377D01*
X49907715Y-135865000D01*
X49657000Y-135865000D01*
X49657000Y-110515000D01*
X49907715Y-110515000D01*
X50648628Y-110367623D01*
X51346554Y-110078533D01*
X51974670Y-109658839D01*
X52508839Y-109124670D01*
X52928533Y-108496554D01*
X53217623Y-107798628D01*
X53365000Y-107057715D01*
X53365000Y-106302285D01*
X53217623Y-105561372D01*
X52928533Y-104863446D01*
X52508839Y-104235330D01*
X51974670Y-103701161D01*
X51346554Y-103281467D01*
X50648628Y-102992377D01*
X49907715Y-102845000D01*
X49657000Y-102845000D01*
X49657000Y-102285000D01*
X54483000Y-102285000D01*
X54483000Y-113502456D01*
X54483000Y-113502456D01*
G37*
X54483000Y-113502456D02*
X54439463Y-113555506D01*
X54380498Y-113665820D01*
X54344188Y-113785518D01*
X54331928Y-113910000D01*
X54331928Y-115910000D01*
X54344188Y-116034482D01*
X54380498Y-116154180D01*
X54439463Y-116264494D01*
X54518815Y-116361185D01*
X54615506Y-116440537D01*
X54703476Y-116487559D01*
X54571068Y-116648899D01*
X54437818Y-116898192D01*
X54355764Y-117168691D01*
X54328057Y-117450000D01*
X54355764Y-117731309D01*
X54437818Y-118001808D01*
X54571068Y-118251101D01*
X54750392Y-118469608D01*
X54968899Y-118648932D01*
X55101858Y-118720000D01*
X54968899Y-118791068D01*
X54750392Y-118970392D01*
X54571068Y-119188899D01*
X54437818Y-119438192D01*
X54355764Y-119708691D01*
X54328057Y-119990000D01*
X54355764Y-120271309D01*
X54437818Y-120541808D01*
X54571068Y-120791101D01*
X54750392Y-121009608D01*
X54968899Y-121188932D01*
X55101858Y-121260000D01*
X54968899Y-121331068D01*
X54750392Y-121510392D01*
X54571068Y-121728899D01*
X54437818Y-121978192D01*
X54355764Y-122248691D01*
X54328057Y-122530000D01*
X54355764Y-122811309D01*
X54437818Y-123081808D01*
X54571068Y-123331101D01*
X54750392Y-123549608D01*
X54968899Y-123728932D01*
X55101858Y-123800000D01*
X54968899Y-123871068D01*
X54750392Y-124050392D01*
X54571068Y-124268899D01*
X54437818Y-124518192D01*
X54355764Y-124788691D01*
X54328057Y-125070000D01*
X54355764Y-125351309D01*
X54437818Y-125621808D01*
X54571068Y-125871101D01*
X54750392Y-126089608D01*
X54968899Y-126268932D01*
X55101858Y-126340000D01*
X54968899Y-126411068D01*
X54750392Y-126590392D01*
X54571068Y-126808899D01*
X54437818Y-127058192D01*
X54355764Y-127328691D01*
X54328057Y-127610000D01*
X54355764Y-127891309D01*
X54437818Y-128161808D01*
X54571068Y-128411101D01*
X54750392Y-128629608D01*
X54968899Y-128808932D01*
X55101858Y-128880000D01*
X54968899Y-128951068D01*
X54750392Y-129130392D01*
X54571068Y-129348899D01*
X54437818Y-129598192D01*
X54355764Y-129868691D01*
X54328057Y-130150000D01*
X54355764Y-130431309D01*
X54437818Y-130701808D01*
X54571068Y-130951101D01*
X54750392Y-131169608D01*
X54968899Y-131348932D01*
X55101858Y-131420000D01*
X54968899Y-131491068D01*
X54750392Y-131670392D01*
X54571068Y-131888899D01*
X54437818Y-132138192D01*
X54355764Y-132408691D01*
X54328057Y-132690000D01*
X54355764Y-132971309D01*
X54437818Y-133241808D01*
X54571068Y-133491101D01*
X54750392Y-133709608D01*
X54968899Y-133888932D01*
X55218192Y-134022182D01*
X55488691Y-134104236D01*
X55699508Y-134125000D01*
X56240492Y-134125000D01*
X56451309Y-134104236D01*
X56721808Y-134022182D01*
X56971101Y-133888932D01*
X57189608Y-133709608D01*
X57368932Y-133491101D01*
X57502182Y-133241808D01*
X57584236Y-132971309D01*
X57611943Y-132690000D01*
X77188057Y-132690000D01*
X77215764Y-132971309D01*
X77297818Y-133241808D01*
X77431068Y-133491101D01*
X77610392Y-133709608D01*
X77828899Y-133888932D01*
X78078192Y-134022182D01*
X78348691Y-134104236D01*
X78559508Y-134125000D01*
X79100492Y-134125000D01*
X79311309Y-134104236D01*
X79581808Y-134022182D01*
X79831101Y-133888932D01*
X80049608Y-133709608D01*
X80228932Y-133491101D01*
X80362182Y-133241808D01*
X80444236Y-132971309D01*
X80471943Y-132690000D01*
X80444236Y-132408691D01*
X80362182Y-132138192D01*
X80228932Y-131888899D01*
X80049608Y-131670392D01*
X79831101Y-131491068D01*
X79701655Y-131421878D01*
X79719227Y-131414430D01*
X79952662Y-131255673D01*
X80150639Y-131054425D01*
X80305551Y-130818421D01*
X80411444Y-130556730D01*
X80421904Y-130499039D01*
X80299915Y-130277000D01*
X78957000Y-130277000D01*
X78957000Y-130297000D01*
X78703000Y-130297000D01*
X78703000Y-130277000D01*
X77360085Y-130277000D01*
X77238096Y-130499039D01*
X77248556Y-130556730D01*
X77354449Y-130818421D01*
X77509361Y-131054425D01*
X77707338Y-131255673D01*
X77940773Y-131414430D01*
X77958345Y-131421878D01*
X77828899Y-131491068D01*
X77610392Y-131670392D01*
X77431068Y-131888899D01*
X77297818Y-132138192D01*
X77215764Y-132408691D01*
X77188057Y-132690000D01*
X57611943Y-132690000D01*
X57584236Y-132408691D01*
X57502182Y-132138192D01*
X57368932Y-131888899D01*
X57189608Y-131670392D01*
X56971101Y-131491068D01*
X56838142Y-131420000D01*
X56971101Y-131348932D01*
X57189608Y-131169608D01*
X57368932Y-130951101D01*
X57502182Y-130701808D01*
X57584236Y-130431309D01*
X57611943Y-130150000D01*
X57584236Y-129868691D01*
X57502182Y-129598192D01*
X57368932Y-129348899D01*
X57189608Y-129130392D01*
X56971101Y-128951068D01*
X56838142Y-128880000D01*
X56971101Y-128808932D01*
X57189608Y-128629608D01*
X57368932Y-128411101D01*
X57502182Y-128161808D01*
X57584236Y-127891309D01*
X57611943Y-127610000D01*
X57584236Y-127328691D01*
X57502182Y-127058192D01*
X57368932Y-126808899D01*
X57189608Y-126590392D01*
X56971101Y-126411068D01*
X56838142Y-126340000D01*
X56971101Y-126268932D01*
X57189608Y-126089608D01*
X57368932Y-125871101D01*
X57502182Y-125621808D01*
X57584236Y-125351309D01*
X57611943Y-125070000D01*
X57584236Y-124788691D01*
X57502182Y-124518192D01*
X57368932Y-124268899D01*
X57189608Y-124050392D01*
X56971101Y-123871068D01*
X56838142Y-123800000D01*
X56971101Y-123728932D01*
X57189608Y-123549608D01*
X57368932Y-123331101D01*
X57502182Y-123081808D01*
X57584236Y-122811309D01*
X57611943Y-122530000D01*
X57584236Y-122248691D01*
X57502182Y-121978192D01*
X57368932Y-121728899D01*
X57189608Y-121510392D01*
X56971101Y-121331068D01*
X56838142Y-121260000D01*
X56971101Y-121188932D01*
X57189608Y-121009608D01*
X57368932Y-120791101D01*
X57502182Y-120541808D01*
X57584236Y-120271309D01*
X57611943Y-119990000D01*
X57584236Y-119708691D01*
X57502182Y-119438192D01*
X57368932Y-119188899D01*
X57189608Y-118970392D01*
X56971101Y-118791068D01*
X56838142Y-118720000D01*
X56971101Y-118648932D01*
X57189608Y-118469608D01*
X57368932Y-118251101D01*
X57502182Y-118001808D01*
X57584236Y-117731309D01*
X57611943Y-117450000D01*
X57584236Y-117168691D01*
X57502182Y-116898192D01*
X57368932Y-116648899D01*
X57236524Y-116487559D01*
X57324494Y-116440537D01*
X57421185Y-116361185D01*
X57500537Y-116264494D01*
X57559502Y-116154180D01*
X57595812Y-116034482D01*
X57608072Y-115910000D01*
X57608072Y-114427000D01*
X77276946Y-114427000D01*
X77215764Y-114628691D01*
X77188057Y-114910000D01*
X77215764Y-115191309D01*
X77297818Y-115461808D01*
X77431068Y-115711101D01*
X77610392Y-115929608D01*
X77828899Y-116108932D01*
X77961858Y-116180000D01*
X77828899Y-116251068D01*
X77610392Y-116430392D01*
X77431068Y-116648899D01*
X77297818Y-116898192D01*
X77215764Y-117168691D01*
X77188057Y-117450000D01*
X77215764Y-117731309D01*
X77297818Y-118001808D01*
X77431068Y-118251101D01*
X77610392Y-118469608D01*
X77828899Y-118648932D01*
X77961858Y-118720000D01*
X77828899Y-118791068D01*
X77610392Y-118970392D01*
X77431068Y-119188899D01*
X77297818Y-119438192D01*
X77215764Y-119708691D01*
X77188057Y-119990000D01*
X77215764Y-120271309D01*
X77297818Y-120541808D01*
X77431068Y-120791101D01*
X77610392Y-121009608D01*
X77828899Y-121188932D01*
X77961858Y-121260000D01*
X77828899Y-121331068D01*
X77610392Y-121510392D01*
X77431068Y-121728899D01*
X77297818Y-121978192D01*
X77215764Y-122248691D01*
X77188057Y-122530000D01*
X77215764Y-122811309D01*
X77297818Y-123081808D01*
X77431068Y-123331101D01*
X77610392Y-123549608D01*
X77828899Y-123728932D01*
X77961858Y-123800000D01*
X77828899Y-123871068D01*
X77610392Y-124050392D01*
X77431068Y-124268899D01*
X77297818Y-124518192D01*
X77215764Y-124788691D01*
X77188057Y-125070000D01*
X77215764Y-125351309D01*
X77297818Y-125621808D01*
X77431068Y-125871101D01*
X77610392Y-126089608D01*
X77828899Y-126268932D01*
X77961858Y-126340000D01*
X77828899Y-126411068D01*
X77610392Y-126590392D01*
X77431068Y-126808899D01*
X77297818Y-127058192D01*
X77215764Y-127328691D01*
X77188057Y-127610000D01*
X77215764Y-127891309D01*
X77297818Y-128161808D01*
X77431068Y-128411101D01*
X77610392Y-128629608D01*
X77828899Y-128808932D01*
X77958345Y-128878122D01*
X77940773Y-128885570D01*
X77707338Y-129044327D01*
X77509361Y-129245575D01*
X77354449Y-129481579D01*
X77248556Y-129743270D01*
X77238096Y-129800961D01*
X77360085Y-130023000D01*
X78703000Y-130023000D01*
X78703000Y-130003000D01*
X78957000Y-130003000D01*
X78957000Y-130023000D01*
X80299915Y-130023000D01*
X80421904Y-129800961D01*
X80411444Y-129743270D01*
X80305551Y-129481579D01*
X80150639Y-129245575D01*
X79952662Y-129044327D01*
X79719227Y-128885570D01*
X79701655Y-128878122D01*
X79831101Y-128808932D01*
X80049608Y-128629608D01*
X80228932Y-128411101D01*
X80362182Y-128161808D01*
X80413479Y-127992702D01*
X84276903Y-127992702D01*
X84348486Y-128236671D01*
X84603996Y-128357571D01*
X84878184Y-128426300D01*
X85160512Y-128440217D01*
X85440130Y-128398787D01*
X85706292Y-128303603D01*
X85831514Y-128236671D01*
X85903097Y-127992702D01*
X85090000Y-127179605D01*
X84276903Y-127992702D01*
X80413479Y-127992702D01*
X80444236Y-127891309D01*
X80471943Y-127610000D01*
X80444236Y-127328691D01*
X80365920Y-127070512D01*
X83649783Y-127070512D01*
X83691213Y-127350130D01*
X83786397Y-127616292D01*
X83853329Y-127741514D01*
X84097298Y-127813097D01*
X84910395Y-127000000D01*
X85269605Y-127000000D01*
X86082702Y-127813097D01*
X86326671Y-127741514D01*
X86447571Y-127486004D01*
X86516300Y-127211816D01*
X86526741Y-127000000D01*
X87458057Y-127000000D01*
X87485764Y-127281309D01*
X87567818Y-127551808D01*
X87701068Y-127801101D01*
X87880392Y-128019608D01*
X88098899Y-128198932D01*
X88348192Y-128332182D01*
X88618691Y-128414236D01*
X88829508Y-128435000D01*
X88970492Y-128435000D01*
X89181309Y-128414236D01*
X89451808Y-128332182D01*
X89701101Y-128198932D01*
X89919608Y-128019608D01*
X90098932Y-127801101D01*
X90232182Y-127551808D01*
X90314236Y-127281309D01*
X90341943Y-127000000D01*
X90314236Y-126718691D01*
X90232182Y-126448192D01*
X90098932Y-126198899D01*
X89919608Y-125980392D01*
X89701101Y-125801068D01*
X89573651Y-125732944D01*
X89641514Y-125696671D01*
X89713097Y-125452702D01*
X88900000Y-124639605D01*
X88086903Y-125452702D01*
X88158486Y-125696671D01*
X88230480Y-125730736D01*
X88098899Y-125801068D01*
X87880392Y-125980392D01*
X87701068Y-126198899D01*
X87567818Y-126448192D01*
X87485764Y-126718691D01*
X87458057Y-127000000D01*
X86526741Y-127000000D01*
X86530217Y-126929488D01*
X86488787Y-126649870D01*
X86393603Y-126383708D01*
X86326671Y-126258486D01*
X86082702Y-126186903D01*
X85269605Y-127000000D01*
X84910395Y-127000000D01*
X84097298Y-126186903D01*
X83853329Y-126258486D01*
X83732429Y-126513996D01*
X83663700Y-126788184D01*
X83649783Y-127070512D01*
X80365920Y-127070512D01*
X80362182Y-127058192D01*
X80228932Y-126808899D01*
X80049608Y-126590392D01*
X79831101Y-126411068D01*
X79698142Y-126340000D01*
X79831101Y-126268932D01*
X80049608Y-126089608D01*
X80117158Y-126007298D01*
X84276903Y-126007298D01*
X85090000Y-126820395D01*
X85903097Y-126007298D01*
X85831514Y-125763329D01*
X85576004Y-125642429D01*
X85301816Y-125573700D01*
X85019488Y-125559783D01*
X84739870Y-125601213D01*
X84473708Y-125696397D01*
X84348486Y-125763329D01*
X84276903Y-126007298D01*
X80117158Y-126007298D01*
X80228932Y-125871101D01*
X80362182Y-125621808D01*
X80444236Y-125351309D01*
X80471943Y-125070000D01*
X80444236Y-124788691D01*
X80365920Y-124530512D01*
X87459783Y-124530512D01*
X87501213Y-124810130D01*
X87596397Y-125076292D01*
X87663329Y-125201514D01*
X87907298Y-125273097D01*
X88720395Y-124460000D01*
X89079605Y-124460000D01*
X89892702Y-125273097D01*
X90136671Y-125201514D01*
X90257571Y-124946004D01*
X90326300Y-124671816D01*
X90340217Y-124389488D01*
X90298787Y-124109870D01*
X90203603Y-123843708D01*
X90136671Y-123718486D01*
X89892702Y-123646903D01*
X89079605Y-124460000D01*
X88720395Y-124460000D01*
X87907298Y-123646903D01*
X87663329Y-123718486D01*
X87542429Y-123973996D01*
X87473700Y-124248184D01*
X87459783Y-124530512D01*
X80365920Y-124530512D01*
X80362182Y-124518192D01*
X80228932Y-124268899D01*
X80049608Y-124050392D01*
X79831101Y-123871068D01*
X79698142Y-123800000D01*
X79831101Y-123728932D01*
X80049608Y-123549608D01*
X80117158Y-123467298D01*
X88086903Y-123467298D01*
X88900000Y-124280395D01*
X89713097Y-123467298D01*
X89641514Y-123223329D01*
X89386004Y-123102429D01*
X89111816Y-123033700D01*
X88829488Y-123019783D01*
X88549870Y-123061213D01*
X88283708Y-123156397D01*
X88158486Y-123223329D01*
X88086903Y-123467298D01*
X80117158Y-123467298D01*
X80228932Y-123331101D01*
X80362182Y-123081808D01*
X80444236Y-122811309D01*
X80471943Y-122530000D01*
X80444236Y-122248691D01*
X80362182Y-121978192D01*
X80228932Y-121728899D01*
X80049608Y-121510392D01*
X79831101Y-121331068D01*
X79698142Y-121260000D01*
X79831101Y-121188932D01*
X80049608Y-121009608D01*
X80228932Y-120791101D01*
X80362182Y-120541808D01*
X80444236Y-120271309D01*
X80471943Y-119990000D01*
X80444236Y-119708691D01*
X80362182Y-119438192D01*
X80228932Y-119188899D01*
X80049608Y-118970392D01*
X79831101Y-118791068D01*
X79698142Y-118720000D01*
X79831101Y-118648932D01*
X80049608Y-118469608D01*
X80228932Y-118251101D01*
X80362182Y-118001808D01*
X80444236Y-117731309D01*
X80471943Y-117450000D01*
X80444236Y-117168691D01*
X80362182Y-116898192D01*
X80228932Y-116648899D01*
X80049608Y-116430392D01*
X79831101Y-116251068D01*
X79698142Y-116180000D01*
X79831101Y-116108932D01*
X80049608Y-115929608D01*
X80228932Y-115711101D01*
X80362182Y-115461808D01*
X80444236Y-115191309D01*
X80471943Y-114910000D01*
X80444236Y-114628691D01*
X80362182Y-114358192D01*
X80331078Y-114300000D01*
X87458057Y-114300000D01*
X87485764Y-114581309D01*
X87567818Y-114851808D01*
X87701068Y-115101101D01*
X87880392Y-115319608D01*
X88098899Y-115498932D01*
X88348192Y-115632182D01*
X88618691Y-115714236D01*
X88829508Y-115735000D01*
X88970492Y-115735000D01*
X89181309Y-115714236D01*
X89451808Y-115632182D01*
X89701101Y-115498932D01*
X89919608Y-115319608D01*
X90098932Y-115101101D01*
X90232182Y-114851808D01*
X90314236Y-114581309D01*
X90341943Y-114300000D01*
X90314236Y-114018691D01*
X90232182Y-113748192D01*
X90098932Y-113498899D01*
X89919608Y-113280392D01*
X89701101Y-113101068D01*
X89451808Y-112967818D01*
X89181309Y-112885764D01*
X88970492Y-112865000D01*
X88829508Y-112865000D01*
X88618691Y-112885764D01*
X88348192Y-112967818D01*
X88098899Y-113101068D01*
X87880392Y-113280392D01*
X87701068Y-113498899D01*
X87567818Y-113748192D01*
X87485764Y-114018691D01*
X87458057Y-114300000D01*
X80331078Y-114300000D01*
X80228932Y-114108899D01*
X80137000Y-113996879D01*
X80137000Y-102285000D01*
X93853000Y-102285000D01*
X93853000Y-113430746D01*
X93729608Y-113280392D01*
X93511101Y-113101068D01*
X93261808Y-112967818D01*
X92991309Y-112885764D01*
X92780492Y-112865000D01*
X92639508Y-112865000D01*
X92428691Y-112885764D01*
X92158192Y-112967818D01*
X91908899Y-113101068D01*
X91690392Y-113280392D01*
X91511068Y-113498899D01*
X91377818Y-113748192D01*
X91295764Y-114018691D01*
X91268057Y-114300000D01*
X91295764Y-114581309D01*
X91377818Y-114851808D01*
X91511068Y-115101101D01*
X91690392Y-115319608D01*
X91908899Y-115498932D01*
X92041858Y-115570000D01*
X91908899Y-115641068D01*
X91690392Y-115820392D01*
X91511068Y-116038899D01*
X91377818Y-116288192D01*
X91295764Y-116558691D01*
X91268057Y-116840000D01*
X91295764Y-117121309D01*
X91377818Y-117391808D01*
X91511068Y-117641101D01*
X91690392Y-117859608D01*
X91908899Y-118038932D01*
X92041858Y-118110000D01*
X91908899Y-118181068D01*
X91690392Y-118360392D01*
X91511068Y-118578899D01*
X91377818Y-118828192D01*
X91295764Y-119098691D01*
X91268057Y-119380000D01*
X91295764Y-119661309D01*
X91377818Y-119931808D01*
X91511068Y-120181101D01*
X91690392Y-120399608D01*
X91908899Y-120578932D01*
X92158192Y-120712182D01*
X92428691Y-120794236D01*
X92639508Y-120815000D01*
X92780492Y-120815000D01*
X92991309Y-120794236D01*
X93261808Y-120712182D01*
X93511101Y-120578932D01*
X93729608Y-120399608D01*
X93853000Y-120249254D01*
X93853000Y-121853319D01*
X93754180Y-121800498D01*
X93634482Y-121764188D01*
X93510000Y-121751928D01*
X91910000Y-121751928D01*
X91785518Y-121764188D01*
X91665820Y-121800498D01*
X91555506Y-121859463D01*
X91458815Y-121938815D01*
X91379463Y-122035506D01*
X91320498Y-122145820D01*
X91284188Y-122265518D01*
X91271928Y-122390000D01*
X91271928Y-123990000D01*
X91284188Y-124114482D01*
X91320498Y-124234180D01*
X91379463Y-124344494D01*
X91458815Y-124441185D01*
X91555506Y-124520537D01*
X91665820Y-124579502D01*
X91785518Y-124615812D01*
X91810080Y-124618231D01*
X91646481Y-124766586D01*
X91478963Y-124992580D01*
X91358754Y-125246913D01*
X91318096Y-125380961D01*
X91440085Y-125603000D01*
X92583000Y-125603000D01*
X92583000Y-125583000D01*
X92837000Y-125583000D01*
X92837000Y-125603000D01*
X92857000Y-125603000D01*
X92857000Y-125857000D01*
X92837000Y-125857000D01*
X92837000Y-125877000D01*
X92583000Y-125877000D01*
X92583000Y-125857000D01*
X91440085Y-125857000D01*
X91318096Y-126079039D01*
X91358754Y-126213087D01*
X91478963Y-126467420D01*
X91646481Y-126693414D01*
X91854869Y-126882385D01*
X92046682Y-126997421D01*
X91908899Y-127071068D01*
X91690392Y-127250392D01*
X91511068Y-127468899D01*
X91377818Y-127718192D01*
X91295764Y-127988691D01*
X91268057Y-128270000D01*
X91295764Y-128551309D01*
X91377818Y-128821808D01*
X91511068Y-129071101D01*
X91690392Y-129289608D01*
X91908899Y-129468932D01*
X92158192Y-129602182D01*
X92428691Y-129684236D01*
X92639508Y-129705000D01*
X92780492Y-129705000D01*
X92991309Y-129684236D01*
X93261808Y-129602182D01*
X93511101Y-129468932D01*
X93729608Y-129289608D01*
X93853000Y-129139254D01*
X93853000Y-131210746D01*
X93729608Y-131060392D01*
X93511101Y-130881068D01*
X93261808Y-130747818D01*
X92991309Y-130665764D01*
X92780492Y-130645000D01*
X92639508Y-130645000D01*
X92428691Y-130665764D01*
X92158192Y-130747818D01*
X91908899Y-130881068D01*
X91690392Y-131060392D01*
X91511068Y-131278899D01*
X91377818Y-131528192D01*
X91295764Y-131798691D01*
X91268057Y-132080000D01*
X91295764Y-132361309D01*
X91377818Y-132631808D01*
X91511068Y-132881101D01*
X91690392Y-133099608D01*
X91908899Y-133278932D01*
X92041858Y-133350000D01*
X91908899Y-133421068D01*
X91690392Y-133600392D01*
X91511068Y-133818899D01*
X91377818Y-134068192D01*
X91295764Y-134338691D01*
X91268057Y-134620000D01*
X91295764Y-134901309D01*
X91377818Y-135171808D01*
X91511068Y-135421101D01*
X91690392Y-135639608D01*
X91908899Y-135818932D01*
X92041858Y-135890000D01*
X91908899Y-135961068D01*
X91690392Y-136140392D01*
X91511068Y-136358899D01*
X91377818Y-136608192D01*
X91295764Y-136878691D01*
X91268057Y-137160000D01*
X91295764Y-137441309D01*
X91377818Y-137711808D01*
X91511068Y-137961101D01*
X91690392Y-138179608D01*
X91908899Y-138358932D01*
X92158192Y-138492182D01*
X92428691Y-138574236D01*
X92639508Y-138595000D01*
X92780492Y-138595000D01*
X92991309Y-138574236D01*
X93261808Y-138492182D01*
X93511101Y-138358932D01*
X93729608Y-138179608D01*
X93853000Y-138029254D01*
X93853000Y-144095000D01*
X49657000Y-144095000D01*
X49657000Y-143535000D01*
X49907715Y-143535000D01*
X50648628Y-143387623D01*
X51346554Y-143098533D01*
X51974670Y-142678839D01*
X52508839Y-142144670D01*
X52928533Y-141516554D01*
X53217623Y-140818628D01*
X53365000Y-140077715D01*
X53365000Y-139322285D01*
X53217623Y-138581372D01*
X52928533Y-137883446D01*
X52508839Y-137255330D01*
X52413509Y-137160000D01*
X83648057Y-137160000D01*
X83675764Y-137441309D01*
X83757818Y-137711808D01*
X83891068Y-137961101D01*
X84070392Y-138179608D01*
X84288899Y-138358932D01*
X84538192Y-138492182D01*
X84808691Y-138574236D01*
X85019508Y-138595000D01*
X85160492Y-138595000D01*
X85371309Y-138574236D01*
X85641808Y-138492182D01*
X85891101Y-138358932D01*
X86109608Y-138179608D01*
X86288932Y-137961101D01*
X86422182Y-137711808D01*
X86504236Y-137441309D01*
X86531943Y-137160000D01*
X86518023Y-137018665D01*
X87465000Y-137018665D01*
X87465000Y-137301335D01*
X87520147Y-137578574D01*
X87628320Y-137839727D01*
X87785363Y-138074759D01*
X87985241Y-138274637D01*
X88220273Y-138431680D01*
X88481426Y-138539853D01*
X88758665Y-138595000D01*
X89041335Y-138595000D01*
X89318574Y-138539853D01*
X89579727Y-138431680D01*
X89814759Y-138274637D01*
X90014637Y-138074759D01*
X90171680Y-137839727D01*
X90279853Y-137578574D01*
X90335000Y-137301335D01*
X90335000Y-137018665D01*
X90279853Y-136741426D01*
X90171680Y-136480273D01*
X90014637Y-136245241D01*
X89814759Y-136045363D01*
X89579727Y-135888320D01*
X89318574Y-135780147D01*
X89041335Y-135725000D01*
X88758665Y-135725000D01*
X88481426Y-135780147D01*
X88220273Y-135888320D01*
X87985241Y-136045363D01*
X87785363Y-136245241D01*
X87628320Y-136480273D01*
X87520147Y-136741426D01*
X87465000Y-137018665D01*
X86518023Y-137018665D01*
X86504236Y-136878691D01*
X86422182Y-136608192D01*
X86288932Y-136358899D01*
X86109608Y-136140392D01*
X85891101Y-135961068D01*
X85641808Y-135827818D01*
X85371309Y-135745764D01*
X85160492Y-135725000D01*
X85019508Y-135725000D01*
X84808691Y-135745764D01*
X84538192Y-135827818D01*
X84288899Y-135961068D01*
X84070392Y-136140392D01*
X83891068Y-136358899D01*
X83757818Y-136608192D01*
X83675764Y-136878691D01*
X83648057Y-137160000D01*
X52413509Y-137160000D01*
X51974670Y-136721161D01*
X51346554Y-136301467D01*
X50648628Y-136012377D01*
X49907715Y-135865000D01*
X49657000Y-135865000D01*
X49657000Y-110515000D01*
X49907715Y-110515000D01*
X50648628Y-110367623D01*
X51346554Y-110078533D01*
X51974670Y-109658839D01*
X52508839Y-109124670D01*
X52928533Y-108496554D01*
X53217623Y-107798628D01*
X53365000Y-107057715D01*
X53365000Y-106302285D01*
X53217623Y-105561372D01*
X52928533Y-104863446D01*
X52508839Y-104235330D01*
X51974670Y-103701161D01*
X51346554Y-103281467D01*
X50648628Y-102992377D01*
X49907715Y-102845000D01*
X49657000Y-102845000D01*
X49657000Y-102285000D01*
X54483000Y-102285000D01*
X54483000Y-113502456D01*
M02*
